<?xml version="1.0" encoding="UTF-8" standalone="no"?>
<!DOCTYPE svg PUBLIC "-//W3C//DTD SVG 1.1//EN" "http://www.w3.org/Graphics/SVG/1.1/DTD/svg11.dtd">
<svg width="100%" height="100%" viewBox="0 0 1000 1000" version="1.1" xmlns="http://www.w3.org/2000/svg" xmlns:xlink="http://www.w3.org/1999/xlink" xml:space="preserve" xmlns:serif="http://www.serif.com/" style="fill-rule:evenodd;clip-rule:evenodd;stroke-linejoin:round;stroke-miterlimit:2;">
    <g id="Layer_1-2">
        <g transform="matrix(1.195068,0,0,1.195068,-97.534045,-97.545996)">
            <g>
                <g>
                    <path d="M130.24,549.39C125.51,549.39 120.96,548.75 116.6,547.48C112.23,546.21 108.3,544.3 104.8,541.75C101.3,539.21 98.46,535.91 96.27,531.86C94.09,527.81 92.81,523.02 92.45,517.47L105.55,517.47C106.1,522.38 107.55,526.29 109.92,529.2C112.28,532.11 115.29,534.25 118.92,535.61C122.56,536.97 126.42,537.66 130.52,537.66C134.62,537.66 138.02,537.07 141.3,535.89C144.57,534.71 147.19,532.89 149.14,530.43C151.09,527.97 152.07,524.88 152.07,521.15C152.07,517.79 151.09,514.81 149.14,512.21C147.18,509.62 143.52,507.82 138.16,506.82L119.88,503.41C112.69,502.05 106.94,499.11 102.62,494.61C98.3,490.11 96.14,484.67 96.14,478.31C96.14,472.49 97.66,467.51 100.71,463.37C103.76,459.23 107.8,456.07 112.85,453.89C117.9,451.71 123.38,450.62 129.29,450.62C135.57,450.62 141.18,451.69 146.14,453.83C151.1,455.97 155.12,459.2 158.21,463.52C161.3,467.84 163.12,473.23 163.67,479.69L150.44,479.69C149.89,475.51 148.67,472.16 146.76,469.66C144.85,467.16 142.42,465.32 139.46,464.13C136.5,462.95 133.21,462.36 129.57,462.36C125.93,462.36 122.72,462.91 119.68,464C116.63,465.09 114.13,466.75 112.18,468.98C110.22,471.21 109.25,474.1 109.25,477.64C109.25,481.18 110.52,484.14 113.07,486.51C115.62,488.88 119.16,490.51 123.71,491.42L140.9,494.56C148.72,496.02 154.72,498.93 158.91,503.29C163.09,507.66 165.19,513.43 165.19,520.62C165.19,525.44 164.21,529.65 162.26,533.24C160.3,536.83 157.67,539.81 154.35,542.18C151.03,544.55 147.3,546.34 143.16,547.57C139.02,548.8 134.72,549.41 130.27,549.41L130.24,549.39Z" style="fill:white;fill-rule:nonzero;"/>
                    <path d="M191.91,547.75L191.91,463.43L163.67,463.43L163.67,452.24L233.8,452.24L233.8,463.43L205.56,463.43L205.56,547.75L191.91,547.75Z" style="fill:white;fill-rule:nonzero;"/>
                    <path d="M275,549.39C268.27,549.39 262.18,548.05 256.72,545.37C251.26,542.69 246.92,538.57 243.69,533.02C240.46,527.47 238.85,520.47 238.85,512.01L238.85,452.25L252.49,452.25L252.49,512.14C252.49,520.78 254.56,527.08 258.7,531.04C262.84,535 268.36,536.97 275.28,536.97C282.2,536.97 287.56,534.99 291.65,531.04C295.74,527.09 297.79,520.79 297.79,512.14L297.79,452.25L311.43,452.25L311.43,512.01C311.43,520.47 309.79,527.47 306.52,533.02C303.25,538.57 298.86,542.69 293.35,545.37C287.85,548.05 281.73,549.39 275,549.39Z" style="fill:white;fill-rule:nonzero;"/>
                    <path d="M320.43,547.76L320.43,452.25L350.72,452.25C362,452.25 371.25,454.18 378.48,458.05C385.71,461.92 391.08,467.44 394.58,474.63C398.08,481.82 399.83,490.32 399.83,500.14C399.83,509.96 398.08,518.31 394.58,525.45C391.08,532.59 385.71,538.09 378.48,541.96C371.25,545.83 361.99,547.76 350.72,547.76L320.43,547.76ZM334.07,536.15L350.31,536.15C359.13,536.15 366.11,534.72 371.25,531.85C376.39,528.98 380.09,524.85 382.37,519.43C384.64,514.02 385.78,507.58 385.78,500.12C385.78,492.66 384.64,486.07 382.37,480.61C380.1,475.15 376.39,470.97 371.25,468.06C366.11,465.15 359.13,463.69 350.31,463.69L334.07,463.69L334.07,536.15Z" style="fill:white;fill-rule:nonzero;"/>
                    <rect x="407.33" y="452.25" width="13.64" height="95.5" style="fill:white;fill-rule:nonzero;"/>
                    <path d="M475.14,549.39C465.77,549.39 457.52,547.32 450.38,543.18C443.24,539.04 437.69,533.27 433.74,525.85C429.78,518.44 427.8,509.82 427.8,500C427.8,490.18 429.78,481.7 433.74,474.28C437.7,466.87 443.24,461.07 450.38,456.89C457.52,452.71 465.77,450.61 475.14,450.61C484.51,450.61 492.88,452.7 499.97,456.89C507.07,461.07 512.59,466.87 516.55,474.28C520.51,481.69 522.48,490.27 522.48,500C522.48,509.73 520.5,518.44 516.55,525.85C512.59,533.26 507.07,539.04 499.97,543.18C492.88,547.32 484.6,549.39 475.14,549.39ZM475.14,537.25C481.87,537.25 487.74,535.77 492.74,532.82C497.74,529.87 501.63,525.59 504.4,520C507.17,514.41 508.56,507.74 508.56,500.01C508.56,492.28 507.17,485.64 504.4,480.09C501.62,474.54 497.74,470.27 492.74,467.27C487.74,464.27 481.87,462.77 475.14,462.77C468.41,462.77 462.68,464.27 457.68,467.27C452.68,470.27 448.79,474.55 446.02,480.09C443.24,485.64 441.86,492.28 441.86,500.01C441.86,507.74 443.25,514.4 446.02,520C448.79,525.59 452.68,529.87 457.68,532.82C462.68,535.78 468.5,537.25 475.14,537.25Z" style="fill:white;fill-rule:nonzero;"/>
                    <path d="M564.09,547.75L564.09,452.25L596.83,452.25C604.38,452.25 610.61,453.5 615.52,456C620.43,458.5 624.07,461.89 626.44,466.16C628.8,470.44 629.99,475.26 629.99,480.62C629.99,485.98 628.83,490.53 626.51,494.81C624.19,499.09 620.6,502.52 615.73,505.11C610.86,507.7 604.56,509 596.83,509L577.73,509L577.73,547.75L564.09,547.75ZM577.74,497.68L596.43,497.68C603.43,497.68 608.46,496.13 611.51,493.04C614.56,489.95 616.08,485.81 616.08,480.62C616.08,475.16 614.56,470.96 611.51,468C608.46,465.05 603.44,463.57 596.43,463.57L577.74,463.57L577.74,497.68Z" style="fill:white;fill-rule:nonzero;"/>
                    <path d="M738.37,547.75L738.37,452.25L754.33,452.25L791.17,535.88L784.89,536.29L821.18,452.25L837.28,452.25L837.28,547.75L823.64,547.75L823.64,464.8L828.42,466.71L793.22,547.75L782.71,547.75L747.1,466.71L752.01,464.8L752.01,547.75L738.37,547.75Z" style="fill:white;fill-rule:nonzero;"/>
                    <path d="M847.25,547.76L847.25,452.25L907.55,452.25L907.55,463.44L860.89,463.44L860.89,494.14L903.46,494.14L903.46,504.92L860.89,504.92L860.89,536.57L907.55,536.57L907.55,547.76L847.25,547.76Z" style="fill:white;fill-rule:nonzero;"/>
                </g>
                <g>
                    <g>
                        <clipPath id="_clip1">
                            <path d="M696.93,452.58C696.93,453.67 697.81,454.55 698.9,454.55C699.99,454.55 700.87,453.67 700.87,452.58C700.87,451.49 699.99,450.61 698.9,450.61C697.81,450.61 696.93,451.49 696.93,452.58ZM692.98,452.58C692.98,453.67 693.86,454.55 694.95,454.55C696.04,454.55 696.92,453.67 696.92,452.58C696.92,451.49 696.04,450.61 694.95,450.61C693.86,450.61 692.98,451.49 692.98,452.58ZM689.04,452.58C689.04,453.67 689.92,454.55 691.01,454.55C689.92,454.55 689.04,455.43 689.04,456.52C689.04,457.61 689.92,458.49 691.01,458.49C692.1,458.49 692.98,457.61 692.98,456.52C692.98,455.43 692.1,454.55 691.01,454.55C692.1,454.55 692.98,453.67 692.98,452.58C692.98,451.49 692.1,450.61 691.01,450.61C689.92,450.61 689.04,451.49 689.04,452.58ZM685.1,452.58C685.1,453.67 685.98,454.55 687.07,454.55C688.16,454.55 689.04,453.67 689.04,452.58C689.04,451.49 688.16,450.61 687.07,450.61C685.98,450.61 685.1,451.49 685.1,452.58ZM677.21,452.58C677.21,453.67 678.09,454.55 679.18,454.55C680.27,454.55 681.15,453.67 681.15,452.58C681.15,451.49 680.27,450.61 679.18,450.61C678.09,450.61 677.21,451.49 677.21,452.58ZM669.32,452.58C669.32,453.67 670.2,454.55 671.29,454.55C670.2,454.55 669.32,455.43 669.32,456.52C669.32,457.61 670.2,458.49 671.29,458.49C672.38,458.49 673.26,457.61 673.26,456.52C673.26,455.43 672.38,454.55 671.29,454.55C672.38,454.55 673.26,453.67 673.26,452.58C673.26,451.49 672.38,450.61 671.29,450.61C670.2,450.61 669.32,451.49 669.32,452.58ZM681.15,456.53C681.15,457.62 682.03,458.5 683.12,458.5C682.03,458.5 681.15,459.38 681.15,460.47C681.15,461.56 682.03,462.44 683.12,462.44C684.21,462.44 685.09,461.56 685.09,460.47C685.09,459.38 684.21,458.5 683.12,458.5C684.21,458.5 685.09,457.62 685.09,456.53C685.09,455.44 684.21,454.56 683.12,454.56C682.03,454.56 681.15,455.44 681.15,456.53ZM665.38,456.53C665.38,457.62 666.26,458.5 667.35,458.5C668.44,458.5 669.32,457.62 669.32,456.53C669.32,455.44 668.44,454.56 667.35,454.56C666.26,454.56 665.38,455.44 665.38,456.53ZM692.98,460.47C692.98,461.56 693.86,462.44 694.95,462.44C696.04,462.44 696.92,461.56 696.92,460.47C696.92,459.38 696.04,458.5 694.95,458.5C693.86,458.5 692.98,459.38 692.98,460.47ZM685.1,460.47C685.1,461.56 685.98,462.44 687.07,462.44C685.98,462.44 685.1,463.32 685.1,464.41C685.1,465.5 685.98,466.38 687.07,466.38C685.98,466.38 685.1,467.26 685.1,468.35C685.1,469.44 685.98,470.32 687.07,470.32C685.98,470.32 685.1,471.2 685.1,472.29C685.1,473.38 685.98,474.26 687.07,474.26C688.16,474.26 689.04,473.38 689.04,472.29C689.04,471.2 688.16,470.32 687.07,470.32C688.16,470.32 689.04,469.44 689.04,468.35C689.04,467.26 688.16,466.38 687.07,466.38C688.16,466.38 689.04,465.5 689.04,464.41C689.04,463.32 688.16,462.44 687.07,462.44C688.16,462.44 689.04,461.56 689.04,460.47C689.04,459.38 688.16,458.5 687.07,458.5C685.98,458.5 685.1,459.38 685.1,460.47ZM677.21,460.47C677.21,461.56 678.09,462.44 679.18,462.44C680.27,462.44 681.15,461.56 681.15,460.47C681.15,459.38 680.27,458.5 679.18,458.5C678.09,458.5 677.21,459.38 677.21,460.47ZM689.04,464.41C689.04,465.5 689.92,466.38 691.01,466.38C692.1,466.38 692.98,465.5 692.98,464.41C692.98,463.32 692.1,462.44 691.01,462.44C689.92,462.44 689.04,463.32 689.04,464.41ZM673.27,464.41C673.27,465.5 674.15,466.38 675.24,466.38C674.15,466.38 673.27,467.26 673.27,468.35C673.27,469.44 674.15,470.32 675.24,470.32C676.33,470.32 677.21,469.44 677.21,468.35C677.21,467.26 676.33,466.38 675.24,466.38C676.33,466.38 677.21,465.5 677.21,464.41C677.21,463.32 676.33,462.44 675.24,462.44C674.15,462.44 673.27,463.32 673.27,464.41ZM669.32,464.41C669.32,465.5 670.2,466.38 671.29,466.38C670.2,466.38 669.32,467.26 669.32,468.35C669.32,469.44 670.2,470.32 671.29,470.32C670.2,470.32 669.32,471.2 669.32,472.29C669.32,473.38 670.2,474.26 671.29,474.26C672.38,474.26 673.26,473.38 673.26,472.29C673.26,471.2 672.38,470.32 671.29,470.32C672.38,470.32 673.26,469.44 673.26,468.35C673.26,467.26 672.38,466.38 671.29,466.38C672.38,466.38 673.26,465.5 673.26,464.41C673.26,463.32 672.38,462.44 671.29,462.44C670.2,462.44 669.32,463.32 669.32,464.41ZM665.38,464.41C665.38,465.5 666.26,466.38 667.35,466.38C666.26,466.38 665.38,467.26 665.38,468.35C665.38,469.44 666.26,470.32 667.35,470.32C666.26,470.32 665.38,471.2 665.38,472.29C665.38,473.38 666.26,474.26 667.35,474.26C666.26,474.26 665.38,475.14 665.38,476.23C665.38,477.32 666.26,478.2 667.35,478.2C668.44,478.2 669.32,477.32 669.32,476.23C669.32,475.14 668.44,474.26 667.35,474.26C668.44,474.26 669.32,473.38 669.32,472.29C669.32,471.2 668.44,470.32 667.35,470.32C668.44,470.32 669.32,469.44 669.32,468.35C669.32,467.26 668.44,466.38 667.35,466.38C668.44,466.38 669.32,465.5 669.32,464.41C669.32,463.32 668.44,462.44 667.35,462.44C666.26,462.44 665.38,463.32 665.38,464.41ZM696.93,468.36C696.93,469.45 697.81,470.33 698.9,470.33C697.81,470.33 696.93,471.21 696.93,472.3C696.93,473.39 697.81,474.27 698.9,474.27C697.81,474.27 696.93,475.15 696.93,476.24C696.93,477.33 697.81,478.21 698.9,478.21C699.99,478.21 700.87,477.33 700.87,476.24C700.87,475.15 699.99,474.27 698.9,474.27C699.99,474.27 700.87,473.39 700.87,472.3C700.87,471.21 699.99,470.33 698.9,470.33C699.99,470.33 700.87,469.45 700.87,468.36C700.87,467.27 699.99,466.39 698.9,466.39C697.81,466.39 696.93,467.27 696.93,468.36ZM692.98,468.36C692.98,469.45 693.86,470.33 694.95,470.33C696.04,470.33 696.92,469.45 696.92,468.36C696.92,467.27 696.04,466.39 694.95,466.39C693.86,466.39 692.98,467.27 692.98,468.36ZM681.15,468.36C681.15,469.45 682.03,470.33 683.12,470.33C684.21,470.33 685.09,469.45 685.09,468.36C685.09,467.27 684.21,466.39 683.12,466.39C682.03,466.39 681.15,467.27 681.15,468.36ZM677.21,468.36C677.21,469.45 678.09,470.33 679.18,470.33C680.27,470.33 681.15,469.45 681.15,468.36C681.15,467.27 680.27,466.39 679.18,466.39C678.09,466.39 677.21,467.27 677.21,468.36ZM689.04,476.24C689.04,477.33 689.92,478.21 691.01,478.21C689.92,478.21 689.04,479.09 689.04,480.18C689.04,481.27 689.92,482.15 691.01,482.15C689.92,482.15 689.04,483.03 689.04,484.12C689.04,485.21 689.92,486.09 691.01,486.09C692.1,486.09 692.98,485.21 692.98,484.12C692.98,483.03 692.1,482.15 691.01,482.15C692.1,482.15 692.98,481.27 692.98,480.18C692.98,479.09 692.1,478.21 691.01,478.21C692.1,478.21 692.98,477.33 692.98,476.24C692.98,475.15 692.1,474.27 691.01,474.27C689.92,474.27 689.04,475.15 689.04,476.24ZM681.15,476.24C681.15,477.33 682.03,478.21 683.12,478.21C684.21,478.21 685.09,477.33 685.09,476.24C685.09,475.15 684.21,474.27 683.12,474.27C682.03,474.27 681.15,475.15 681.15,476.24ZM673.27,476.24C673.27,477.33 674.15,478.21 675.24,478.21C676.33,478.21 677.21,477.33 677.21,476.24C677.21,475.15 676.33,474.27 675.24,474.27C674.15,474.27 673.27,475.15 673.27,476.24ZM685.1,480.19C685.1,481.28 685.98,482.16 687.07,482.16C688.16,482.16 689.04,481.28 689.04,480.19C689.04,479.1 688.16,478.22 687.07,478.22C685.98,478.22 685.1,479.1 685.1,480.19ZM677.21,480.19C677.21,481.28 678.09,482.16 679.18,482.16C678.09,482.16 677.21,483.04 677.21,484.13C677.21,485.22 678.09,486.1 679.18,486.1C678.09,486.1 677.21,486.98 677.21,488.07C677.21,489.16 678.09,490.04 679.18,490.04C678.09,490.04 677.21,490.92 677.21,492.01C677.21,493.1 678.09,493.98 679.18,493.98C678.09,493.98 677.21,494.86 677.21,495.95C677.21,497.04 678.09,497.92 679.18,497.92C680.27,497.92 681.15,497.04 681.15,495.95C681.15,494.86 680.27,493.98 679.18,493.98C680.27,493.98 681.15,493.1 681.15,492.01C681.15,490.92 680.27,490.04 679.18,490.04C680.27,490.04 681.15,489.16 681.15,488.07C681.15,486.98 680.27,486.1 679.18,486.1C680.27,486.1 681.15,485.22 681.15,484.13C681.15,483.04 680.27,482.16 679.18,482.16C680.27,482.16 681.15,481.28 681.15,480.19C681.15,479.1 680.27,478.22 679.18,478.22C678.09,478.22 677.21,479.1 677.21,480.19ZM724.53,484.13C724.53,485.22 725.41,486.1 726.5,486.1C725.41,486.1 724.53,486.98 724.53,488.07C724.53,489.16 725.41,490.04 726.5,490.04C725.41,490.04 724.53,490.92 724.53,492.01C724.53,493.1 725.41,493.98 726.5,493.98C727.59,493.98 728.47,493.1 728.47,492.01C728.47,490.92 727.59,490.04 726.5,490.04C727.59,490.04 728.47,489.16 728.47,488.07C728.47,486.98 727.59,486.1 726.5,486.1C727.59,486.1 728.47,485.22 728.47,484.13C728.47,483.04 727.59,482.16 726.5,482.16C725.41,482.16 724.53,483.04 724.53,484.13ZM716.64,484.13C716.64,485.22 717.52,486.1 718.61,486.1C717.52,486.1 716.64,486.98 716.64,488.07C716.64,489.16 717.52,490.04 718.61,490.04C719.7,490.04 720.58,489.16 720.58,488.07C720.58,486.98 719.7,486.1 718.61,486.1C719.7,486.1 720.58,485.22 720.58,484.13C720.58,483.04 719.7,482.16 718.61,482.16C717.52,482.16 716.64,483.04 716.64,484.13ZM712.7,484.13C712.7,485.22 713.58,486.1 714.67,486.1C713.58,486.1 712.7,486.98 712.7,488.07C712.7,489.16 713.58,490.04 714.67,490.04C715.76,490.04 716.64,489.16 716.64,488.07C716.64,486.98 715.76,486.1 714.67,486.1C715.76,486.1 716.64,485.22 716.64,484.13C716.64,483.04 715.76,482.16 714.67,482.16C713.58,482.16 712.7,483.04 712.7,484.13ZM708.76,484.13C708.76,485.22 709.64,486.1 710.73,486.1C709.64,486.1 708.76,486.98 708.76,488.07C708.76,489.16 709.64,490.04 710.73,490.04C709.64,490.04 708.76,490.92 708.76,492.01C708.76,493.1 709.64,493.98 710.73,493.98C711.82,493.98 712.7,493.1 712.7,492.01C712.7,490.92 711.82,490.04 710.73,490.04C711.82,490.04 712.7,489.16 712.7,488.07C712.7,486.98 711.82,486.1 710.73,486.1C711.82,486.1 712.7,485.22 712.7,484.13C712.7,483.04 711.82,482.16 710.73,482.16C709.64,482.16 708.76,483.04 708.76,484.13ZM700.87,484.13C700.87,485.22 701.75,486.1 702.84,486.1C703.93,486.1 704.81,485.22 704.81,484.13C704.81,483.04 703.93,482.16 702.84,482.16C701.75,482.16 700.87,483.04 700.87,484.13ZM696.93,484.13C696.93,485.22 697.81,486.1 698.9,486.1C699.99,486.1 700.87,485.22 700.87,484.13C700.87,483.04 699.99,482.16 698.9,482.16C697.81,482.16 696.93,483.04 696.93,484.13ZM692.98,484.13C692.98,485.22 693.86,486.1 694.95,486.1C693.86,486.1 692.98,486.98 692.98,488.07C692.98,489.16 693.86,490.04 694.95,490.04C693.86,490.04 692.98,490.92 692.98,492.01C692.98,493.1 693.86,493.98 694.95,493.98C696.04,493.98 696.92,493.1 696.92,492.01C696.92,490.92 696.04,490.04 694.95,490.04C696.04,490.04 696.92,489.16 696.92,488.07C696.92,486.98 696.04,486.1 694.95,486.1C696.04,486.1 696.92,485.22 696.92,484.13C696.92,483.04 696.04,482.16 694.95,482.16C693.86,482.16 692.98,483.04 692.98,484.13ZM673.27,484.13C673.27,485.22 674.15,486.1 675.24,486.1C676.33,486.1 677.21,485.22 677.21,484.13C677.21,483.04 676.33,482.16 675.24,482.16C674.15,482.16 673.27,483.04 673.27,484.13ZM669.32,484.13C669.32,485.22 670.2,486.1 671.29,486.1C670.2,486.1 669.32,486.98 669.32,488.07C669.32,489.16 670.2,490.04 671.29,490.04C672.38,490.04 673.26,489.16 673.26,488.07C673.26,486.98 672.38,486.1 671.29,486.1C672.38,486.1 673.26,485.22 673.26,484.13C673.26,483.04 672.38,482.16 671.29,482.16C670.2,482.16 669.32,483.04 669.32,484.13ZM665.38,484.13C665.38,485.22 666.26,486.1 667.35,486.1C668.44,486.1 669.32,485.22 669.32,484.13C669.32,483.04 668.44,482.16 667.35,482.16C666.26,482.16 665.38,483.04 665.38,484.13ZM661.43,484.13C661.43,485.22 662.31,486.1 663.4,486.1C662.31,486.1 661.43,486.98 661.43,488.07C661.43,489.16 662.31,490.04 663.4,490.04C664.49,490.04 665.37,489.16 665.37,488.07C665.37,486.98 664.49,486.1 663.4,486.1C664.49,486.1 665.37,485.22 665.37,484.13C665.37,483.04 664.49,482.16 663.4,482.16C662.31,482.16 661.43,483.04 661.43,484.13ZM657.49,484.13C657.49,485.22 658.37,486.1 659.46,486.1C660.55,486.1 661.43,485.22 661.43,484.13C661.43,483.04 660.55,482.16 659.46,482.16C658.37,482.16 657.49,483.04 657.49,484.13ZM649.6,484.13C649.6,485.22 650.48,486.1 651.57,486.1C650.48,486.1 649.6,486.98 649.6,488.07C649.6,489.16 650.48,490.04 651.57,490.04C652.66,490.04 653.54,489.16 653.54,488.07C653.54,486.98 652.66,486.1 651.57,486.1C652.66,486.1 653.54,485.22 653.54,484.13C653.54,483.04 652.66,482.16 651.57,482.16C650.48,482.16 649.6,483.04 649.6,484.13ZM645.66,484.13C645.66,485.22 646.54,486.1 647.63,486.1C646.54,486.1 645.66,486.98 645.66,488.07C645.66,489.16 646.54,490.04 647.63,490.04C648.72,490.04 649.6,489.16 649.6,488.07C649.6,486.98 648.72,486.1 647.63,486.1C648.72,486.1 649.6,485.22 649.6,484.13C649.6,483.04 648.72,482.16 647.63,482.16C646.54,482.16 645.66,483.04 645.66,484.13ZM637.77,484.13C637.77,485.22 638.65,486.1 639.74,486.1C638.65,486.1 637.77,486.98 637.77,488.07C637.77,489.16 638.65,490.04 639.74,490.04C640.83,490.04 641.71,489.16 641.71,488.07C641.71,486.98 640.83,486.1 639.74,486.1C640.83,486.1 641.71,485.22 641.71,484.13C641.71,483.04 640.83,482.16 639.74,482.16C638.65,482.16 637.77,483.04 637.77,484.13ZM720.59,488.07C720.59,489.16 721.47,490.04 722.56,490.04C723.65,490.04 724.53,489.16 724.53,488.07C724.53,486.98 723.65,486.1 722.56,486.1C721.47,486.1 720.59,486.98 720.59,488.07ZM685.1,488.07C685.1,489.16 685.98,490.04 687.07,490.04C685.98,490.04 685.1,490.92 685.1,492.01C685.1,493.1 685.98,493.98 687.07,493.98C685.98,493.98 685.1,494.86 685.1,495.95C685.1,497.04 685.98,497.92 687.07,497.92C688.16,497.92 689.04,497.04 689.04,495.95C689.04,494.86 688.16,493.98 687.07,493.98C688.16,493.98 689.04,493.1 689.04,492.01C689.04,490.92 688.16,490.04 687.07,490.04C688.16,490.04 689.04,489.16 689.04,488.07C689.04,486.98 688.16,486.1 687.07,486.1C685.98,486.1 685.1,486.98 685.1,488.07ZM653.55,488.07C653.55,489.16 654.43,490.04 655.52,490.04C656.61,490.04 657.49,489.16 657.49,488.07C657.49,486.98 656.61,486.1 655.52,486.1C654.43,486.1 653.55,486.98 653.55,488.07ZM633.83,488.07C633.83,489.16 634.71,490.04 635.8,490.04C636.89,490.04 637.77,489.16 637.77,488.07C637.77,486.98 636.89,486.1 635.8,486.1C634.71,486.1 633.83,486.98 633.83,488.07ZM700.87,492.02C700.87,493.11 701.75,493.99 702.84,493.99C701.75,493.99 700.87,494.87 700.87,495.96C700.87,497.05 701.75,497.93 702.84,497.93C701.75,497.93 700.87,498.81 700.87,499.9C700.87,500.99 701.75,501.87 702.84,501.87C703.93,501.87 704.81,500.99 704.81,499.9C704.81,498.81 703.93,497.93 702.84,497.93C703.93,497.93 704.81,497.05 704.81,495.96C704.81,494.87 703.93,493.99 702.84,493.99C703.93,493.99 704.81,493.11 704.81,492.02C704.81,490.93 703.93,490.05 702.84,490.05C701.75,490.05 700.87,490.93 700.87,492.02ZM673.27,492.02C673.27,493.11 674.15,493.99 675.24,493.99C674.15,493.99 673.27,494.87 673.27,495.96C673.27,497.05 674.15,497.93 675.24,497.93C676.33,497.93 677.21,497.05 677.21,495.96C677.21,494.87 676.33,493.99 675.24,493.99C676.33,493.99 677.21,493.11 677.21,492.02C677.21,490.93 676.33,490.05 675.24,490.05C674.15,490.05 673.27,490.93 673.27,492.02ZM657.49,492.02C657.49,493.11 658.37,493.99 659.46,493.99C660.55,493.99 661.43,493.11 661.43,492.02C661.43,490.93 660.55,490.05 659.46,490.05C658.37,490.05 657.49,490.93 657.49,492.02ZM641.72,492.02C641.72,493.11 642.6,493.99 643.69,493.99C642.6,493.99 641.72,494.87 641.72,495.96C641.72,497.05 642.6,497.93 643.69,497.93C642.6,497.93 641.72,498.81 641.72,499.9C641.72,500.99 642.6,501.87 643.69,501.87C642.6,501.87 641.72,502.75 641.72,503.84C641.72,504.93 642.6,505.81 643.69,505.81C642.6,505.81 641.72,506.69 641.72,507.78C641.72,508.87 642.6,509.75 643.69,509.75C642.6,509.75 641.72,510.63 641.72,511.72C641.72,512.81 642.6,513.69 643.69,513.69C644.78,513.69 645.66,512.81 645.66,511.72C645.66,510.63 644.78,509.75 643.69,509.75C644.78,509.75 645.66,508.87 645.66,507.78C645.66,506.69 644.78,505.81 643.69,505.81C644.78,505.81 645.66,504.93 645.66,503.84C645.66,502.75 644.78,501.87 643.69,501.87C644.78,501.87 645.66,500.99 645.66,499.9C645.66,498.81 644.78,497.93 643.69,497.93C644.78,497.93 645.66,497.05 645.66,495.96C645.66,494.87 644.78,493.99 643.69,493.99C644.78,493.99 645.66,493.11 645.66,492.02C645.66,490.93 644.78,490.05 643.69,490.05C642.6,490.05 641.72,490.93 641.72,492.02ZM716.64,495.96C716.64,497.05 717.52,497.93 718.61,497.93C717.52,497.93 716.64,498.81 716.64,499.9C716.64,500.99 717.52,501.87 718.61,501.87C719.7,501.87 720.58,500.99 720.58,499.9C720.58,498.81 719.7,497.93 718.61,497.93C719.7,497.93 720.58,497.05 720.58,495.96C720.58,494.87 719.7,493.99 718.61,493.99C717.52,493.99 716.64,494.87 716.64,495.96ZM712.7,495.96C712.7,497.05 713.58,497.93 714.67,497.93C715.76,497.93 716.64,497.05 716.64,495.96C716.64,494.87 715.76,493.99 714.67,493.99C713.58,493.99 712.7,494.87 712.7,495.96ZM704.81,495.96C704.81,497.05 705.69,497.93 706.78,497.93C705.69,497.93 704.81,498.81 704.81,499.9C704.81,500.99 705.69,501.87 706.78,501.87C705.69,501.87 704.81,502.75 704.81,503.84C704.81,504.93 705.69,505.81 706.78,505.81C705.69,505.81 704.81,506.69 704.81,507.78C704.81,508.87 705.69,509.75 706.78,509.75C707.87,509.75 708.75,508.87 708.75,507.78C708.75,506.69 707.87,505.81 706.78,505.81C707.87,505.81 708.75,504.93 708.75,503.84C708.75,502.75 707.87,501.87 706.78,501.87C707.87,501.87 708.75,500.99 708.75,499.9C708.75,498.81 707.87,497.93 706.78,497.93C707.87,497.93 708.75,497.05 708.75,495.96C708.75,494.87 707.87,493.99 706.78,493.99C705.69,493.99 704.81,494.87 704.81,495.96ZM689.04,495.96C689.04,497.05 689.92,497.93 691.01,497.93C689.92,497.93 689.04,498.81 689.04,499.9C689.04,500.99 689.92,501.87 691.01,501.87C689.92,501.87 689.04,502.75 689.04,503.84C689.04,504.93 689.92,505.81 691.01,505.81C692.1,505.81 692.98,504.93 692.98,503.84C692.98,502.75 692.1,501.87 691.01,501.87C692.1,501.87 692.98,500.99 692.98,499.9C692.98,498.81 692.1,497.93 691.01,497.93C692.1,497.93 692.98,497.05 692.98,495.96C692.98,494.87 692.1,493.99 691.01,493.99C689.92,493.99 689.04,494.87 689.04,495.96ZM665.38,495.96C665.38,497.05 666.26,497.93 667.35,497.93C668.44,497.93 669.32,497.05 669.32,495.96C669.32,494.87 668.44,493.99 667.35,493.99C666.26,493.99 665.38,494.87 665.38,495.96ZM661.43,495.96C661.43,497.05 662.31,497.93 663.4,497.93C664.49,497.93 665.37,497.05 665.37,495.96C665.37,494.87 664.49,493.99 663.4,493.99C662.31,493.99 661.43,494.87 661.43,495.96ZM637.77,495.96C637.77,497.05 638.65,497.93 639.74,497.93C640.83,497.93 641.71,497.05 641.71,495.96C641.71,494.87 640.83,493.99 639.74,493.99C638.65,493.99 637.77,494.87 637.77,495.96ZM724.53,499.9C724.53,500.99 725.41,501.87 726.5,501.87C727.59,501.87 728.47,500.99 728.47,499.9C728.47,498.81 727.59,497.93 726.5,497.93C725.41,497.93 724.53,498.81 724.53,499.9ZM708.76,499.9C708.76,500.99 709.64,501.87 710.73,501.87C711.82,501.87 712.7,500.99 712.7,499.9C712.7,498.81 711.82,497.93 710.73,497.93C709.64,497.93 708.76,498.81 708.76,499.9ZM669.32,499.9C669.32,500.99 670.2,501.87 671.29,501.87C672.38,501.87 673.26,500.99 673.26,499.9C673.26,498.81 672.38,497.93 671.29,497.93C670.2,497.93 669.32,498.81 669.32,499.9ZM657.49,499.9C657.49,500.99 658.37,501.87 659.46,501.87C660.55,501.87 661.43,500.99 661.43,499.9C661.43,498.81 660.55,497.93 659.46,497.93C658.37,497.93 657.49,498.81 657.49,499.9ZM653.55,499.9C653.55,500.99 654.43,501.87 655.52,501.87C654.43,501.87 653.55,502.75 653.55,503.84C653.55,504.93 654.43,505.81 655.52,505.81C654.43,505.81 653.55,506.69 653.55,507.78C653.55,508.87 654.43,509.75 655.52,509.75C656.61,509.75 657.49,508.87 657.49,507.78C657.49,506.69 656.61,505.81 655.52,505.81C656.61,505.81 657.49,504.93 657.49,503.84C657.49,502.75 656.61,501.87 655.52,501.87C656.61,501.87 657.49,500.99 657.49,499.9C657.49,498.81 656.61,497.93 655.52,497.93C654.43,497.93 653.55,498.81 653.55,499.9ZM649.6,499.9C649.6,500.99 650.48,501.87 651.57,501.87C650.48,501.87 649.6,502.75 649.6,503.84C649.6,504.93 650.48,505.81 651.57,505.81C650.48,505.81 649.6,506.69 649.6,507.78C649.6,508.87 650.48,509.75 651.57,509.75C652.66,509.75 653.54,508.87 653.54,507.78C653.54,506.69 652.66,505.81 651.57,505.81C652.66,505.81 653.54,504.93 653.54,503.84C653.54,502.75 652.66,501.87 651.57,501.87C652.66,501.87 653.54,500.99 653.54,499.9C653.54,498.81 652.66,497.93 651.57,497.93C650.48,497.93 649.6,498.81 649.6,499.9ZM645.66,499.9C645.66,500.99 646.54,501.87 647.63,501.87C648.72,501.87 649.6,500.99 649.6,499.9C649.6,498.81 648.72,497.93 647.63,497.93C646.54,497.93 645.66,498.81 645.66,499.9ZM728.47,503.85C728.47,504.94 729.35,505.82 730.44,505.82C731.53,505.82 732.41,504.94 732.41,503.85C732.41,502.76 731.53,501.88 730.44,501.88C729.35,501.88 728.47,502.76 728.47,503.85ZM696.93,503.85C696.93,504.94 697.81,505.82 698.9,505.82C699.99,505.82 700.87,504.94 700.87,503.85C700.87,502.76 699.99,501.88 698.9,501.88C697.81,501.88 696.93,502.76 696.93,503.85ZM692.98,503.85C692.98,504.94 693.86,505.82 694.95,505.82C696.04,505.82 696.92,504.94 696.92,503.85C696.92,502.76 696.04,501.88 694.95,501.88C693.86,501.88 692.98,502.76 692.98,503.85ZM685.1,503.85C685.1,504.94 685.98,505.82 687.07,505.82C688.16,505.82 689.04,504.94 689.04,503.85C689.04,502.76 688.16,501.88 687.07,501.88C685.98,501.88 685.1,502.76 685.1,503.85ZM681.15,503.85C681.15,504.94 682.03,505.82 683.12,505.82C682.03,505.82 681.15,506.7 681.15,507.79C681.15,508.88 682.03,509.76 683.12,509.76C682.03,509.76 681.15,510.64 681.15,511.73C681.15,512.82 682.03,513.7 683.12,513.7C684.21,513.7 685.09,512.82 685.09,511.73C685.09,510.64 684.21,509.76 683.12,509.76C684.21,509.76 685.09,508.88 685.09,507.79C685.09,506.7 684.21,505.82 683.12,505.82C684.21,505.82 685.09,504.94 685.09,503.85C685.09,502.76 684.21,501.88 683.12,501.88C682.03,501.88 681.15,502.76 681.15,503.85ZM665.38,503.85C665.38,504.94 666.26,505.82 667.35,505.82C666.26,505.82 665.38,506.7 665.38,507.79C665.38,508.88 666.26,509.76 667.35,509.76C668.44,509.76 669.32,508.88 669.32,507.79C669.32,506.7 668.44,505.82 667.35,505.82C668.44,505.82 669.32,504.94 669.32,503.85C669.32,502.76 668.44,501.88 667.35,501.88C666.26,501.88 665.38,502.76 665.38,503.85ZM637.77,503.85C637.77,504.94 638.65,505.82 639.74,505.82C640.83,505.82 641.71,504.94 641.71,503.85C641.71,502.76 640.83,501.88 639.74,501.88C638.65,501.88 637.77,502.76 637.77,503.85ZM633.83,503.85C633.83,504.94 634.71,505.82 635.8,505.82C634.71,505.82 633.83,506.7 633.83,507.79C633.83,508.88 634.71,509.76 635.8,509.76C636.89,509.76 637.77,508.88 637.77,507.79C637.77,506.7 636.89,505.82 635.8,505.82C636.89,505.82 637.77,504.94 637.77,503.85C637.77,502.76 636.89,501.88 635.8,501.88C634.71,501.88 633.83,502.76 633.83,503.85ZM720.59,507.79C720.59,508.88 721.47,509.76 722.56,509.76C721.47,509.76 720.59,510.64 720.59,511.73C720.59,512.82 721.47,513.7 722.56,513.7C721.47,513.7 720.59,514.58 720.59,515.67C720.59,516.76 721.47,517.64 722.56,517.64C721.47,517.64 720.59,518.52 720.59,519.61C720.59,520.7 721.47,521.58 722.56,521.58C723.65,521.58 724.53,520.7 724.53,519.61C724.53,518.52 723.65,517.64 722.56,517.64C723.65,517.64 724.53,516.76 724.53,515.67C724.53,514.58 723.65,513.7 722.56,513.7C723.65,513.7 724.53,512.82 724.53,511.73C724.53,510.64 723.65,509.76 722.56,509.76C723.65,509.76 724.53,508.88 724.53,507.79C724.53,506.7 723.65,505.82 722.56,505.82C721.47,505.82 720.59,506.7 720.59,507.79ZM716.64,507.79C716.64,508.88 717.52,509.76 718.61,509.76C717.52,509.76 716.64,510.64 716.64,511.73C716.64,512.82 717.52,513.7 718.61,513.7C717.52,513.7 716.64,514.58 716.64,515.67C716.64,516.76 717.52,517.64 718.61,517.64C717.52,517.64 716.64,518.52 716.64,519.61C716.64,520.7 717.52,521.58 718.61,521.58C717.52,521.58 716.64,522.46 716.64,523.55C716.64,524.64 717.52,525.52 718.61,525.52C719.7,525.52 720.58,524.64 720.58,523.55C720.58,522.46 719.7,521.58 718.61,521.58C719.7,521.58 720.58,520.7 720.58,519.61C720.58,518.52 719.7,517.64 718.61,517.64C719.7,517.64 720.58,516.76 720.58,515.67C720.58,514.58 719.7,513.7 718.61,513.7C719.7,513.7 720.58,512.82 720.58,511.73C720.58,510.64 719.7,509.76 718.61,509.76C719.7,509.76 720.58,508.88 720.58,507.79C720.58,506.7 719.7,505.82 718.61,505.82C717.52,505.82 716.64,506.7 716.64,507.79ZM700.87,507.79C700.87,508.88 701.75,509.76 702.84,509.76C703.93,509.76 704.81,508.88 704.81,507.79C704.81,506.7 703.93,505.82 702.84,505.82C701.75,505.82 700.87,506.7 700.87,507.79ZM677.21,507.79C677.21,508.88 678.09,509.76 679.18,509.76C680.27,509.76 681.15,508.88 681.15,507.79C681.15,506.7 680.27,505.82 679.18,505.82C678.09,505.82 677.21,506.7 677.21,507.79ZM673.27,507.79C673.27,508.88 674.15,509.76 675.24,509.76C674.15,509.76 673.27,510.64 673.27,511.73C673.27,512.82 674.15,513.7 675.24,513.7C676.33,513.7 677.21,512.82 677.21,511.73C677.21,510.64 676.33,509.76 675.24,509.76C676.33,509.76 677.21,508.88 677.21,507.79C677.21,506.7 676.33,505.82 675.24,505.82C674.15,505.82 673.27,506.7 673.27,507.79ZM669.32,507.79C669.32,508.88 670.2,509.76 671.29,509.76C670.2,509.76 669.32,510.64 669.32,511.73C669.32,512.82 670.2,513.7 671.29,513.7C670.2,513.7 669.32,514.58 669.32,515.67C669.32,516.76 670.2,517.64 671.29,517.64C670.2,517.64 669.32,518.52 669.32,519.61C669.32,520.7 670.2,521.58 671.29,521.58C672.38,521.58 673.26,520.7 673.26,519.61C673.26,518.52 672.38,517.64 671.29,517.64C672.38,517.64 673.26,516.76 673.26,515.67C673.26,514.58 672.38,513.7 671.29,513.7C672.38,513.7 673.26,512.82 673.26,511.73C673.26,510.64 672.38,509.76 671.29,509.76C672.38,509.76 673.26,508.88 673.26,507.79C673.26,506.7 672.38,505.82 671.29,505.82C670.2,505.82 669.32,506.7 669.32,507.79ZM661.43,507.79C661.43,508.88 662.31,509.76 663.4,509.76C662.31,509.76 661.43,510.64 661.43,511.73C661.43,512.82 662.31,513.7 663.4,513.7C662.31,513.7 661.43,514.58 661.43,515.67C661.43,516.76 662.31,517.64 663.4,517.64C664.49,517.64 665.37,516.76 665.37,515.67C665.37,514.58 664.49,513.7 663.4,513.7C664.49,513.7 665.37,512.82 665.37,511.73C665.37,510.64 664.49,509.76 663.4,509.76C664.49,509.76 665.37,508.88 665.37,507.79C665.37,506.7 664.49,505.82 663.4,505.82C662.31,505.82 661.43,506.7 661.43,507.79ZM657.49,507.79C657.49,508.88 658.37,509.76 659.46,509.76C660.55,509.76 661.43,508.88 661.43,507.79C661.43,506.7 660.55,505.82 659.46,505.82C658.37,505.82 657.49,506.7 657.49,507.79ZM645.66,507.79C645.66,508.88 646.54,509.76 647.63,509.76C646.54,509.76 645.66,510.64 645.66,511.73C645.66,512.82 646.54,513.7 647.63,513.7C646.54,513.7 645.66,514.58 645.66,515.67C645.66,516.76 646.54,517.64 647.63,517.64C648.72,517.64 649.6,516.76 649.6,515.67C649.6,514.58 648.72,513.7 647.63,513.7C648.72,513.7 649.6,512.82 649.6,511.73C649.6,510.64 648.72,509.76 647.63,509.76C648.72,509.76 649.6,508.88 649.6,507.79C649.6,506.7 648.72,505.82 647.63,505.82C646.54,505.82 645.66,506.7 645.66,507.79ZM712.7,511.74C712.7,512.83 713.58,513.71 714.67,513.71C713.58,513.71 712.7,514.59 712.7,515.68C712.7,516.77 713.58,517.65 714.67,517.65C713.58,517.65 712.7,518.53 712.7,519.62C712.7,520.71 713.58,521.59 714.67,521.59C713.58,521.59 712.7,522.47 712.7,523.56C712.7,524.65 713.58,525.53 714.67,525.53C713.58,525.53 712.7,526.41 712.7,527.5C712.7,528.59 713.58,529.47 714.67,529.47C713.58,529.47 712.7,530.35 712.7,531.44C712.7,532.53 713.58,533.41 714.67,533.41C715.76,533.41 716.64,532.53 716.64,531.44C716.64,530.35 715.76,529.47 714.67,529.47C715.76,529.47 716.64,528.59 716.64,527.5C716.64,526.41 715.76,525.53 714.67,525.53C715.76,525.53 716.64,524.65 716.64,523.56C716.64,522.47 715.76,521.59 714.67,521.59C715.76,521.59 716.64,520.71 716.64,519.62C716.64,518.53 715.76,517.65 714.67,517.65C715.76,517.65 716.64,516.77 716.64,515.68C716.64,514.59 715.76,513.71 714.67,513.71C715.76,513.71 716.64,512.83 716.64,511.74C716.64,510.65 715.76,509.77 714.67,509.77C713.58,509.77 712.7,510.65 712.7,511.74ZM708.76,511.74C708.76,512.83 709.64,513.71 710.73,513.71C709.64,513.71 708.76,514.59 708.76,515.68C708.76,516.77 709.64,517.65 710.73,517.65C711.82,517.65 712.7,516.77 712.7,515.68C712.7,514.59 711.82,513.71 710.73,513.71C711.82,513.71 712.7,512.83 712.7,511.74C712.7,510.65 711.82,509.77 710.73,509.77C709.64,509.77 708.76,510.65 708.76,511.74ZM692.98,511.74C692.98,512.83 693.86,513.71 694.95,513.71C696.04,513.71 696.92,512.83 696.92,511.74C696.92,510.65 696.04,509.77 694.95,509.77C693.86,509.77 692.98,510.65 692.98,511.74ZM689.04,511.74C689.04,512.83 689.92,513.71 691.01,513.71C692.1,513.71 692.98,512.83 692.98,511.74C692.98,510.65 692.1,509.77 691.01,509.77C689.92,509.77 689.04,510.65 689.04,511.74ZM685.1,511.74C685.1,512.83 685.98,513.71 687.07,513.71C685.98,513.71 685.1,514.59 685.1,515.68C685.1,516.77 685.98,517.65 687.07,517.65C685.98,517.65 685.1,518.53 685.1,519.62C685.1,520.71 685.98,521.59 687.07,521.59C688.16,521.59 689.04,520.71 689.04,519.62C689.04,518.53 688.16,517.65 687.07,517.65C688.16,517.65 689.04,516.77 689.04,515.68C689.04,514.59 688.16,513.71 687.07,513.71C688.16,513.71 689.04,512.83 689.04,511.74C689.04,510.65 688.16,509.77 687.07,509.77C685.98,509.77 685.1,510.65 685.1,511.74ZM728.47,515.68C728.47,516.77 729.35,517.65 730.44,517.65C729.35,517.65 728.47,518.53 728.47,519.62C728.47,520.71 729.35,521.59 730.44,521.59C729.35,521.59 728.47,522.47 728.47,523.56C728.47,524.65 729.35,525.53 730.44,525.53C731.53,525.53 732.41,524.65 732.41,523.56C732.41,522.47 731.53,521.59 730.44,521.59C731.53,521.59 732.41,520.71 732.41,519.62C732.41,518.53 731.53,517.65 730.44,517.65C731.53,517.65 732.41,516.77 732.41,515.68C732.41,514.59 731.53,513.71 730.44,513.71C729.35,513.71 728.47,514.59 728.47,515.68ZM704.81,515.68C704.81,516.77 705.69,517.65 706.78,517.65C707.87,517.65 708.75,516.77 708.75,515.68C708.75,514.59 707.87,513.71 706.78,513.71C705.69,513.71 704.81,514.59 704.81,515.68ZM700.87,515.68C700.87,516.77 701.75,517.65 702.84,517.65C703.93,517.65 704.81,516.77 704.81,515.68C704.81,514.59 703.93,513.71 702.84,513.71C701.75,513.71 700.87,514.59 700.87,515.68ZM696.93,515.68C696.93,516.77 697.81,517.65 698.9,517.65C697.81,517.65 696.93,518.53 696.93,519.62C696.93,520.71 697.81,521.59 698.9,521.59C697.81,521.59 696.93,522.47 696.93,523.56C696.93,524.65 697.81,525.53 698.9,525.53C697.81,525.53 696.93,526.41 696.93,527.5C696.93,528.59 697.81,529.47 698.9,529.47C697.81,529.47 696.93,530.35 696.93,531.44C696.93,532.53 697.81,533.41 698.9,533.41C699.99,533.41 700.87,532.53 700.87,531.44C700.87,530.35 699.99,529.47 698.9,529.47C699.99,529.47 700.87,528.59 700.87,527.5C700.87,526.41 699.99,525.53 698.9,525.53C699.99,525.53 700.87,524.65 700.87,523.56C700.87,522.47 699.99,521.59 698.9,521.59C699.99,521.59 700.87,520.71 700.87,519.62C700.87,518.53 699.99,517.65 698.9,517.65C699.99,517.65 700.87,516.77 700.87,515.68C700.87,514.59 699.99,513.71 698.9,513.71C697.81,513.71 696.93,514.59 696.93,515.68ZM677.21,515.68C677.21,516.77 678.09,517.65 679.18,517.65C678.09,517.65 677.21,518.53 677.21,519.62C677.21,520.71 678.09,521.59 679.18,521.59C678.09,521.59 677.21,522.47 677.21,523.56C677.21,524.65 678.09,525.53 679.18,525.53C680.27,525.53 681.15,524.65 681.15,523.56C681.15,522.47 680.27,521.59 679.18,521.59C680.27,521.59 681.15,520.71 681.15,519.62C681.15,518.53 680.27,517.65 679.18,517.65C680.27,517.65 681.15,516.77 681.15,515.68C681.15,514.59 680.27,513.71 679.18,513.71C678.09,513.71 677.21,514.59 677.21,515.68ZM665.38,515.68C665.38,516.77 666.26,517.65 667.35,517.65C666.26,517.65 665.38,518.53 665.38,519.62C665.38,520.71 666.26,521.59 667.35,521.59C666.26,521.59 665.38,522.47 665.38,523.56C665.38,524.65 666.26,525.53 667.35,525.53C668.44,525.53 669.32,524.65 669.32,523.56C669.32,522.47 668.44,521.59 667.35,521.59C668.44,521.59 669.32,520.71 669.32,519.62C669.32,518.53 668.44,517.65 667.35,517.65C668.44,517.65 669.32,516.77 669.32,515.68C669.32,514.59 668.44,513.71 667.35,513.71C666.26,513.71 665.38,514.59 665.38,515.68ZM657.49,515.68C657.49,516.77 658.37,517.65 659.46,517.65C660.55,517.65 661.43,516.77 661.43,515.68C661.43,514.59 660.55,513.71 659.46,513.71C658.37,513.71 657.49,514.59 657.49,515.68ZM653.55,515.68C653.55,516.77 654.43,517.65 655.52,517.65C656.61,517.65 657.49,516.77 657.49,515.68C657.49,514.59 656.61,513.71 655.52,513.71C654.43,513.71 653.55,514.59 653.55,515.68ZM649.6,515.68C649.6,516.77 650.48,517.65 651.57,517.65C652.66,517.65 653.54,516.77 653.54,515.68C653.54,514.59 652.66,513.71 651.57,513.71C650.48,513.71 649.6,514.59 649.6,515.68ZM637.77,515.68C637.77,516.77 638.65,517.65 639.74,517.65C640.83,517.65 641.71,516.77 641.71,515.68C641.71,514.59 640.83,513.71 639.74,513.71C638.65,513.71 637.77,514.59 637.77,515.68ZM692.98,519.62C692.98,520.71 693.86,521.59 694.95,521.59C693.86,521.59 692.98,522.47 692.98,523.56C692.98,524.65 693.86,525.53 694.95,525.53C693.86,525.53 692.98,526.41 692.98,527.5C692.98,528.59 693.86,529.47 694.95,529.47C696.04,529.47 696.92,528.59 696.92,527.5C696.92,526.41 696.04,525.53 694.95,525.53C696.04,525.53 696.92,524.65 696.92,523.56C696.92,522.47 696.04,521.59 694.95,521.59C696.04,521.59 696.92,520.71 696.92,519.62C696.92,518.53 696.04,517.65 694.95,517.65C693.86,517.65 692.98,518.53 692.98,519.62ZM689.04,519.62C689.04,520.71 689.92,521.59 691.01,521.59C689.92,521.59 689.04,522.47 689.04,523.56C689.04,524.65 689.92,525.53 691.01,525.53C692.1,525.53 692.98,524.65 692.98,523.56C692.98,522.47 692.1,521.59 691.01,521.59C692.1,521.59 692.98,520.71 692.98,519.62C692.98,518.53 692.1,517.65 691.01,517.65C689.92,517.65 689.04,518.53 689.04,519.62ZM724.53,523.57C724.53,524.66 725.41,525.54 726.5,525.54C725.41,525.54 724.53,526.42 724.53,527.51C724.53,528.6 725.41,529.48 726.5,529.48C725.41,529.48 724.53,530.36 724.53,531.45C724.53,532.54 725.41,533.42 726.5,533.42C727.59,533.42 728.47,532.54 728.47,531.45C728.47,530.36 727.59,529.48 726.5,529.48C727.59,529.48 728.47,528.6 728.47,527.51C728.47,526.42 727.59,525.54 726.5,525.54C727.59,525.54 728.47,524.66 728.47,523.57C728.47,522.48 727.59,521.6 726.5,521.6C725.41,521.6 724.53,522.48 724.53,523.57ZM704.81,523.57C704.81,524.66 705.69,525.54 706.78,525.54C707.87,525.54 708.75,524.66 708.75,523.57C708.75,522.48 707.87,521.6 706.78,521.6C705.69,521.6 704.81,522.48 704.81,523.57ZM681.15,523.57C681.15,524.66 682.03,525.54 683.12,525.54C684.21,525.54 685.09,524.66 685.09,523.57C685.09,522.48 684.21,521.6 683.12,521.6C682.03,521.6 681.15,522.48 681.15,523.57ZM673.27,523.57C673.27,524.66 674.15,525.54 675.24,525.54C674.15,525.54 673.27,526.42 673.27,527.51C673.27,528.6 674.15,529.48 675.24,529.48C676.33,529.48 677.21,528.6 677.21,527.51C677.21,526.42 676.33,525.54 675.24,525.54C676.33,525.54 677.21,524.66 677.21,523.57C677.21,522.48 676.33,521.6 675.24,521.6C674.15,521.6 673.27,522.48 673.27,523.57ZM669.32,527.51C669.32,528.6 670.2,529.48 671.29,529.48C670.2,529.48 669.32,530.36 669.32,531.45C669.32,532.54 670.2,533.42 671.29,533.42C670.2,533.42 669.32,534.3 669.32,535.39C669.32,536.48 670.2,537.36 671.29,537.36C670.2,537.36 669.32,538.24 669.32,539.33C669.32,540.42 670.2,541.3 671.29,541.3C670.2,541.3 669.32,542.18 669.32,543.27C669.32,544.36 670.2,545.24 671.29,545.24C672.38,545.24 673.26,544.36 673.26,543.27C673.26,542.18 672.38,541.3 671.29,541.3C672.38,541.3 673.26,540.42 673.26,539.33C673.26,538.24 672.38,537.36 671.29,537.36C672.38,537.36 673.26,536.48 673.26,535.39C673.26,534.3 672.38,533.42 671.29,533.42C672.38,533.42 673.26,532.54 673.26,531.45C673.26,530.36 672.38,529.48 671.29,529.48C672.38,529.48 673.26,528.6 673.26,527.51C673.26,526.42 672.38,525.54 671.29,525.54C670.2,525.54 669.32,526.42 669.32,527.51ZM720.59,531.45C720.59,532.54 721.47,533.42 722.56,533.42C721.47,533.42 720.59,534.3 720.59,535.39C720.59,536.48 721.47,537.36 722.56,537.36C721.47,537.36 720.59,538.24 720.59,539.33C720.59,540.42 721.47,541.3 722.56,541.3C721.47,541.3 720.59,542.18 720.59,543.27C720.59,544.36 721.47,545.24 722.56,545.24C721.47,545.24 720.59,546.12 720.59,547.21C720.59,548.3 721.47,549.18 722.56,549.18C723.65,549.18 724.53,548.3 724.53,547.21C724.53,546.12 723.65,545.24 722.56,545.24C723.65,545.24 724.53,544.36 724.53,543.27C724.53,542.18 723.65,541.3 722.56,541.3C723.65,541.3 724.53,540.42 724.53,539.33C724.53,538.24 723.65,537.36 722.56,537.36C723.65,537.36 724.53,536.48 724.53,535.39C724.53,534.3 723.65,533.42 722.56,533.42C723.65,533.42 724.53,532.54 724.53,531.45C724.53,530.36 723.65,529.48 722.56,529.48C721.47,529.48 720.59,530.36 720.59,531.45ZM708.76,531.45C708.76,532.54 709.64,533.42 710.73,533.42C711.82,533.42 712.7,532.54 712.7,531.45C712.7,530.36 711.82,529.48 710.73,529.48C709.64,529.48 708.76,530.36 708.76,531.45ZM704.81,531.45C704.81,532.54 705.69,533.42 706.78,533.42C707.87,533.42 708.75,532.54 708.75,531.45C708.75,530.36 707.87,529.48 706.78,529.48C705.69,529.48 704.81,530.36 704.81,531.45ZM700.87,531.45C700.87,532.54 701.75,533.42 702.84,533.42C703.93,533.42 704.81,532.54 704.81,531.45C704.81,530.36 703.93,529.48 702.84,529.48C701.75,529.48 700.87,530.36 700.87,531.45ZM689.04,531.45C689.04,532.54 689.92,533.42 691.01,533.42C689.92,533.42 689.04,534.3 689.04,535.39C689.04,536.48 689.92,537.36 691.01,537.36C689.92,537.36 689.04,538.24 689.04,539.33C689.04,540.42 689.92,541.3 691.01,541.3C689.92,541.3 689.04,542.18 689.04,543.27C689.04,544.36 689.92,545.24 691.01,545.24C689.92,545.24 689.04,546.12 689.04,547.21C689.04,548.3 689.92,549.18 691.01,549.18C692.1,549.18 692.98,548.3 692.98,547.21C692.98,546.12 692.1,545.24 691.01,545.24C692.1,545.24 692.98,544.36 692.98,543.27C692.98,542.18 692.1,541.3 691.01,541.3C692.1,541.3 692.98,540.42 692.98,539.33C692.98,538.24 692.1,537.36 691.01,537.36C692.1,537.36 692.98,536.48 692.98,535.39C692.98,534.3 692.1,533.42 691.01,533.42C692.1,533.42 692.98,532.54 692.98,531.45C692.98,530.36 692.1,529.48 691.01,529.48C689.92,529.48 689.04,530.36 689.04,531.45ZM685.1,531.45C685.1,532.54 685.98,533.42 687.07,533.42C688.16,533.42 689.04,532.54 689.04,531.45C689.04,530.36 688.16,529.48 687.07,529.48C685.98,529.48 685.1,530.36 685.1,531.45ZM665.38,531.45C665.38,532.54 666.26,533.42 667.35,533.42C666.26,533.42 665.38,534.3 665.38,535.39C665.38,536.48 666.26,537.36 667.35,537.36C668.44,537.36 669.32,536.48 669.32,535.39C669.32,534.3 668.44,533.42 667.35,533.42C668.44,533.42 669.32,532.54 669.32,531.45C669.32,530.36 668.44,529.48 667.35,529.48C666.26,529.48 665.38,530.36 665.38,531.45ZM728.47,535.4C728.47,536.49 729.35,537.37 730.44,537.37C731.53,537.37 732.41,536.49 732.41,535.4C732.41,534.31 731.53,533.43 730.44,533.43C729.35,533.43 728.47,534.31 728.47,535.4ZM692.98,535.4C692.98,536.49 693.86,537.37 694.95,537.37C693.86,537.37 692.98,538.25 692.98,539.34C692.98,540.43 693.86,541.31 694.95,541.31C696.04,541.31 696.92,540.43 696.92,539.34C696.92,538.25 696.04,537.37 694.95,537.37C696.04,537.37 696.92,536.49 696.92,535.4C696.92,534.31 696.04,533.43 694.95,533.43C693.86,533.43 692.98,534.31 692.98,535.4ZM677.21,535.4C677.21,536.49 678.09,537.37 679.18,537.37C678.09,537.37 677.21,538.25 677.21,539.34C677.21,540.43 678.09,541.31 679.18,541.31C678.09,541.31 677.21,542.19 677.21,543.28C677.21,544.37 678.09,545.25 679.18,545.25C678.09,545.25 677.21,546.13 677.21,547.22C677.21,548.31 678.09,549.19 679.18,549.19C680.27,549.19 681.15,548.31 681.15,547.22C681.15,546.13 680.27,545.25 679.18,545.25C680.27,545.25 681.15,544.37 681.15,543.28C681.15,542.19 680.27,541.31 679.18,541.31C680.27,541.31 681.15,540.43 681.15,539.34C681.15,538.25 680.27,537.37 679.18,537.37C680.27,537.37 681.15,536.49 681.15,535.4C681.15,534.31 680.27,533.43 679.18,533.43C678.09,533.43 677.21,534.31 677.21,535.4ZM673.27,535.4C673.27,536.49 674.15,537.37 675.24,537.37C676.33,537.37 677.21,536.49 677.21,535.4C677.21,534.31 676.33,533.43 675.24,533.43C674.15,533.43 673.27,534.31 673.27,535.4ZM724.53,539.34C724.53,540.43 725.41,541.31 726.5,541.31C725.41,541.31 724.53,542.19 724.53,543.28C724.53,544.37 725.41,545.25 726.5,545.25C725.41,545.25 724.53,546.13 724.53,547.22C724.53,548.31 725.41,549.19 726.5,549.19C727.59,549.19 728.47,548.31 728.47,547.22C728.47,546.13 727.59,545.25 726.5,545.25C727.59,545.25 728.47,544.37 728.47,543.28C728.47,542.19 727.59,541.31 726.5,541.31C727.59,541.31 728.47,540.43 728.47,539.34C728.47,538.25 727.59,537.37 726.5,537.37C725.41,537.37 724.53,538.25 724.53,539.34ZM700.87,539.34C700.87,540.43 701.75,541.31 702.84,541.31C701.75,541.31 700.87,542.19 700.87,543.28C700.87,544.37 701.75,545.25 702.84,545.25C703.93,545.25 704.81,544.37 704.81,543.28C704.81,542.19 703.93,541.31 702.84,541.31C703.93,541.31 704.81,540.43 704.81,539.34C704.81,538.25 703.93,537.37 702.84,537.37C701.75,537.37 700.87,538.25 700.87,539.34ZM696.93,539.34C696.93,540.43 697.81,541.31 698.9,541.31C697.81,541.31 696.93,542.19 696.93,543.28C696.93,544.37 697.81,545.25 698.9,545.25C699.99,545.25 700.87,544.37 700.87,543.28C700.87,542.19 699.99,541.31 698.9,541.31C699.99,541.31 700.87,540.43 700.87,539.34C700.87,538.25 699.99,537.37 698.9,537.37C697.81,537.37 696.93,538.25 696.93,539.34ZM716.64,543.28C716.64,544.37 717.52,545.25 718.61,545.25C717.52,545.25 716.64,546.13 716.64,547.22C716.64,548.31 717.52,549.19 718.61,549.19C719.7,549.19 720.58,548.31 720.58,547.22C720.58,546.13 719.7,545.25 718.61,545.25C719.7,545.25 720.58,544.37 720.58,543.28C720.58,542.19 719.7,541.31 718.61,541.31C717.52,541.31 716.64,542.19 716.64,543.28ZM685.1,543.28C685.1,544.37 685.98,545.25 687.07,545.25C688.16,545.25 689.04,544.37 689.04,543.28C689.04,542.19 688.16,541.31 687.07,541.31C685.98,541.31 685.1,542.19 685.1,543.28ZM665.38,543.28C665.38,544.37 666.26,545.25 667.35,545.25C668.44,545.25 669.32,544.37 669.32,543.28C669.32,542.19 668.44,541.31 667.35,541.31C666.26,541.31 665.38,542.19 665.38,543.28ZM728.47,547.23C728.47,548.32 729.35,549.2 730.44,549.2C731.53,549.2 732.41,548.32 732.41,547.23C732.41,546.14 731.53,545.26 730.44,545.26C729.35,545.26 728.47,546.14 728.47,547.23ZM712.7,547.23C712.7,548.32 713.58,549.2 714.67,549.2C715.76,549.2 716.64,548.32 716.64,547.23C716.64,546.14 715.76,545.26 714.67,545.26C713.58,545.26 712.7,546.14 712.7,547.23ZM704.81,547.23C704.81,548.32 705.69,549.2 706.78,549.2C707.87,549.2 708.75,548.32 708.75,547.23C708.75,546.14 707.87,545.26 706.78,545.26C705.69,545.26 704.81,546.14 704.81,547.23ZM692.98,547.23C692.98,548.32 693.86,549.2 694.95,549.2C696.04,549.2 696.92,548.32 696.92,547.23C696.92,546.14 696.04,545.26 694.95,545.26C693.86,545.26 692.98,546.14 692.98,547.23ZM681.15,547.23C681.15,548.32 682.03,549.2 683.12,549.2C684.21,549.2 685.09,548.32 685.09,547.23C685.09,546.14 684.21,545.26 683.12,545.26C682.03,545.26 681.15,546.14 681.15,547.23ZM673.27,547.23C673.27,548.32 674.15,549.2 675.24,549.2C676.33,549.2 677.21,548.32 677.21,547.23C677.21,546.14 676.33,545.26 675.24,545.26C674.15,545.26 673.27,546.14 673.27,547.23Z"/>
                        </clipPath>
                        <g clip-path="url(#_clip1)">
                            <rect x="631.34" y="448.12" width="103.78" height="103.78" style="fill:white;"/>
                        </g>
                    </g>
                    <g>
                        <clipPath id="_clip2">
                            <path d="M647.63,450.61C640.01,450.61 633.83,456.8 633.84,464.42C633.84,472.04 640.03,478.22 647.65,478.21C655.27,478.21 661.45,472.02 661.44,464.4C661.44,456.79 655.26,450.61 647.65,450.61L647.63,450.61ZM647.63,454.56C653.07,454.56 657.48,458.98 657.48,464.43C657.48,469.87 653.06,474.28 647.61,474.28C642.17,474.28 637.76,469.86 637.76,464.41C637.76,458.97 642.17,454.57 647.61,454.56L647.63,454.56Z"/>
                        </clipPath>
                        <g clip-path="url(#_clip2)">
                            <rect x="633.83" y="450.61" width="27.6" height="27.6"/>
                        </g>
                    </g>
                    <g>
                        <clipPath id="_clip3">
                            <circle cx="647.63" cy="464.41" r="5.92"/>
                        </clipPath>
                        <g clip-path="url(#_clip3)">
                            <rect x="641.72" y="458.5" width="11.83" height="11.83"/>
                        </g>
                    </g>
                    <g>
                        <clipPath id="_clip4">
                            <path d="M732.42,464.41C732.42,456.79 726.23,450.61 718.61,450.62C710.99,450.62 704.81,456.81 704.82,464.43C704.82,472.05 711.01,478.23 718.63,478.22C726.24,478.22 732.42,472.04 732.42,464.43L732.42,464.41ZM728.47,464.41C728.47,469.85 724.05,474.26 718.6,474.26C713.16,474.26 708.75,469.84 708.75,464.39C708.75,458.95 713.17,454.54 718.62,454.54C724.06,454.54 728.46,458.95 728.47,464.39L728.47,464.41Z"/>
                        </clipPath>
                        <g clip-path="url(#_clip4)">
                            <rect x="704.81" y="450.61" width="27.6" height="27.6"/>
                        </g>
                    </g>
                    <g>
                        <clipPath id="_clip5">
                            <circle cx="718.62" cy="464.41" r="5.92"/>
                        </clipPath>
                        <g clip-path="url(#_clip5)">
                            <rect x="712.7" y="458.5" width="11.83" height="11.83"/>
                        </g>
                    </g>
                    <g>
                        <clipPath id="_clip6">
                            <path d="M633.83,535.4C633.83,543.02 640.02,549.2 647.64,549.19C655.26,549.19 661.44,543 661.43,535.38C661.43,527.76 655.24,521.58 647.62,521.59C640.01,521.59 633.83,527.77 633.83,535.38L633.83,535.4ZM637.77,535.4C637.77,529.96 642.19,525.55 647.64,525.55C653.08,525.55 657.49,529.97 657.49,535.42C657.49,540.86 653.07,545.27 647.62,545.27C642.18,545.27 637.78,540.86 637.77,535.42L637.77,535.4Z"/>
                        </clipPath>
                        <g clip-path="url(#_clip6)">
                            <rect x="633.83" y="521.59" width="27.6" height="27.6"/>
                        </g>
                    </g>
                    <g>
                        <clipPath id="_clip7">
                            <circle cx="647.63" cy="535.4" r="5.92"/>
                        </clipPath>
                        <g clip-path="url(#_clip7)">
                            <rect x="641.72" y="529.48" width="11.83" height="11.83"/>
                        </g>
                    </g>
                </g>
            </g>
        </g>
    </g>
</svg>
