<?xml version="1.0" encoding="UTF-8" standalone="no"?><!DOCTYPE svg PUBLIC "-//W3C//DTD SVG 1.1//EN" "http://www.w3.org/Graphics/SVG/1.1/DTD/svg11.dtd"><svg width="100%" height="100%" viewBox="0 0 4167 4167" version="1.1" xmlns="http://www.w3.org/2000/svg" xmlns:xlink="http://www.w3.org/1999/xlink" xml:space="preserve" xmlns:serif="http://www.serif.com/" style="fill-rule:evenodd;clip-rule:evenodd;stroke-linejoin:round;stroke-miterlimit:2;"><g><g><clipPath id="_clip1"><path d="M2645.302,137.772c0,44.711 36.097,80.809 80.809,80.809c44.711,0 80.809,-36.097 80.809,-80.809c0,-44.711 -36.097,-80.809 -80.809,-80.809c-44.711,0 -80.809,36.097 -80.809,80.809Zm-162.028,0c0,44.711 36.097,80.809 80.809,80.809c44.711,0 80.809,-36.097 80.809,-80.809c0,-44.711 -36.097,-80.809 -80.809,-80.809c-44.711,0 -80.809,36.097 -80.809,80.809Zm-161.617,0c0,44.711 36.097,80.809 80.809,80.809c-44.711,0 -80.809,36.097 -80.809,80.809c0,44.711 36.097,80.809 80.809,80.809c44.711,0 80.809,-36.097 80.809,-80.809c0,-44.711 -36.097,-80.809 -80.809,-80.809c44.711,0 80.809,-36.097 80.809,-80.809c0,-44.711 -36.097,-80.809 -80.809,-80.809c-44.711,0 -80.809,36.097 -80.809,80.809Zm-161.617,0c0,44.711 36.097,80.809 80.809,80.809c44.711,0 80.809,-36.097 80.809,-80.809c0,-44.711 -36.097,-80.809 -80.809,-80.809c-44.711,0 -80.809,36.097 -80.809,80.809Zm-323.645,0c0,44.711 36.097,80.809 80.809,80.809c44.711,0 80.809,-36.097 80.809,-80.809c0,-44.711 -36.097,-80.809 -80.809,-80.809c-44.711,0 -80.809,36.097 -80.809,80.809Zm-323.645,0c0,44.711 36.097,80.809 80.809,80.809c-44.711,0 -80.809,36.097 -80.809,80.809c0,44.711 36.097,80.809 80.809,80.809c44.711,0 80.809,-36.097 80.809,-80.809c0,-44.711 -36.097,-80.809 -80.809,-80.809c44.711,0 80.809,-36.097 80.809,-80.809c0,-44.711 -36.097,-80.809 -80.809,-80.809c-44.711,0 -80.809,36.097 -80.809,80.809Zm485.262,162.028c0,44.711 36.097,80.809 80.809,80.809c-44.711,0 -80.809,36.097 -80.809,80.809c0,44.711 36.097,80.809 80.809,80.809c44.711,0 80.809,-36.097 80.809,-80.809c0,-44.711 -36.097,-80.809 -80.809,-80.809c44.711,0 80.809,-36.097 80.809,-80.809c0,-44.711 -36.097,-80.809 -80.809,-80.809c-44.711,0 -80.809,36.097 -80.809,80.809Zm-646.88,0c0,44.711 36.097,80.809 80.809,80.809c44.711,0 80.809,-36.097 80.809,-80.809c0,-44.711 -36.097,-80.809 -80.809,-80.809c-44.711,0 -80.809,36.097 -80.809,80.809Zm1132.142,161.617c0,44.711 36.097,80.809 80.809,80.809c44.711,0 80.809,-36.097 80.809,-80.809c0,-44.711 -36.097,-80.809 -80.809,-80.809c-44.711,0 -80.809,36.097 -80.809,80.809Zm-323.235,0c0,44.711 36.097,80.809 80.809,80.809c-44.711,0 -80.809,36.097 -80.809,80.809c0,44.711 36.097,80.809 80.809,80.809c-44.711,0 -80.809,36.097 -80.809,80.809c0,44.711 36.097,80.809 80.809,80.809c-44.711,0 -80.809,36.097 -80.809,80.809c0,44.711 36.097,80.809 80.809,80.809c44.711,0 80.809,-36.097 80.809,-80.809c0,-44.711 -36.097,-80.809 -80.809,-80.809c44.711,0 80.809,-36.097 80.809,-80.809c0,-44.711 -36.097,-80.809 -80.809,-80.809c44.711,0 80.809,-36.097 80.809,-80.809c0,-44.711 -36.097,-80.809 -80.809,-80.809c44.711,0 80.809,-36.097 80.809,-80.809c0,-44.711 -36.097,-80.809 -80.809,-80.809c-44.711,0 -80.809,36.097 -80.809,80.809Zm-323.645,0c0,44.711 36.097,80.809 80.809,80.809c44.711,0 80.809,-36.097 80.809,-80.809c0,-44.711 -36.097,-80.809 -80.809,-80.809c-44.711,0 -80.809,36.097 -80.809,80.809Zm485.262,161.617c0,44.711 36.097,80.809 80.809,80.809c44.711,0 80.809,-36.097 80.809,-80.809c0,-44.711 -36.097,-80.809 -80.809,-80.809c-44.711,0 -80.809,36.097 -80.809,80.809Zm-646.88,0c0,44.711 36.097,80.809 80.809,80.809c-44.711,0 -80.809,36.097 -80.809,80.809c0,44.711 36.097,80.809 80.809,80.809c44.711,0 80.809,-36.097 80.809,-80.809c0,-44.711 -36.097,-80.809 -80.809,-80.809c44.711,0 80.809,-36.097 80.809,-80.809c0,-44.711 -36.097,-80.809 -80.809,-80.809c-44.711,0 -80.809,36.097 -80.809,80.809Zm-162.028,0c0,44.711 36.097,80.809 80.809,80.809c-44.711,0 -80.809,36.097 -80.809,80.809c0,44.711 36.097,80.809 80.809,80.809c-44.711,0 -80.809,36.097 -80.809,80.809c0,44.711 36.097,80.809 80.809,80.809c44.711,0 80.809,-36.097 80.809,-80.809c0,-44.711 -36.097,-80.809 -80.809,-80.809c44.711,0 80.809,-36.097 80.809,-80.809c0,-44.711 -36.097,-80.809 -80.809,-80.809c44.711,0 80.809,-36.097 80.809,-80.809c0,-44.711 -36.097,-80.809 -80.809,-80.809c-44.711,0 -80.809,36.097 -80.809,80.809Zm-161.617,0c0,44.711 36.097,80.809 80.809,80.809c-44.711,0 -80.809,36.097 -80.809,80.809c0,44.711 36.097,80.809 80.809,80.809c-44.711,0 -80.809,36.097 -80.809,80.809c0,44.711 36.097,80.809 80.809,80.809c-44.711,0 -80.809,36.097 -80.809,80.809c0,44.711 36.097,80.809 80.809,80.809c44.711,0 80.809,-36.097 80.809,-80.809c0,-44.711 -36.097,-80.809 -80.809,-80.809c44.711,0 80.809,-36.097 80.809,-80.809c0,-44.711 -36.097,-80.809 -80.809,-80.809c44.711,0 80.809,-36.097 80.809,-80.809c0,-44.711 -36.097,-80.809 -80.809,-80.809c44.711,0 80.809,-36.097 80.809,-80.809c0,-44.711 -36.097,-80.809 -80.809,-80.809c-44.711,0 -80.809,36.097 -80.809,80.809Zm1294.169,162.028c0,44.711 36.097,80.809 80.809,80.809c-44.711,0 -80.809,36.097 -80.809,80.809c0,44.711 36.097,80.809 80.809,80.809c-44.711,0 -80.809,36.097 -80.809,80.809c0,44.711 36.097,80.809 80.809,80.809c44.711,0 80.809,-36.097 80.809,-80.809c0,-44.711 -36.097,-80.809 -80.809,-80.809c44.711,0 80.809,-36.097 80.809,-80.809c0,-44.711 -36.097,-80.809 -80.809,-80.809c44.711,0 80.809,-36.097 80.809,-80.809c0,-44.711 -36.097,-80.809 -80.809,-80.809c-44.711,0 -80.809,36.097 -80.809,80.809Zm-162.028,0c0,44.711 36.097,80.809 80.809,80.809c44.711,0 80.809,-36.097 80.809,-80.809c0,-44.711 -36.097,-80.809 -80.809,-80.809c-44.711,0 -80.809,36.097 -80.809,80.809Zm-485.262,0c0,44.711 36.097,80.809 80.809,80.809c44.711,0 80.809,-36.097 80.809,-80.809c0,-44.711 -36.097,-80.809 -80.809,-80.809c-44.711,0 -80.809,36.097 -80.809,80.809Zm-161.617,0c0,44.711 36.097,80.809 80.809,80.809c44.711,0 80.809,-36.097 80.809,-80.809c0,-44.711 -36.097,-80.809 -80.809,-80.809c-44.711,0 -80.809,36.097 -80.809,80.809Zm485.262,323.235c0,44.711 36.097,80.809 80.809,80.809c-44.711,0 -80.809,36.097 -80.809,80.809c0,44.711 36.097,80.809 80.809,80.809c-44.711,0 -80.809,36.097 -80.809,80.809c0,44.711 36.097,80.809 80.809,80.809c44.711,0 80.809,-36.097 80.809,-80.809c0,-44.711 -36.097,-80.809 -80.809,-80.809c44.711,0 80.809,-36.097 80.809,-80.809c0,-44.711 -36.097,-80.809 -80.809,-80.809c44.711,0 80.809,-36.097 80.809,-80.809c0,-44.711 -36.097,-80.809 -80.809,-80.809c-44.711,0 -80.809,36.097 -80.809,80.809Zm-323.645,0c0,44.711 36.097,80.809 80.809,80.809c44.711,0 80.809,-36.097 80.809,-80.809c0,-44.711 -36.097,-80.809 -80.809,-80.809c-44.711,0 -80.809,36.097 -80.809,80.809Zm-323.235,0c0,44.711 36.097,80.809 80.809,80.809c44.711,0 80.809,-36.097 80.809,-80.809c0,-44.711 -36.097,-80.809 -80.809,-80.809c-44.711,0 -80.809,36.097 -80.809,80.809Zm485.262,162.028c0,44.711 36.097,80.809 80.809,80.809c44.711,0 80.809,-36.097 80.809,-80.809c0,-44.711 -36.097,-80.809 -80.809,-80.809c-44.711,0 -80.809,36.097 -80.809,80.809Zm-323.645,0c0,44.711 36.097,80.809 80.809,80.809c-44.711,0 -80.809,36.097 -80.809,80.809c0,44.711 36.097,80.809 80.809,80.809c-44.711,0 -80.809,36.097 -80.809,80.809c0,44.711 36.097,80.809 80.809,80.809c-44.711,0 -80.809,36.097 -80.809,80.809c0,44.711 36.097,80.809 80.809,80.809c-44.711,0 -80.809,36.097 -80.809,80.809c0,44.711 36.097,80.809 80.809,80.809c44.711,0 80.809,-36.097 80.809,-80.809c0,-44.711 -36.097,-80.809 -80.809,-80.809c44.711,0 80.809,-36.097 80.809,-80.809c0,-44.711 -36.097,-80.809 -80.809,-80.809c44.711,0 80.809,-36.097 80.809,-80.809c0,-44.711 -36.097,-80.809 -80.809,-80.809c44.711,0 80.809,-36.097 80.809,-80.809c0,-44.711 -36.097,-80.809 -80.809,-80.809c44.711,0 80.809,-36.097 80.809,-80.809c0,-44.711 -36.097,-80.809 -80.809,-80.809c-44.711,0 -80.809,36.097 -80.809,80.809Zm1941.049,161.617c0,44.711 36.097,80.809 80.809,80.809c-44.711,0 -80.809,36.097 -80.809,80.809c0,44.711 36.097,80.809 80.809,80.809c-44.711,0 -80.809,36.097 -80.809,80.809c0,44.711 36.097,80.809 80.809,80.809c44.711,0 80.809,-36.097 80.809,-80.809c0,-44.711 -36.097,-80.809 -80.809,-80.809c44.711,0 80.809,-36.097 80.809,-80.809c0,-44.711 -36.097,-80.809 -80.809,-80.809c44.711,0 80.809,-36.097 80.809,-80.809c0,-44.711 -36.097,-80.809 -80.809,-80.809c-44.711,0 -80.809,36.097 -80.809,80.809Zm-323.645,0c0,44.711 36.097,80.809 80.809,80.809c-44.711,0 -80.809,36.097 -80.809,80.809c0,44.711 36.097,80.809 80.809,80.809c44.711,0 80.809,-36.097 80.809,-80.809c0,-44.711 -36.097,-80.809 -80.809,-80.809c44.711,0 80.809,-36.097 80.809,-80.809c0,-44.711 -36.097,-80.809 -80.809,-80.809c-44.711,0 -80.809,36.097 -80.809,80.809Zm-161.617,0c0,44.711 36.097,80.809 80.809,80.809c-44.711,0 -80.809,36.097 -80.809,80.809c0,44.711 36.097,80.809 80.809,80.809c44.711,0 80.809,-36.097 80.809,-80.809c0,-44.711 -36.097,-80.809 -80.809,-80.809c44.711,0 80.809,-36.097 80.809,-80.809c0,-44.711 -36.097,-80.809 -80.809,-80.809c-44.711,0 -80.809,36.097 -80.809,80.809Zm-161.617,0c0,44.711 36.097,80.809 80.809,80.809c-44.711,0 -80.809,36.097 -80.809,80.809c0,44.711 36.097,80.809 80.809,80.809c-44.711,0 -80.809,36.097 -80.809,80.809c0,44.711 36.097,80.809 80.809,80.809c44.711,0 80.809,-36.097 80.809,-80.809c0,-44.711 -36.097,-80.809 -80.809,-80.809c44.711,0 80.809,-36.097 80.809,-80.809c0,-44.711 -36.097,-80.809 -80.809,-80.809c44.711,0 80.809,-36.097 80.809,-80.809c0,-44.711 -36.097,-80.809 -80.809,-80.809c-44.711,0 -80.809,36.097 -80.809,80.809Zm-323.645,0c0,44.711 36.097,80.809 80.809,80.809c44.711,0 80.809,-36.097 80.809,-80.809c0,-44.711 -36.097,-80.809 -80.809,-80.809c-44.711,0 -80.809,36.097 -80.809,80.809Zm-161.617,0c0,44.711 36.097,80.809 80.809,80.809c44.711,0 80.809,-36.097 80.809,-80.809c0,-44.711 -36.097,-80.809 -80.809,-80.809c-44.711,0 -80.809,36.097 -80.809,80.809Zm-162.028,0c0,44.711 36.097,80.809 80.809,80.809c-44.711,0 -80.809,36.097 -80.809,80.809c0,44.711 36.097,80.809 80.809,80.809c-44.711,0 -80.809,36.097 -80.809,80.809c0,44.711 36.097,80.809 80.809,80.809c44.711,0 80.809,-36.097 80.809,-80.809c0,-44.711 -36.097,-80.809 -80.809,-80.809c44.711,0 80.809,-36.097 80.809,-80.809c0,-44.711 -36.097,-80.809 -80.809,-80.809c44.711,0 80.809,-36.097 80.809,-80.809c0,-44.711 -36.097,-80.809 -80.809,-80.809c-44.711,0 -80.809,36.097 -80.809,80.809Zm-808.497,0c0,44.711 36.097,80.809 80.809,80.809c44.711,0 80.809,-36.097 80.809,-80.809c0,-44.711 -36.097,-80.809 -80.809,-80.809c-44.711,0 -80.809,36.097 -80.809,80.809Zm-162.028,0c0,44.711 36.097,80.809 80.809,80.809c-44.711,0 -80.809,36.097 -80.809,80.809c0,44.711 36.097,80.809 80.809,80.809c44.711,0 80.809,-36.097 80.809,-80.809c0,-44.711 -36.097,-80.809 -80.809,-80.809c44.711,0 80.809,-36.097 80.809,-80.809c0,-44.711 -36.097,-80.809 -80.809,-80.809c-44.711,0 -80.809,36.097 -80.809,80.809Zm-161.617,0c0,44.711 36.097,80.809 80.809,80.809c44.711,0 80.809,-36.097 80.809,-80.809c0,-44.711 -36.097,-80.809 -80.809,-80.809c-44.711,0 -80.809,36.097 -80.809,80.809Zm-162.028,0c0,44.711 36.097,80.809 80.809,80.809c-44.711,0 -80.809,36.097 -80.809,80.809c0,44.711 36.097,80.809 80.809,80.809c44.711,0 80.809,-36.097 80.809,-80.809c0,-44.711 -36.097,-80.809 -80.809,-80.809c44.711,0 80.809,-36.097 80.809,-80.809c0,-44.711 -36.097,-80.809 -80.809,-80.809c-44.711,0 -80.809,36.097 -80.809,80.809Zm-161.617,0c0,44.711 36.097,80.809 80.809,80.809c44.711,0 80.809,-36.097 80.809,-80.809c0,-44.711 -36.097,-80.809 -80.809,-80.809c-44.711,0 -80.809,36.097 -80.809,80.809Zm-323.645,0c0,44.711 36.097,80.809 80.809,80.809c-44.711,0 -80.809,36.097 -80.809,80.809c0,44.711 36.097,80.809 80.809,80.809c44.711,0 80.809,-36.097 80.809,-80.809c0,-44.711 -36.097,-80.809 -80.809,-80.809c44.711,0 80.809,-36.097 80.809,-80.809c0,-44.711 -36.097,-80.809 -80.809,-80.809c-44.711,0 -80.809,36.097 -80.809,80.809Zm-161.617,0c0,44.711 36.097,80.809 80.809,80.809c-44.711,0 -80.809,36.097 -80.809,80.809c0,44.711 36.097,80.809 80.809,80.809c44.711,0 80.809,-36.097 80.809,-80.809c0,-44.711 -36.097,-80.809 -80.809,-80.809c44.711,0 80.809,-36.097 80.809,-80.809c0,-44.711 -36.097,-80.809 -80.809,-80.809c-44.711,0 -80.809,36.097 -80.809,80.809Zm-323.645,0c0,44.711 36.097,80.809 80.809,80.809c-44.711,0 -80.809,36.097 -80.809,80.809c0,44.711 36.097,80.809 80.809,80.809c44.711,0 80.809,-36.097 80.809,-80.809c0,-44.711 -36.097,-80.809 -80.809,-80.809c44.711,0 80.809,-36.097 80.809,-80.809c0,-44.711 -36.097,-80.809 -80.809,-80.809c-44.711,0 -80.809,36.097 -80.809,80.809Zm3397.245,161.617c0,44.711 36.097,80.809 80.809,80.809c44.711,0 80.809,-36.097 80.809,-80.809c0,-44.711 -36.097,-80.809 -80.809,-80.809c-44.711,0 -80.809,36.097 -80.809,80.809Zm-1455.787,0c0,44.711 36.097,80.809 80.809,80.809c-44.711,0 -80.809,36.097 -80.809,80.809c0,44.711 36.097,80.809 80.809,80.809c-44.711,0 -80.809,36.097 -80.809,80.809c0,44.711 36.097,80.809 80.809,80.809c44.711,0 80.809,-36.097 80.809,-80.809c0,-44.711 -36.097,-80.809 -80.809,-80.809c44.711,0 80.809,-36.097 80.809,-80.809c0,-44.711 -36.097,-80.809 -80.809,-80.809c44.711,0 80.809,-36.097 80.809,-80.809c0,-44.711 -36.097,-80.809 -80.809,-80.809c-44.711,0 -80.809,36.097 -80.809,80.809Zm-1294.169,0c0,44.711 36.097,80.809 80.809,80.809c44.711,0 80.809,-36.097 80.809,-80.809c0,-44.711 -36.097,-80.809 -80.809,-80.809c-44.711,0 -80.809,36.097 -80.809,80.809Zm-808.907,0c0,44.711 36.097,80.809 80.809,80.809c44.711,0 80.809,-36.097 80.809,-80.809c0,-44.711 -36.097,-80.809 -80.809,-80.809c-44.711,0 -80.809,36.097 -80.809,80.809Zm2749.956,162.028c0,44.711 36.097,80.809 80.809,80.809c-44.711,0 -80.809,36.097 -80.809,80.809c0,44.711 36.097,80.809 80.809,80.809c-44.711,0 -80.809,36.097 -80.809,80.809c0,44.711 36.097,80.809 80.809,80.809c44.711,0 80.809,-36.097 80.809,-80.809c0,-44.711 -36.097,-80.809 -80.809,-80.809c44.711,0 80.809,-36.097 80.809,-80.809c0,-44.711 -36.097,-80.809 -80.809,-80.809c44.711,0 80.809,-36.097 80.809,-80.809c0,-44.711 -36.097,-80.809 -80.809,-80.809c-44.711,0 -80.809,36.097 -80.809,80.809Zm-1132.142,0c0,44.711 36.097,80.809 80.809,80.809c-44.711,0 -80.809,36.097 -80.809,80.809c0,44.711 36.097,80.809 80.809,80.809c44.711,0 80.809,-36.097 80.809,-80.809c0,-44.711 -36.097,-80.809 -80.809,-80.809c44.711,0 80.809,-36.097 80.809,-80.809c0,-44.711 -36.097,-80.809 -80.809,-80.809c-44.711,0 -80.809,36.097 -80.809,80.809Zm-647.29,0c0,44.711 36.097,80.809 80.809,80.809c44.711,0 80.809,-36.097 80.809,-80.809c0,-44.711 -36.097,-80.809 -80.809,-80.809c-44.711,0 -80.809,36.097 -80.809,80.809Zm-646.88,0c0,44.711 36.097,80.809 80.809,80.809c-44.711,0 -80.809,36.097 -80.809,80.809c0,44.711 36.097,80.809 80.809,80.809c-44.711,0 -80.809,36.097 -80.809,80.809c0,44.711 36.097,80.809 80.809,80.809c-44.711,0 -80.809,36.097 -80.809,80.809c0,44.711 36.097,80.809 80.809,80.809c-44.711,0 -80.809,36.097 -80.809,80.809c0,44.711 36.097,80.809 80.809,80.809c-44.711,0 -80.809,36.097 -80.809,80.809c0,44.711 36.097,80.809 80.809,80.809c44.711,0 80.809,-36.097 80.809,-80.809c0,-44.711 -36.097,-80.809 -80.809,-80.809c44.711,0 80.809,-36.097 80.809,-80.809c0,-44.711 -36.097,-80.809 -80.809,-80.809c44.711,0 80.809,-36.097 80.809,-80.809c0,-44.711 -36.097,-80.809 -80.809,-80.809c44.711,0 80.809,-36.097 80.809,-80.809c0,-44.711 -36.097,-80.809 -80.809,-80.809c44.711,0 80.809,-36.097 80.809,-80.809c0,-44.711 -36.097,-80.809 -80.809,-80.809c44.711,0 80.809,-36.097 80.809,-80.809c0,-44.711 -36.097,-80.809 -80.809,-80.809c-44.711,0 -80.809,36.097 -80.809,80.809Zm3073.19,161.617c0,44.711 36.097,80.809 80.809,80.809c-44.711,0 -80.809,36.097 -80.809,80.809c0,44.711 36.097,80.809 80.809,80.809c44.711,0 80.809,-36.097 80.809,-80.809c0,-44.711 -36.097,-80.809 -80.809,-80.809c44.711,0 80.809,-36.097 80.809,-80.809c0,-44.711 -36.097,-80.809 -80.809,-80.809c-44.711,0 -80.809,36.097 -80.809,80.809Zm-161.617,0c0,44.711 36.097,80.809 80.809,80.809c44.711,0 80.809,-36.097 80.809,-80.809c0,-44.711 -36.097,-80.809 -80.809,-80.809c-44.711,0 -80.809,36.097 -80.809,80.809Zm-323.645,0c0,44.711 36.097,80.809 80.809,80.809c-44.711,0 -80.809,36.097 -80.809,80.809c0,44.711 36.097,80.809 80.809,80.809c-44.711,0 -80.809,36.097 -80.809,80.809c0,44.711 36.097,80.809 80.809,80.809c-44.711,0 -80.809,36.097 -80.809,80.809c0,44.711 36.097,80.809 80.809,80.809c44.711,0 80.809,-36.097 80.809,-80.809c0,-44.711 -36.097,-80.809 -80.809,-80.809c44.711,0 80.809,-36.097 80.809,-80.809c0,-44.711 -36.097,-80.809 -80.809,-80.809c44.711,0 80.809,-36.097 80.809,-80.809c0,-44.711 -36.097,-80.809 -80.809,-80.809c44.711,0 80.809,-36.097 80.809,-80.809c0,-44.711 -36.097,-80.809 -80.809,-80.809c-44.711,0 -80.809,36.097 -80.809,80.809Zm-646.88,0c0,44.711 36.097,80.809 80.809,80.809c-44.711,0 -80.809,36.097 -80.809,80.809c0,44.711 36.097,80.809 80.809,80.809c-44.711,0 -80.809,36.097 -80.809,80.809c0,44.711 36.097,80.809 80.809,80.809c44.711,0 80.809,-36.097 80.809,-80.809c0,-44.711 -36.097,-80.809 -80.809,-80.809c44.711,0 80.809,-36.097 80.809,-80.809c0,-44.711 -36.097,-80.809 -80.809,-80.809c44.711,0 80.809,-36.097 80.809,-80.809c0,-44.711 -36.097,-80.809 -80.809,-80.809c-44.711,0 -80.809,36.097 -80.809,80.809Zm-970.524,0c0,44.711 36.097,80.809 80.809,80.809c44.711,0 80.809,-36.097 80.809,-80.809c0,-44.711 -36.097,-80.809 -80.809,-80.809c-44.711,0 -80.809,36.097 -80.809,80.809Zm-162.028,0c0,44.711 36.097,80.809 80.809,80.809c44.711,0 80.809,-36.097 80.809,-80.809c0,-44.711 -36.097,-80.809 -80.809,-80.809c-44.711,0 -80.809,36.097 -80.809,80.809Zm-970.524,0c0,44.711 36.097,80.809 80.809,80.809c44.711,0 80.809,-36.097 80.809,-80.809c0,-44.711 -36.097,-80.809 -80.809,-80.809c-44.711,0 -80.809,36.097 -80.809,80.809Zm3558.863,161.617c0,44.711 36.097,80.809 80.809,80.809c44.711,0 80.809,-36.097 80.809,-80.809c0,-44.711 -36.097,-80.809 -80.809,-80.809c-44.711,0 -80.809,36.097 -80.809,80.809Zm-646.88,0c0,44.711 36.097,80.809 80.809,80.809c44.711,0 80.809,-36.097 80.809,-80.809c0,-44.711 -36.097,-80.809 -80.809,-80.809c-44.711,0 -80.809,36.097 -80.809,80.809Zm-1617.814,0c0,44.711 36.097,80.809 80.809,80.809c44.711,0 80.809,-36.097 80.809,-80.809c0,-44.711 -36.097,-80.809 -80.809,-80.809c-44.711,0 -80.809,36.097 -80.809,80.809Zm-485.262,0c0,44.711 36.097,80.809 80.809,80.809c44.711,0 80.809,-36.097 80.809,-80.809c0,-44.711 -36.097,-80.809 -80.809,-80.809c-44.711,0 -80.809,36.097 -80.809,80.809Zm-161.617,0c0,44.711 36.097,80.809 80.809,80.809c-44.711,0 -80.809,36.097 -80.809,80.809c0,44.711 36.097,80.809 80.809,80.809c-44.711,0 -80.809,36.097 -80.809,80.809c0,44.711 36.097,80.809 80.809,80.809c44.711,0 80.809,-36.097 80.809,-80.809c0,-44.711 -36.097,-80.809 -80.809,-80.809c44.711,0 80.809,-36.097 80.809,-80.809c0,-44.711 -36.097,-80.809 -80.809,-80.809c44.711,0 80.809,-36.097 80.809,-80.809c0,-44.711 -36.097,-80.809 -80.809,-80.809c-44.711,0 -80.809,36.097 -80.809,80.809Zm-162.028,0c0,44.711 36.097,80.809 80.809,80.809c-44.711,0 -80.809,36.097 -80.809,80.809c0,44.711 36.097,80.809 80.809,80.809c-44.711,0 -80.809,36.097 -80.809,80.809c0,44.711 36.097,80.809 80.809,80.809c44.711,0 80.809,-36.097 80.809,-80.809c0,-44.711 -36.097,-80.809 -80.809,-80.809c44.711,0 80.809,-36.097 80.809,-80.809c0,-44.711 -36.097,-80.809 -80.809,-80.809c44.711,0 80.809,-36.097 80.809,-80.809c0,-44.711 -36.097,-80.809 -80.809,-80.809c-44.711,0 -80.809,36.097 -80.809,80.809Zm-161.617,0c0,44.711 36.097,80.809 80.809,80.809c44.711,0 80.809,-36.097 80.809,-80.809c0,-44.711 -36.097,-80.809 -80.809,-80.809c-44.711,0 -80.809,36.097 -80.809,80.809Zm3396.835,162.028c0,44.711 36.097,80.809 80.809,80.809c44.711,0 80.809,-36.097 80.809,-80.809c0,-44.711 -36.097,-80.809 -80.809,-80.809c-44.711,0 -80.809,36.097 -80.809,80.809Zm-1293.759,0c0,44.711 36.097,80.809 80.809,80.809c44.711,0 80.809,-36.097 80.809,-80.809c0,-44.711 -36.097,-80.809 -80.809,-80.809c-44.711,0 -80.809,36.097 -80.809,80.809Zm-162.028,0c0,44.711 36.097,80.809 80.809,80.809c44.711,0 80.809,-36.097 80.809,-80.809c0,-44.711 -36.097,-80.809 -80.809,-80.809c-44.711,0 -80.809,36.097 -80.809,80.809Zm-323.235,0c0,44.711 36.097,80.809 80.809,80.809c44.711,0 80.809,-36.097 80.809,-80.809c0,-44.711 -36.097,-80.809 -80.809,-80.809c-44.711,0 -80.809,36.097 -80.809,80.809Zm-162.028,0c0,44.711 36.097,80.809 80.809,80.809c-44.711,0 -80.809,36.097 -80.809,80.809c0,44.711 36.097,80.809 80.809,80.809c-44.711,0 -80.809,36.097 -80.809,80.809c0,44.711 36.097,80.809 80.809,80.809c44.711,0 80.809,-36.097 80.809,-80.809c0,-44.711 -36.097,-80.809 -80.809,-80.809c44.711,0 80.809,-36.097 80.809,-80.809c0,-44.711 -36.097,-80.809 -80.809,-80.809c44.711,0 80.809,-36.097 80.809,-80.809c0,-44.711 -36.097,-80.809 -80.809,-80.809c-44.711,0 -80.809,36.097 -80.809,80.809Zm-646.88,0c0,44.711 36.097,80.809 80.809,80.809c-44.711,0 -80.809,36.097 -80.809,80.809c0,44.711 36.097,80.809 80.809,80.809c44.711,0 80.809,-36.097 80.809,-80.809c0,-44.711 -36.097,-80.809 -80.809,-80.809c44.711,0 80.809,-36.097 80.809,-80.809c0,-44.711 -36.097,-80.809 -80.809,-80.809c-44.711,0 -80.809,36.097 -80.809,80.809Zm-1132.552,0c0,44.711 36.097,80.809 80.809,80.809c44.711,0 80.809,-36.097 80.809,-80.809c0,-44.711 -36.097,-80.809 -80.809,-80.809c-44.711,0 -80.809,36.097 -80.809,80.809Zm-161.617,0c0,44.711 36.097,80.809 80.809,80.809c-44.711,0 -80.809,36.097 -80.809,80.809c0,44.711 36.097,80.809 80.809,80.809c44.711,0 80.809,-36.097 80.809,-80.809c0,-44.711 -36.097,-80.809 -80.809,-80.809c44.711,0 80.809,-36.097 80.809,-80.809c0,-44.711 -36.097,-80.809 -80.809,-80.809c-44.711,0 -80.809,36.097 -80.809,80.809Zm3558.863,161.617c0,44.711 36.097,80.809 80.809,80.809c-44.711,0 -80.809,36.097 -80.809,80.809c0,44.711 36.097,80.809 80.809,80.809c-44.711,0 -80.809,36.097 -80.809,80.809c0,44.711 36.097,80.809 80.809,80.809c-44.711,0 -80.809,36.097 -80.809,80.809c0,44.711 36.097,80.809 80.809,80.809c44.711,0 80.809,-36.097 80.809,-80.809c0,-44.711 -36.097,-80.809 -80.809,-80.809c44.711,0 80.809,-36.097 80.809,-80.809c0,-44.711 -36.097,-80.809 -80.809,-80.809c44.711,0 80.809,-36.097 80.809,-80.809c0,-44.711 -36.097,-80.809 -80.809,-80.809c44.711,0 80.809,-36.097 80.809,-80.809c0,-44.711 -36.097,-80.809 -80.809,-80.809c-44.711,0 -80.809,36.097 -80.809,80.809Zm-162.028,0c0,44.711 36.097,80.809 80.809,80.809c-44.711,0 -80.809,36.097 -80.809,80.809c0,44.711 36.097,80.809 80.809,80.809c-44.711,0 -80.809,36.097 -80.809,80.809c0,44.711 36.097,80.809 80.809,80.809c-44.711,0 -80.809,36.097 -80.809,80.809c0,44.711 36.097,80.809 80.809,80.809c-44.711,0 -80.809,36.097 -80.809,80.809c0,44.711 36.097,80.809 80.809,80.809c44.711,0 80.809,-36.097 80.809,-80.809c0,-44.711 -36.097,-80.809 -80.809,-80.809c44.711,0 80.809,-36.097 80.809,-80.809c0,-44.711 -36.097,-80.809 -80.809,-80.809c44.711,0 80.809,-36.097 80.809,-80.809c0,-44.711 -36.097,-80.809 -80.809,-80.809c44.711,0 80.809,-36.097 80.809,-80.809c0,-44.711 -36.097,-80.809 -80.809,-80.809c44.711,0 80.809,-36.097 80.809,-80.809c0,-44.711 -36.097,-80.809 -80.809,-80.809c-44.711,0 -80.809,36.097 -80.809,80.809Zm-646.88,0c0,44.711 36.097,80.809 80.809,80.809c44.711,0 80.809,-36.097 80.809,-80.809c0,-44.711 -36.097,-80.809 -80.809,-80.809c-44.711,0 -80.809,36.097 -80.809,80.809Zm-970.524,0c0,44.711 36.097,80.809 80.809,80.809c44.711,0 80.809,-36.097 80.809,-80.809c0,-44.711 -36.097,-80.809 -80.809,-80.809c-44.711,0 -80.809,36.097 -80.809,80.809Zm-161.617,0c0,44.711 36.097,80.809 80.809,80.809c-44.711,0 -80.809,36.097 -80.809,80.809c0,44.711 36.097,80.809 80.809,80.809c44.711,0 80.809,-36.097 80.809,-80.809c0,-44.711 -36.097,-80.809 -80.809,-80.809c44.711,0 80.809,-36.097 80.809,-80.809c0,-44.711 -36.097,-80.809 -80.809,-80.809c-44.711,0 -80.809,36.097 -80.809,80.809Zm-162.028,0c0,44.711 36.097,80.809 80.809,80.809c-44.711,0 -80.809,36.097 -80.809,80.809c0,44.711 36.097,80.809 80.809,80.809c-44.711,0 -80.809,36.097 -80.809,80.809c0,44.711 36.097,80.809 80.809,80.809c-44.711,0 -80.809,36.097 -80.809,80.809c0,44.711 36.097,80.809 80.809,80.809c44.711,0 80.809,-36.097 80.809,-80.809c0,-44.711 -36.097,-80.809 -80.809,-80.809c44.711,0 80.809,-36.097 80.809,-80.809c0,-44.711 -36.097,-80.809 -80.809,-80.809c44.711,0 80.809,-36.097 80.809,-80.809c0,-44.711 -36.097,-80.809 -80.809,-80.809c44.711,0 80.809,-36.097 80.809,-80.809c0,-44.711 -36.097,-80.809 -80.809,-80.809c-44.711,0 -80.809,36.097 -80.809,80.809Zm-323.645,0c0,44.711 36.097,80.809 80.809,80.809c-44.711,0 -80.809,36.097 -80.809,80.809c0,44.711 36.097,80.809 80.809,80.809c-44.711,0 -80.809,36.097 -80.809,80.809c0,44.711 36.097,80.809 80.809,80.809c44.711,0 80.809,-36.097 80.809,-80.809c0,-44.711 -36.097,-80.809 -80.809,-80.809c44.711,0 80.809,-36.097 80.809,-80.809c0,-44.711 -36.097,-80.809 -80.809,-80.809c44.711,0 80.809,-36.097 80.809,-80.809c0,-44.711 -36.097,-80.809 -80.809,-80.809c-44.711,0 -80.809,36.097 -80.809,80.809Zm-161.617,0c0,44.711 36.097,80.809 80.809,80.809c44.711,0 80.809,-36.097 80.809,-80.809c0,-44.711 -36.097,-80.809 -80.809,-80.809c-44.711,0 -80.809,36.097 -80.809,80.809Zm-485.262,0c0,44.711 36.097,80.809 80.809,80.809c-44.711,0 -80.809,36.097 -80.809,80.809c0,44.711 36.097,80.809 80.809,80.809c-44.711,0 -80.809,36.097 -80.809,80.809c0,44.711 36.097,80.809 80.809,80.809c44.711,0 80.809,-36.097 80.809,-80.809c0,-44.711 -36.097,-80.809 -80.809,-80.809c44.711,0 80.809,-36.097 80.809,-80.809c0,-44.711 -36.097,-80.809 -80.809,-80.809c44.711,0 80.809,-36.097 80.809,-80.809c0,-44.711 -36.097,-80.809 -80.809,-80.809c-44.711,0 -80.809,36.097 -80.809,80.809Zm2749.956,162.028c0,44.711 36.097,80.809 80.809,80.809c-44.711,0 -80.809,36.097 -80.809,80.809c0,44.711 36.097,80.809 80.809,80.809c-44.711,0 -80.809,36.097 -80.809,80.809c0,44.711 36.097,80.809 80.809,80.809c-44.711,0 -80.809,36.097 -80.809,80.809c0,44.711 36.097,80.809 80.809,80.809c-44.711,0 -80.809,36.097 -80.809,80.809c0,44.711 36.097,80.809 80.809,80.809c-44.711,0 -80.809,36.097 -80.809,80.809c0,44.711 36.097,80.809 80.809,80.809c44.711,0 80.809,-36.097 80.809,-80.809c0,-44.711 -36.097,-80.809 -80.809,-80.809c44.711,0 80.809,-36.097 80.809,-80.809c0,-44.711 -36.097,-80.809 -80.809,-80.809c44.711,0 80.809,-36.097 80.809,-80.809c0,-44.711 -36.097,-80.809 -80.809,-80.809c44.711,0 80.809,-36.097 80.809,-80.809c0,-44.711 -36.097,-80.809 -80.809,-80.809c44.711,0 80.809,-36.097 80.809,-80.809c0,-44.711 -36.097,-80.809 -80.809,-80.809c44.711,0 80.809,-36.097 80.809,-80.809c0,-44.711 -36.097,-80.809 -80.809,-80.809c-44.711,0 -80.809,36.097 -80.809,80.809Zm-161.617,0c0,44.711 36.097,80.809 80.809,80.809c-44.711,0 -80.809,36.097 -80.809,80.809c0,44.711 36.097,80.809 80.809,80.809c44.711,0 80.809,-36.097 80.809,-80.809c0,-44.711 -36.097,-80.809 -80.809,-80.809c44.711,0 80.809,-36.097 80.809,-80.809c0,-44.711 -36.097,-80.809 -80.809,-80.809c-44.711,0 -80.809,36.097 -80.809,80.809Zm-647.29,0c0,44.711 36.097,80.809 80.809,80.809c44.711,0 80.809,-36.097 80.809,-80.809c0,-44.711 -36.097,-80.809 -80.809,-80.809c-44.711,0 -80.809,36.097 -80.809,80.809Zm-161.617,0c0,44.711 36.097,80.809 80.809,80.809c44.711,0 80.809,-36.097 80.809,-80.809c0,-44.711 -36.097,-80.809 -80.809,-80.809c-44.711,0 -80.809,36.097 -80.809,80.809Zm-161.617,0c0,44.711 36.097,80.809 80.809,80.809c-44.711,0 -80.809,36.097 -80.809,80.809c0,44.711 36.097,80.809 80.809,80.809c-44.711,0 -80.809,36.097 -80.809,80.809c0,44.711 36.097,80.809 80.809,80.809c44.711,0 80.809,-36.097 80.809,-80.809c0,-44.711 -36.097,-80.809 -80.809,-80.809c44.711,0 80.809,-36.097 80.809,-80.809c0,-44.711 -36.097,-80.809 -80.809,-80.809c44.711,0 80.809,-36.097 80.809,-80.809c0,-44.711 -36.097,-80.809 -80.809,-80.809c-44.711,0 -80.809,36.097 -80.809,80.809Zm1779.021,161.617c0,44.711 36.097,80.809 80.809,80.809c-44.711,0 -80.809,36.097 -80.809,80.809c0,44.711 36.097,80.809 80.809,80.809c-44.711,0 -80.809,36.097 -80.809,80.809c0,44.711 36.097,80.809 80.809,80.809c44.711,0 80.809,-36.097 80.809,-80.809c0,-44.711 -36.097,-80.809 -80.809,-80.809c44.711,0 80.809,-36.097 80.809,-80.809c0,-44.711 -36.097,-80.809 -80.809,-80.809c44.711,0 80.809,-36.097 80.809,-80.809c0,-44.711 -36.097,-80.809 -80.809,-80.809c-44.711,0 -80.809,36.097 -80.809,80.809Zm-970.524,0c0,44.711 36.097,80.809 80.809,80.809c44.711,0 80.809,-36.097 80.809,-80.809c0,-44.711 -36.097,-80.809 -80.809,-80.809c-44.711,0 -80.809,36.097 -80.809,80.809Zm-161.617,0c0,44.711 36.097,80.809 80.809,80.809c44.711,0 80.809,-36.097 80.809,-80.809c0,-44.711 -36.097,-80.809 -80.809,-80.809c-44.711,0 -80.809,36.097 -80.809,80.809Zm-161.617,0c0,44.711 36.097,80.809 80.809,80.809c-44.711,0 -80.809,36.097 -80.809,80.809c0,44.711 36.097,80.809 80.809,80.809c-44.711,0 -80.809,36.097 -80.809,80.809c0,44.711 36.097,80.809 80.809,80.809c-44.711,0 -80.809,36.097 -80.809,80.809c0,44.711 36.097,80.809 80.809,80.809c-44.711,0 -80.809,36.097 -80.809,80.809c0,44.711 36.097,80.809 80.809,80.809c44.711,0 80.809,-36.097 80.809,-80.809c0,-44.711 -36.097,-80.809 -80.809,-80.809c44.711,0 80.809,-36.097 80.809,-80.809c0,-44.711 -36.097,-80.809 -80.809,-80.809c44.711,0 80.809,-36.097 80.809,-80.809c0,-44.711 -36.097,-80.809 -80.809,-80.809c44.711,0 80.809,-36.097 80.809,-80.809c0,-44.711 -36.097,-80.809 -80.809,-80.809c44.711,0 80.809,-36.097 80.809,-80.809c0,-44.711 -36.097,-80.809 -80.809,-80.809c-44.711,0 -80.809,36.097 -80.809,80.809Zm-808.907,0c0,44.711 36.097,80.809 80.809,80.809c-44.711,0 -80.809,36.097 -80.809,80.809c0,44.711 36.097,80.809 80.809,80.809c-44.711,0 -80.809,36.097 -80.809,80.809c0,44.711 36.097,80.809 80.809,80.809c44.711,0 80.809,-36.097 80.809,-80.809c0,-44.711 -36.097,-80.809 -80.809,-80.809c44.711,0 80.809,-36.097 80.809,-80.809c0,-44.711 -36.097,-80.809 -80.809,-80.809c44.711,0 80.809,-36.097 80.809,-80.809c0,-44.711 -36.097,-80.809 -80.809,-80.809c-44.711,0 -80.809,36.097 -80.809,80.809Zm-485.262,0c0,44.711 36.097,80.809 80.809,80.809c-44.711,0 -80.809,36.097 -80.809,80.809c0,44.711 36.097,80.809 80.809,80.809c-44.711,0 -80.809,36.097 -80.809,80.809c0,44.711 36.097,80.809 80.809,80.809c44.711,0 80.809,-36.097 80.809,-80.809c0,-44.711 -36.097,-80.809 -80.809,-80.809c44.711,0 80.809,-36.097 80.809,-80.809c0,-44.711 -36.097,-80.809 -80.809,-80.809c44.711,0 80.809,-36.097 80.809,-80.809c0,-44.711 -36.097,-80.809 -80.809,-80.809c-44.711,0 -80.809,36.097 -80.809,80.809Zm-323.645,0c0,44.711 36.097,80.809 80.809,80.809c44.711,0 80.809,-36.097 80.809,-80.809c0,-44.711 -36.097,-80.809 -80.809,-80.809c-44.711,0 -80.809,36.097 -80.809,80.809Zm-161.617,0c0,44.711 36.097,80.809 80.809,80.809c44.711,0 80.809,-36.097 80.809,-80.809c0,-44.711 -36.097,-80.809 -80.809,-80.809c-44.711,0 -80.809,36.097 -80.809,80.809Zm-162.028,0c0,44.711 36.097,80.809 80.809,80.809c44.711,0 80.809,-36.097 80.809,-80.809c0,-44.711 -36.097,-80.809 -80.809,-80.809c-44.711,0 -80.809,36.097 -80.809,80.809Zm-485.262,0c0,44.711 36.097,80.809 80.809,80.809c44.711,0 80.809,-36.097 80.809,-80.809c0,-44.711 -36.097,-80.809 -80.809,-80.809c-44.711,0 -80.809,36.097 -80.809,80.809Zm2264.694,161.617c0,44.711 36.097,80.809 80.809,80.809c-44.711,0 -80.809,36.097 -80.809,80.809c0,44.711 36.097,80.809 80.809,80.809c-44.711,0 -80.809,36.097 -80.809,80.809c0,44.711 36.097,80.809 80.809,80.809c44.711,0 80.809,-36.097 80.809,-80.809c0,-44.711 -36.097,-80.809 -80.809,-80.809c44.711,0 80.809,-36.097 80.809,-80.809c0,-44.711 -36.097,-80.809 -80.809,-80.809c44.711,0 80.809,-36.097 80.809,-80.809c0,-44.711 -36.097,-80.809 -80.809,-80.809c-44.711,0 -80.809,36.097 -80.809,80.809Zm-161.617,0c0,44.711 36.097,80.809 80.809,80.809c-44.711,0 -80.809,36.097 -80.809,80.809c0,44.711 36.097,80.809 80.809,80.809c44.711,0 80.809,-36.097 80.809,-80.809c0,-44.711 -36.097,-80.809 -80.809,-80.809c44.711,0 80.809,-36.097 80.809,-80.809c0,-44.711 -36.097,-80.809 -80.809,-80.809c-44.711,0 -80.809,36.097 -80.809,80.809Zm1455.787,162.028c0,44.711 36.097,80.809 80.809,80.809c-44.711,0 -80.809,36.097 -80.809,80.809c0,44.711 36.097,80.809 80.809,80.809c-44.711,0 -80.809,36.097 -80.809,80.809c0,44.711 36.097,80.809 80.809,80.809c44.711,0 80.809,-36.097 80.809,-80.809c0,-44.711 -36.097,-80.809 -80.809,-80.809c44.711,0 80.809,-36.097 80.809,-80.809c0,-44.711 -36.097,-80.809 -80.809,-80.809c44.711,0 80.809,-36.097 80.809,-80.809c0,-44.711 -36.097,-80.809 -80.809,-80.809c-44.711,0 -80.809,36.097 -80.809,80.809Zm-808.907,0c0,44.711 36.097,80.809 80.809,80.809c44.711,0 80.809,-36.097 80.809,-80.809c0,-44.711 -36.097,-80.809 -80.809,-80.809c-44.711,0 -80.809,36.097 -80.809,80.809Zm-970.524,0c0,44.711 36.097,80.809 80.809,80.809c44.711,0 80.809,-36.097 80.809,-80.809c0,-44.711 -36.097,-80.809 -80.809,-80.809c-44.711,0 -80.809,36.097 -80.809,80.809Zm-323.235,0c0,44.711 36.097,80.809 80.809,80.809c-44.711,0 -80.809,36.097 -80.809,80.809c0,44.711 36.097,80.809 80.809,80.809c44.711,0 80.809,-36.097 80.809,-80.809c0,-44.711 -36.097,-80.809 -80.809,-80.809c44.711,0 80.809,-36.097 80.809,-80.809c0,-44.711 -36.097,-80.809 -80.809,-80.809c-44.711,0 -80.809,36.097 -80.809,80.809Zm-162.028,161.617c0,44.711 36.097,80.809 80.809,80.809c-44.711,0 -80.809,36.097 -80.809,80.809c0,44.711 36.097,80.809 80.809,80.809c-44.711,0 -80.809,36.097 -80.809,80.809c0,44.711 36.097,80.809 80.809,80.809c-44.711,0 -80.809,36.097 -80.809,80.809c0,44.711 36.097,80.809 80.809,80.809c-44.711,0 -80.809,36.097 -80.809,80.809c0,44.711 36.097,80.809 80.809,80.809c44.711,0 80.809,-36.097 80.809,-80.809c0,-44.711 -36.097,-80.809 -80.809,-80.809c44.711,0 80.809,-36.097 80.809,-80.809c0,-44.711 -36.097,-80.809 -80.809,-80.809c44.711,0 80.809,-36.097 80.809,-80.809c0,-44.711 -36.097,-80.809 -80.809,-80.809c44.711,0 80.809,-36.097 80.809,-80.809c0,-44.711 -36.097,-80.809 -80.809,-80.809c44.711,0 80.809,-36.097 80.809,-80.809c0,-44.711 -36.097,-80.809 -80.809,-80.809c-44.711,0 -80.809,36.097 -80.809,80.809Zm2103.076,161.617c0,44.711 36.097,80.809 80.809,80.809c-44.711,0 -80.809,36.097 -80.809,80.809c0,44.711 36.097,80.809 80.809,80.809c-44.711,0 -80.809,36.097 -80.809,80.809c0,44.711 36.097,80.809 80.809,80.809c-44.711,0 -80.809,36.097 -80.809,80.809c0,44.711 36.097,80.809 80.809,80.809c-44.711,0 -80.809,36.097 -80.809,80.809c0,44.711 36.097,80.809 80.809,80.809c44.711,0 80.809,-36.097 80.809,-80.809c0,-44.711 -36.097,-80.809 -80.809,-80.809c44.711,0 80.809,-36.097 80.809,-80.809c0,-44.711 -36.097,-80.809 -80.809,-80.809c44.711,0 80.809,-36.097 80.809,-80.809c0,-44.711 -36.097,-80.809 -80.809,-80.809c44.711,0 80.809,-36.097 80.809,-80.809c0,-44.711 -36.097,-80.809 -80.809,-80.809c44.711,0 80.809,-36.097 80.809,-80.809c0,-44.711 -36.097,-80.809 -80.809,-80.809c-44.711,0 -80.809,36.097 -80.809,80.809Zm-485.262,0c0,44.711 36.097,80.809 80.809,80.809c44.711,0 80.809,-36.097 80.809,-80.809c0,-44.711 -36.097,-80.809 -80.809,-80.809c-44.711,0 -80.809,36.097 -80.809,80.809Zm-162.028,0c0,44.711 36.097,80.809 80.809,80.809c44.711,0 80.809,-36.097 80.809,-80.809c0,-44.711 -36.097,-80.809 -80.809,-80.809c-44.711,0 -80.809,36.097 -80.809,80.809Zm-161.617,0c0,44.711 36.097,80.809 80.809,80.809c44.711,0 80.809,-36.097 80.809,-80.809c0,-44.711 -36.097,-80.809 -80.809,-80.809c-44.711,0 -80.809,36.097 -80.809,80.809Zm-485.262,0c0,44.711 36.097,80.809 80.809,80.809c-44.711,0 -80.809,36.097 -80.809,80.809c0,44.711 36.097,80.809 80.809,80.809c-44.711,0 -80.809,36.097 -80.809,80.809c0,44.711 36.097,80.809 80.809,80.809c-44.711,0 -80.809,36.097 -80.809,80.809c0,44.711 36.097,80.809 80.809,80.809c-44.711,0 -80.809,36.097 -80.809,80.809c0,44.711 36.097,80.809 80.809,80.809c44.711,0 80.809,-36.097 80.809,-80.809c0,-44.711 -36.097,-80.809 -80.809,-80.809c44.711,0 80.809,-36.097 80.809,-80.809c0,-44.711 -36.097,-80.809 -80.809,-80.809c44.711,0 80.809,-36.097 80.809,-80.809c0,-44.711 -36.097,-80.809 -80.809,-80.809c44.711,0 80.809,-36.097 80.809,-80.809c0,-44.711 -36.097,-80.809 -80.809,-80.809c44.711,0 80.809,-36.097 80.809,-80.809c0,-44.711 -36.097,-80.809 -80.809,-80.809c-44.711,0 -80.809,36.097 -80.809,80.809Zm-161.617,0c0,44.711 36.097,80.809 80.809,80.809c44.711,0 80.809,-36.097 80.809,-80.809c0,-44.711 -36.097,-80.809 -80.809,-80.809c-44.711,0 -80.809,36.097 -80.809,80.809Zm-808.907,0c0,44.711 36.097,80.809 80.809,80.809c-44.711,0 -80.809,36.097 -80.809,80.809c0,44.711 36.097,80.809 80.809,80.809c44.711,0 80.809,-36.097 80.809,-80.809c0,-44.711 -36.097,-80.809 -80.809,-80.809c44.711,0 80.809,-36.097 80.809,-80.809c0,-44.711 -36.097,-80.809 -80.809,-80.809c-44.711,0 -80.809,36.097 -80.809,80.809Zm2587.928,162.028c0,44.711 36.097,80.809 80.809,80.809c44.711,0 80.809,-36.097 80.809,-80.809c0,-44.711 -36.097,-80.809 -80.809,-80.809c-44.711,0 -80.809,36.097 -80.809,80.809Zm-1455.787,0c0,44.711 36.097,80.809 80.809,80.809c-44.711,0 -80.809,36.097 -80.809,80.809c0,44.711 36.097,80.809 80.809,80.809c44.711,0 80.809,-36.097 80.809,-80.809c0,-44.711 -36.097,-80.809 -80.809,-80.809c44.711,0 80.809,-36.097 80.809,-80.809c0,-44.711 -36.097,-80.809 -80.809,-80.809c-44.711,0 -80.809,36.097 -80.809,80.809Zm-646.88,0c0,44.711 36.097,80.809 80.809,80.809c-44.711,0 -80.809,36.097 -80.809,80.809c0,44.711 36.097,80.809 80.809,80.809c-44.711,0 -80.809,36.097 -80.809,80.809c0,44.711 36.097,80.809 80.809,80.809c-44.711,0 -80.809,36.097 -80.809,80.809c0,44.711 36.097,80.809 80.809,80.809c44.711,0 80.809,-36.097 80.809,-80.809c0,-44.711 -36.097,-80.809 -80.809,-80.809c44.711,0 80.809,-36.097 80.809,-80.809c0,-44.711 -36.097,-80.809 -80.809,-80.809c44.711,0 80.809,-36.097 80.809,-80.809c0,-44.711 -36.097,-80.809 -80.809,-80.809c44.711,0 80.809,-36.097 80.809,-80.809c0,-44.711 -36.097,-80.809 -80.809,-80.809c-44.711,0 -80.809,36.097 -80.809,80.809Zm-161.617,0c0,44.711 36.097,80.809 80.809,80.809c44.711,0 80.809,-36.097 80.809,-80.809c0,-44.711 -36.097,-80.809 -80.809,-80.809c-44.711,0 -80.809,36.097 -80.809,80.809Zm2102.666,161.617c0,44.711 36.097,80.809 80.809,80.809c-44.711,0 -80.809,36.097 -80.809,80.809c0,44.711 36.097,80.809 80.809,80.809c-44.711,0 -80.809,36.097 -80.809,80.809c0,44.711 36.097,80.809 80.809,80.809c44.711,0 80.809,-36.097 80.809,-80.809c0,-44.711 -36.097,-80.809 -80.809,-80.809c44.711,0 80.809,-36.097 80.809,-80.809c0,-44.711 -36.097,-80.809 -80.809,-80.809c44.711,0 80.809,-36.097 80.809,-80.809c0,-44.711 -36.097,-80.809 -80.809,-80.809c-44.711,0 -80.809,36.097 -80.809,80.809Zm-970.524,0c0,44.711 36.097,80.809 80.809,80.809c-44.711,0 -80.809,36.097 -80.809,80.809c0,44.711 36.097,80.809 80.809,80.809c44.711,0 80.809,-36.097 80.809,-80.809c0,-44.711 -36.097,-80.809 -80.809,-80.809c44.711,0 80.809,-36.097 80.809,-80.809c0,-44.711 -36.097,-80.809 -80.809,-80.809c-44.711,0 -80.809,36.097 -80.809,80.809Zm-161.617,0c0,44.711 36.097,80.809 80.809,80.809c-44.711,0 -80.809,36.097 -80.809,80.809c0,44.711 36.097,80.809 80.809,80.809c44.711,0 80.809,-36.097 80.809,-80.809c0,-44.711 -36.097,-80.809 -80.809,-80.809c44.711,0 80.809,-36.097 80.809,-80.809c0,-44.711 -36.097,-80.809 -80.809,-80.809c-44.711,0 -80.809,36.097 -80.809,80.809Zm808.497,161.617c0,44.711 36.097,80.809 80.809,80.809c-44.711,0 -80.809,36.097 -80.809,80.809c0,44.711 36.097,80.809 80.809,80.809c44.711,0 80.809,-36.097 80.809,-80.809c0,-44.711 -36.097,-80.809 -80.809,-80.809c44.711,0 80.809,-36.097 80.809,-80.809c0,-44.711 -36.097,-80.809 -80.809,-80.809c-44.711,0 -80.809,36.097 -80.809,80.809Zm-1293.759,0c0,44.711 36.097,80.809 80.809,80.809c44.711,0 80.809,-36.097 80.809,-80.809c0,-44.711 -36.097,-80.809 -80.809,-80.809c-44.711,0 -80.809,36.097 -80.809,80.809Zm-808.907,0c0,44.711 36.097,80.809 80.809,80.809c44.711,0 80.809,-36.097 80.809,-80.809c0,-44.711 -36.097,-80.809 -80.809,-80.809c-44.711,0 -80.809,36.097 -80.809,80.809Zm2587.928,162.028c0,44.711 36.097,80.809 80.809,80.809c44.711,0 80.809,-36.097 80.809,-80.809c0,-44.711 -36.097,-80.809 -80.809,-80.809c-44.711,0 -80.809,36.097 -80.809,80.809Zm-646.88,0c0,44.711 36.097,80.809 80.809,80.809c44.711,0 80.809,-36.097 80.809,-80.809c0,-44.711 -36.097,-80.809 -80.809,-80.809c-44.711,0 -80.809,36.097 -80.809,80.809Zm-323.645,0c0,44.711 36.097,80.809 80.809,80.809c44.711,0 80.809,-36.097 80.809,-80.809c0,-44.711 -36.097,-80.809 -80.809,-80.809c-44.711,0 -80.809,36.097 -80.809,80.809Zm-485.262,0c0,44.711 36.097,80.809 80.809,80.809c44.711,0 80.809,-36.097 80.809,-80.809c0,-44.711 -36.097,-80.809 -80.809,-80.809c-44.711,0 -80.809,36.097 -80.809,80.809Zm-485.262,0c0,44.711 36.097,80.809 80.809,80.809c44.711,0 80.809,-36.097 80.809,-80.809c0,-44.711 -36.097,-80.809 -80.809,-80.809c-44.711,0 -80.809,36.097 -80.809,80.809Zm-323.235,0c0,44.711 36.097,80.809 80.809,80.809c44.711,0 80.809,-36.097 80.809,-80.809c0,-44.711 -36.097,-80.809 -80.809,-80.809c-44.711,0 -80.809,36.097 -80.809,80.809Z"/></clipPath><g clip-path="url(#_clip1)"><rect x="-45.175" y="-45.175" width="4257.017" height="4257.017"/></g></g><g><clipPath id="_clip2"><path d="M623.035,56.964c-312.57,0 -566.071,253.911 -565.661,566.481c0,312.57 253.911,566.071 566.481,565.661c312.57,0 566.071,-253.911 565.661,-566.481c0,-312.159 -253.501,-565.661 -565.661,-565.661l-0.82,0Zm0,162.028c223.147,0 404.043,181.307 404.043,404.864c0,223.147 -181.307,404.043 -404.864,404.043c-223.147,0 -404.043,-181.307 -404.043,-404.864c0,-223.147 180.897,-403.633 404.043,-404.043l0.82,0Z"/></clipPath><g clip-path="url(#_clip2)"><rect x="56.964" y="56.964" width="1132.142" height="1132.142"/></g></g><g><clipPath id="_clip3"><circle cx="623.035" cy="623.035" r="242.836"/></clipPath><g clip-path="url(#_clip3)"><rect x="380.609" y="380.609" width="485.262" height="485.262"/></g></g><g><clipPath id="_clip4"><path d="M4101.089,623.035c0,-312.57 -253.911,-566.071 -566.481,-565.661c-312.57,0 -566.071,253.911 -565.661,566.481c0,312.57 253.911,566.071 566.481,565.661c312.159,0 565.661,-253.501 565.661,-565.661l0,-0.82Zm-162.028,0c0,223.147 -181.307,404.043 -404.864,404.043c-223.147,0 -404.043,-181.307 -404.043,-404.864c0,-223.147 181.307,-404.043 404.864,-404.043c223.147,0 403.633,180.897 404.043,404.043l0,0.82Z"/></clipPath><g clip-path="url(#_clip4)"><rect x="2968.537" y="56.964" width="1132.142" height="1132.142"/></g></g><g><clipPath id="_clip5"><circle cx="3535.018" cy="623.035" r="242.836"/></clipPath><g clip-path="url(#_clip5)"><rect x="3292.182" y="380.609" width="485.262" height="485.262"/></g></g><g><clipPath id="_clip6"><path d="M56.964,3535.018c0,312.57 253.911,566.071 566.481,565.661c312.57,0 566.071,-253.911 565.661,-566.481c0,-312.57 -253.911,-566.071 -566.481,-565.661c-312.159,0 -565.661,253.501 -565.661,565.661l0,0.82Zm161.617,0c0,-223.147 181.307,-404.043 404.864,-404.043c223.147,0 404.043,181.307 404.043,404.864c0,223.147 -181.307,404.043 -404.864,404.043c-223.147,0 -403.633,-180.897 -404.043,-404.043l0,-0.82Z"/></clipPath><g clip-path="url(#_clip6)"><rect x="56.964" y="2968.537" width="1132.142" height="1132.142"/></g></g><g><clipPath id="_clip7"><circle cx="623.035" cy="3535.018" r="242.836"/></clipPath><g clip-path="url(#_clip7)"><rect x="380.609" y="3292.182" width="485.262" height="485.262"/></g></g></g></svg>