<svg width="194" height="96" viewBox="0 0 194 96" fill="none" xmlns="http://www.w3.org/2000/svg">
<g clip-path="url(#clip0_508_8008)">
<path d="M0.330457 39.3782H0.472086C0.251774 41.6184 0.110145 44.0007 1.88837 44.0007C3.25745 44.0007 5.28746 41.6658 5.28746 40.4668C5.28746 39.8042 4.658 39.3782 3.25745 38.7945C0.393403 37.6112 -0.0157471 35.5603 -0.0157471 33.6671C-0.0157471 32.1526 0.31472 30.8589 0.550768 29.8176L5.25599 34.3613C5.16157 35.4341 4.53211 36.1282 3.58792 36.6173L3.52497 36.5857C4.90979 34.7399 3.00567 32.0421 1.57364 32.0421C0.834026 32.0421 0.393403 32.7521 0.393403 33.6671C0.393403 35.8285 2.15589 37.059 3.9656 37.7374C5.61793 38.3843 6.90833 38.5894 6.90833 39.5517C6.90833 40.735 1.62085 45.531 0.550768 46.5723C-0.173112 44.4267 -1.05273e-05 41.934 0.31472 39.3782H0.330457ZM3.16303 44.6318L3.22598 44.6791C1.5107 46.8247 2.34473 47.2191 4.62653 47.2191C5.69662 47.2191 6.4205 46.9036 7.20732 46.6512C7.55353 46.5092 7.45911 46.4618 7.52205 45.2628C7.53779 44.7738 7.56926 44.616 7.2388 44.3793L7.14438 44.3005C6.75096 44.1111 6.79817 44.19 6.75096 44.5529C6.71949 44.9631 6.97127 45.4048 6.75096 45.4048C6.57786 45.4048 6.65654 44.9631 6.67228 44.6949C6.68802 44.3793 6.75096 44.1742 6.45197 43.6221L6.37329 43.4801C6.1215 42.9752 6.13724 42.3915 6.48344 41.7131C6.92406 40.8612 7.99415 39.0784 9.36323 39.0784C11.2673 39.0784 11.3146 41.2871 10.449 43.5116L10.3704 43.4801C11.0313 41.8235 10.7008 40.3406 9.5678 40.0092C8.93834 39.8515 8.84392 39.9304 8.93834 40.8139C8.96981 41.1767 9.01702 41.65 8.79671 41.65C8.62361 41.65 8.68656 41.1609 8.76524 40.7665C8.8754 40.1355 8.79671 39.9146 8.37183 40.0408C7.20732 40.4352 6.21592 41.7604 7.31748 43.5905C8.71803 45.9097 10.811 44.1111 13.4075 44.1111C17.5934 44.1111 18.3803 49.2069 13.7065 47.6451C12.3846 47.2033 11.4719 46.5565 10.1815 46.5565C8.45051 46.5565 7.04996 48.0079 5.1301 48.0079C2.56504 48.0079 0.928445 47.0456 3.1473 44.6318H3.16303ZM7.69516 33.6355C5.69662 32.6574 2.31326 30.9378 2.329 30.0701C2.34473 28.8868 6.84538 28.5082 9.34749 28.5082C11.7237 28.5082 12.7938 28.871 14.3517 29.0761C15.1071 29.1708 16.7594 29.4074 17.798 29.0761C16.6335 30.1805 15.0441 31.8212 14.3989 32.3576C14.0685 32.6258 13.8167 32.7205 13.4862 32.7205C13.077 32.7205 12.7938 32.4365 12.7938 32.0579C12.7938 31.6477 13.0456 31.3637 13.4862 31.3637C13.8796 31.3637 14.1471 31.7581 14.4933 31.4268C13.7222 29.8019 11.1887 29.2181 9.30028 29.2181C7.63221 29.2181 5.61793 29.3601 5.6022 30.638C5.58646 32.7678 12.6364 33.5093 11.6922 35.7654C11.2831 36.7435 9.26881 37.3588 8.19872 36.8224C6.97127 36.1913 7.30174 34.3613 7.71089 33.6513L7.69516 33.6355ZM15.9096 45.4048C15.5634 44.8526 15.5005 45.0262 15.5477 45.5468L15.6106 46.0674C15.6264 46.2252 15.6264 46.3356 15.5319 46.3356C15.3903 46.3356 15.5162 45.7519 15.5162 45.4837C15.5005 45.1366 15.4061 44.8053 15.0913 44.758H14.9812C15.6421 44.4424 15.7995 45.1839 15.9568 45.4364V45.4048C15.7365 45.0577 15.469 44.7738 15.1071 44.758H15.0756C14.5248 44.758 13.6121 45.1682 12.1801 45.2313C10.5907 45.2944 9.20586 45.1366 8.19872 44.7895C7.72663 44.6475 7.61647 44.7895 7.61647 45.2786C7.61647 45.8308 7.45911 46.4618 8.04136 46.4303C8.43477 46.3514 8.85966 46.2883 9.36323 46.2883C12.2273 46.2883 14.3832 47.4715 15.3116 47.4715C16.2401 47.4715 16.3345 46.2094 15.9568 45.4048H15.9096ZM9.63075 35.2132C9.7409 34.803 9.45765 34.4875 9.0485 34.2982C8.93834 34.235 8.65508 34.1088 8.26167 33.9195C7.91547 34.519 8.2302 35.371 8.73377 35.5761C9.31602 35.8285 9.55207 35.4656 9.63075 35.1974V35.2132ZM13.2502 39.9935C13.2502 39.4255 13.439 38.9207 13.9111 38.5736L15.0441 38.8891C14.1629 39.3309 13.8796 39.9777 13.8796 40.735C13.8796 42.8963 15.9726 44.8526 17.3889 44.8526C18.4904 44.8526 18.8838 43.8429 18.8838 42.7544C18.8838 40.7192 16.4132 37.6428 15.5949 35.3394C14.2888 36.0651 12.4791 37.0117 10.0084 38.4L9.94548 38.2581C12.4319 36.9959 14.2258 35.9547 15.5162 35.1185C15.4061 34.7241 15.3431 34.377 15.3431 34.0615C15.3431 32.7521 17.1056 30.1963 18.1442 30.1963C18.7737 30.1963 18.9153 31.1586 18.9153 31.8212C18.9153 33.1938 18.4117 33.746 15.9411 35.1343C16.7594 37.201 19.0727 39.4571 19.0727 41.9971C19.0727 43.5116 18.7422 45.4995 17.5148 45.4995C16.2873 45.4995 13.2502 42.218 13.2502 39.9777V39.9935ZM18.7737 31.5057C18.7737 31.1271 18.5376 30.8431 18.1285 30.8431C16.9797 30.8431 15.5949 32.3892 15.6421 33.9037C15.6421 34.235 15.7208 34.5664 15.8309 34.8977C18.3331 33.1938 18.7737 32.263 18.7737 31.5057ZM15.9254 45.4521V45.4837C15.9254 45.4837 15.9254 45.4679 15.9254 45.4521Z" fill="black"/>
<path d="M20.3158 37.1852C19.7651 37.0906 19.2772 36.7593 19.2772 36.0178C19.2772 35.4498 19.7651 35.0239 20.6778 34.9608C20.9453 33.3673 21.1813 31.979 21.2758 31.064H21.4331C21.2915 32.3892 21.1813 33.7144 21.0712 34.9608H25.0997V35.229H21.0555C20.5834 40.3405 20.3945 44.3951 21.2915 44.3951C22.5189 44.3951 25.0997 39.3466 28.2313 38.1792L28.2628 38.3369C25.1155 39.6306 21.323 46.7458 19.8752 46.7458C18.8366 46.7458 19.5605 41.7604 20.3001 37.1852H20.3158ZM19.4818 35.8758C19.4818 36.286 20.0011 36.4437 20.4575 36.4595L20.6463 35.2132C19.7965 35.2763 19.4818 35.4814 19.4818 35.8758ZM19.5605 47.7871L19.6549 47.6924C19.9696 47.7871 20.2529 47.8659 20.5047 47.8659C22.5032 47.8659 22.9753 46.8405 24.4388 45.3732C25.2414 44.5686 26.1384 43.7483 26.7521 42.7386C26.9252 42.3915 27.2399 42.0129 27.6333 41.2556C27.2084 41.1136 26.6577 41.082 25.8394 41.3187L25.918 41.2398C27.3343 40.8927 27.476 40.593 27.9008 40.735C28.1998 40.1512 28.4988 39.394 28.8608 38.3685L29.0024 38.5105C28.5775 39.5202 28.247 40.2301 28.011 40.7507C28.9709 41.1136 29.805 42.6281 31.7878 41.3187L31.8822 41.3976C29.2384 42.707 28.8136 41.7131 27.7592 41.3029C27.0983 42.5966 27.3501 42.565 27.7749 44.9315C28.3729 48.2603 31.5832 47.6451 33.6132 47.5031C35.6432 47.3611 35.7062 47.6135 35.895 47.8186L35.7376 47.8659C35.4072 47.6293 34.5259 47.44 33.031 47.7239C31.536 48.0237 27.6648 48.5759 27.0196 45.957C26.6419 44.4109 26.516 43.7325 26.6104 43.2434C25.3043 44.6633 25.3201 45.1682 25.0997 45.7519C24.9266 46.2567 24.9581 46.3356 25.0211 46.9193C25.0368 47.2191 25.084 47.5662 24.9266 47.5662C24.785 47.5662 24.8322 47.2191 24.8952 46.9036C24.9896 46.3514 24.9896 46.0832 24.6749 46.446C23.5418 47.9448 22.7865 47.9448 21.1184 48.0079C20.5991 48.0237 20.0168 47.8975 19.5762 47.7871H19.5605ZM28.6405 37.5954L28.0425 36.9959C28.0425 36.9959 27.9638 36.8855 27.9638 36.8224V29.9912C27.9638 29.8334 27.8222 29.6914 27.6648 29.6914H22.6606C22.2514 29.6914 22.0783 30.1174 22.3773 30.4171L25.4302 33.4778C25.7135 33.7775 26.1541 33.5882 26.1541 33.178V31.2533C26.1541 31.0955 26.0125 30.9535 25.8551 30.9535H25.4459C25.0211 30.9535 24.785 31.3479 25.0368 31.5846L25.6348 32.1525C25.6348 32.1525 25.7135 32.263 25.7135 32.3261C25.7135 32.5943 25.3043 32.6258 25.0211 32.3419L23.6048 31.0009C23.29 30.7011 23.4946 30.2594 23.9038 30.2594H26.9566C27.114 30.2594 27.2556 30.4013 27.2556 30.5591V35.1816C27.2556 35.5918 26.8308 35.7654 26.5318 35.4814L20.5991 29.5336C20.3001 29.2339 20.4889 28.8079 20.8981 28.8079H36.8392C37.2483 28.8079 37.4214 29.2339 37.1382 29.5336L31.2055 35.4814C30.9065 35.7811 30.4816 35.5918 30.4816 35.1816V30.5591C30.4816 30.4013 30.6233 30.2594 30.7649 30.2594H33.8178C34.2269 30.2594 34.4158 30.7011 34.1168 31.0009L32.7005 32.3419C32.4172 32.6101 32.0081 32.5943 32.0081 32.3261C32.0081 32.263 32.0238 32.2156 32.0868 32.1525L32.6847 31.5846C32.9365 31.3479 32.7005 30.9535 32.2756 30.9535H31.8664C31.7091 30.9535 31.5675 31.0955 31.5675 31.2533V33.178C31.5675 33.5882 31.9923 33.7617 32.2913 33.4778L35.3442 30.4171C35.6275 30.1174 35.4544 29.6914 35.0452 29.6914H30.041C29.8836 29.6914 29.742 29.8334 29.742 29.9912V36.8224C29.742 36.8224 29.7105 36.9644 29.6633 36.9959L29.0653 37.5954C29.0653 37.5954 28.9237 37.6901 28.845 37.6901C28.7664 37.6901 28.6877 37.6585 28.6247 37.5954H28.6405ZM29.3643 42.991C29.4273 42.6281 29.4745 42.4073 29.3801 42.1864C29.2857 41.9497 28.9867 41.9971 28.4201 41.6342C28.6562 41.65 30.1354 41.9497 30.6233 41.8866C29.9151 42.0602 29.6319 42.1391 29.5374 42.3599C29.4588 42.5019 29.4745 42.6912 29.5374 43.0068C29.5532 43.1172 29.5532 43.3539 29.4588 43.3539C29.3486 43.3539 29.3486 43.1803 29.3643 42.9752V42.991ZM31.7091 39.0311C31.7091 38.3369 32.7162 37.059 34.5889 36.6173C33.2985 36.6173 32.3071 36.6331 31.8507 36.6804C31.2685 37.1221 30.875 37.343 30.639 37.201C30.4659 37.1064 30.4187 36.9486 30.5446 36.7751C30.6547 36.5857 30.8121 36.5857 31.6619 36.5384C34.2899 34.7714 37.2011 31.7739 37.3742 30.1174L38.3027 30.3856C37.9408 31.8055 34.7777 34.661 31.9609 36.5069C32.4802 36.4911 35.1711 36.428 38.4601 36.4437C38.5702 36.4437 38.5545 36.8224 38.4443 36.7908C37.5159 36.6962 36.6818 36.6173 35.8321 36.6015C33.6919 36.5384 32.37 38.1792 32.37 39.0153C32.37 41.4133 34.4315 44.3636 36.5559 44.3636C37.5473 44.3636 38.2083 44.1427 38.1925 42.4388C38.1768 41.2083 37.1539 40.5614 36.1468 42.0286L35.5803 41.5238C36.0838 39.9304 38.224 40.4668 38.287 42.4388C38.3499 44.5213 37.7047 45.0262 36.7762 45.0262C35.5331 45.0262 31.7248 41.4922 31.7248 39.0153L31.7091 39.0311Z" fill="black"/>
<path d="M39.8134 30.2436L40.0652 30.3224C39.4672 33.6355 38.3656 43.7798 40.8048 43.7798C42.2683 43.7798 44.1252 38.968 43.9364 34.7872L44.377 34.6294C44.5658 37.2168 44.9278 39.3624 45.6831 39.3624C46.108 39.3624 46.6116 38.7155 47.4456 37.6901L47.8076 38.0214L44.6917 41.4764L44.6602 41.4449C45.1638 40.3563 45.1638 39.2204 44.7547 39.2204C43.5272 39.2204 42.2998 45.7519 40.1596 45.7519C37.8306 45.7519 38.7433 36.5542 39.7977 30.2436H39.8134ZM41.4343 46.162C41.4343 45.1366 42.7561 43.7009 45.9664 42.2021C47.4141 41.5395 49.6487 40.8296 47.9649 40.8296C47.6187 40.8296 46.4699 40.9873 45.6044 41.8866H45.4628C46.4542 40.8138 47.7446 40.5929 48.201 40.5929C49.3812 40.5929 48.3898 41.5869 46.5644 42.4703C45.0694 43.3223 45.0851 43.2907 45.2268 44.4424C45.2425 44.5528 45.2425 44.7895 45.1481 44.7895C45.0379 44.7895 45.0379 44.6159 45.0537 44.4266C45.1638 43.3538 45.1638 43.2118 44.4242 43.7009C43.1181 44.6159 42.5358 45.4679 42.5358 46.1778C42.5358 47.156 43.6846 47.8028 45.573 47.8028C47.005 47.8028 48.8934 47.4084 51.0335 46.5091C52.1823 46.0201 52.9219 45.4048 52.9219 44.474C52.9219 43.3538 51.8204 41.7762 48.9878 39.4255L49.0507 39.3308C52.4184 42.2968 53.6773 43.8902 53.6773 44.8999C53.6773 44.9788 53.6773 45.0577 53.6615 45.1366C53.5042 46.0516 53.5042 46.3198 53.6458 46.3671C53.8766 46.4408 54.0497 46.8615 54.1651 47.6293C54.2438 48.071 53.8189 48.1026 53.8661 47.6293C53.9763 46.7773 53.8976 46.6511 53.7717 46.6511C53.6773 46.6511 53.4255 46.8089 53.394 46.4776C53.3783 46.3356 53.394 46.0043 53.457 45.5152C53.0636 46.0674 52.1351 46.3987 50.9234 46.8247C48.7045 47.6135 46.706 47.9448 45.1009 47.9448C42.8033 47.9448 41.387 47.2348 41.387 46.1463L41.4343 46.162ZM45.0222 33.1307C43.8577 31.695 43.7161 30.07 43.7161 29.3443C43.7161 29.644 43.7947 30.0858 43.9364 30.6537C44.2354 31.8054 45.3054 33.2411 47.6187 33.2411C48.799 33.2411 49.6802 33.0675 50.2467 32.7362C51.3955 32.0578 51.5056 31.2532 51.5056 30.3224V28.7606H53.095C53.095 29.7229 53.1737 30.4013 53.3311 30.8115C53.4727 31.2217 53.6773 31.4426 53.9605 31.4426C54.1808 31.4426 54.4012 31.3479 54.6844 31.1744C54.9519 31.0008 55.3139 30.7326 55.7545 30.354L56.085 30.0858L52.796 33.4935C52.4184 33.8721 52.198 34.0457 52.0722 34.0457C51.9935 34.0457 51.962 33.951 51.962 33.7617C51.962 33.1149 51.962 32.8309 51.5056 32.6889V31.3164C51.5056 31.5372 51.427 31.8685 51.2853 32.2945C50.9863 33.178 49.9162 34.2508 47.603 34.2508C46.4542 34.2508 45.573 33.8879 45.0222 33.1622V33.1307ZM51.364 38.7155C51.364 37.5638 52.0407 36.633 52.6859 35.8915C52.0407 36.3806 49.7904 37.6585 49.0822 38.0529L49.0035 37.8794C49.7904 37.5165 52.1351 36.1282 52.859 35.6391C53.1265 34.9607 53.3625 34.5821 53.6458 34.5821C53.8346 34.5821 53.9291 34.6925 53.9291 34.8976C53.9291 35.15 53.7717 35.2131 52.8747 35.7969C52.1351 36.9801 52.0249 37.9583 52.0249 39.1888C52.0249 41.9655 54.8103 44.8368 56.2109 44.8368C57.6901 44.8368 58.3825 44.1584 57.2809 39.2046C56.5099 35.718 56.1322 31.3637 56.9662 29.8807L57.816 30.354C56.6358 31.8054 56.7302 35.8915 57.4068 39.1731C58.4612 44.2215 57.7373 45.5152 56.4154 45.5152C55.1722 45.5152 51.364 41.1924 51.364 38.7313V38.7155Z" fill="black"/>
<path d="M58.1465 40.5299C58.1465 38.9365 58.6658 35.4341 60.7588 35.4341C61.404 35.4341 62.175 35.7338 62.6314 36.0809C61.2623 33.8564 59.311 32.3577 58.2724 34.0931L58.2094 34.1877L58.0678 34.1246C59.0749 32.1526 59.248 30.5591 58.4927 29.3917L58.6815 29.3286C60.9633 31.7581 63.3868 34.7084 64.866 39.8357L66.6285 37.5008L67.2737 38.0845L63.7487 41.9498L63.6858 41.9024L63.733 41.8393C64.1578 41.1767 64.1736 40.1828 63.9061 39.0942C61.5456 41.9182 61.404 45.6888 59.7674 45.6888C58.7602 45.6888 58.1308 42.7859 58.1308 40.5141L58.1465 40.5299ZM63.8589 38.8891C63.7644 38.5105 63.6385 38.1634 63.4812 37.8005C62.3796 36.144 61.2781 35.8285 60.7588 35.8285C58.8861 35.8285 58.6815 38.7471 58.6815 40.4352C58.6815 42.1233 59.1694 43.6063 59.9405 43.6063C61.0105 43.6063 62.3639 40.4352 63.8431 38.8891H63.8589ZM64.1893 33.1623C64.331 33.0045 64.4096 32.8467 64.4096 32.6732C64.4096 32.4523 64.268 32.1841 63.9847 31.8686C63.8431 31.695 63.7644 31.6004 63.7644 31.5373C63.7644 31.4268 64.0005 31.3637 64.4726 31.3637H69.0047L69.7443 32.0263C69.823 31.9159 69.8545 31.7897 69.8545 31.695C69.8545 31.5531 69.8073 31.4268 69.7601 31.2691C69.6971 31.0955 69.6814 30.9535 69.6814 30.8747C69.6814 30.7011 69.7915 30.5434 70.0118 30.4014C70.2322 30.2594 70.5941 30.1489 71.1449 30.0543C71.617 29.9754 71.9632 29.8807 72.1992 29.7861C72.4353 29.6914 72.5454 29.5968 72.5454 29.4863C72.5454 29.3443 72.3566 29.2339 71.9474 29.1392C71.5383 29.0446 71.0347 28.9973 70.4367 28.9973H67.7772C66.7858 28.9815 66.0148 29.013 65.4482 29.0919C64.866 29.1866 64.567 29.3443 64.567 29.5968C64.567 29.7703 64.7244 29.9754 65.0391 30.1805H60.5542C60.6329 30.0858 60.8532 29.9596 60.9004 29.9438C61.1994 29.7861 61.3253 29.6914 61.3253 29.4706C61.3253 29.439 61.3095 29.3759 61.2938 29.297C61.1994 29.0446 61.9233 28.871 63.4497 28.7764C64.9604 28.6817 67.2422 28.6344 70.2951 28.6344H71.4124C72.7972 28.6344 73.7886 28.6344 74.4023 28.6502C75.5826 28.666 76.1963 28.7922 76.1963 29.013C76.1963 29.0761 76.1334 29.1708 76.0389 29.3128C75.5668 29.6756 74.9059 29.9123 73.8988 30.1647C73.3322 30.3225 72.8602 30.4645 72.5297 30.5907C71.8215 30.8431 71.3022 31.3322 71.3022 32.0579C71.3022 32.4208 71.4124 32.8625 71.6484 33.32L71.1606 33.8091L68.9418 31.7424L70.6885 34.3139L67.9346 37.1222L64.2208 33.1307L64.1893 33.1623ZM73.5053 47.0298C72.7657 46.1779 70.9403 44.8842 70.0433 44.2847C74.9688 48.3708 61.4197 49.4909 61.4197 45.2944C61.4197 43.9061 63.9533 42.9595 65.8889 42.9595C68.6585 42.9595 71.6327 44.2689 73.6155 46.6985H73.647C73.0175 45.4679 72.687 44.2847 71.5698 43.7956C68.9575 42.6597 68.3752 42.2811 68.3752 40.1512C68.3752 39.6937 68.2336 39.4098 68.0448 39.2362C67.5255 38.8891 67.5727 39.7253 67.6514 40.2301C67.6671 40.3406 67.6671 40.5772 67.5727 40.5772C67.4625 40.5772 67.4625 40.4037 67.4783 40.1986C67.494 40.0566 67.5569 39.9304 67.5412 39.6306C67.5097 39.1573 67.3681 39.0469 66.9589 39.3466C66.7858 39.4571 66.5813 39.6622 66.4396 39.8988H66.3924C66.8016 39.0942 67.2265 38.7471 67.7772 38.7471C68.4854 38.7471 68.5483 39.3782 68.6742 40.2301C68.9418 42.2337 69.4925 42.2337 71.3652 42.6597C71.8373 42.7701 72.2779 42.9752 72.75 43.3381C73.8673 44.2216 73.584 45.5941 74.0089 46.6354C74.481 47.7397 75.4567 48.0079 76.9517 47.5346L77.0461 47.6293C75.9445 47.9922 74.7643 48.4812 73.5053 47.0298ZM69.7128 44.0796C68.3438 43.2592 66.6442 42.9279 65.2594 43.0699C64.9132 43.1488 64.866 43.3381 64.9919 44.2531C65.0548 44.6949 65.102 45.2628 64.8345 45.2628C64.6142 45.2628 64.6772 44.6791 64.7716 44.19C64.9289 43.4485 64.9132 43.133 64.4568 43.2119C63.2766 43.559 62.5527 44.3636 62.8832 45.6099C63.9847 49.6803 72.9703 47.4084 69.7128 44.0638V44.0796ZM69.5712 35.0397L67.2894 31.7424H65.3066L68.7687 35.8758L69.5712 35.0397ZM70.3108 38.9207C70.1692 36.7751 73.9617 36.7909 77.0775 38.1161C76.7628 35.371 75.913 32.6574 74.7013 31.8055L75.4095 31.1271C76.6212 32.3419 77.3608 36.6646 77.3608 40.2459C77.3608 43.0699 76.8572 45.4837 75.8029 45.4837C74.3866 45.4837 70.3895 40.7823 70.3108 38.9049V38.9207ZM77.2034 40.2459C77.2034 39.5833 77.1405 38.9049 77.0933 38.2423C74.1191 36.9959 70.9246 37.2799 70.9246 39.5833C70.9246 41.5554 74.2292 44.8526 75.7557 44.8526C76.6841 44.8526 77.2506 43.1803 77.2192 40.2459H77.2034Z" fill="black"/>
<path d="M77.6913 37.8952V37.8636L80.8071 36.0967L80.8386 36.1282C79.501 38.3054 78.8873 40.593 78.8873 41.9813C78.8873 43.0225 79.2177 43.4643 79.8472 43.4643C80.2091 43.4643 80.6812 43.2119 81.4208 42.4861C82.8057 41.1609 84.7255 38.9995 86.3936 37.7532L86.6454 38.3054C83.4194 40.4036 80.2249 44.2847 78.3837 46.5407C76.6369 46.5407 79.4695 39.9461 77.6913 37.9267V37.8952ZM78.4939 32.7678C78.4939 31.5846 78.7928 30.6064 79.1548 30.6064C79.5167 30.6064 79.8157 31.5846 79.8157 32.7678C79.8157 33.9511 79.5167 34.945 79.1548 34.945C78.7928 34.945 78.4939 33.9668 78.4939 32.7678ZM85.7169 36.6488C85.6225 36.6173 85.5753 36.5542 85.5596 36.4753C85.5123 36.4122 85.4966 36.3333 85.4966 36.286C85.4966 36.0336 85.6068 35.8758 85.8271 35.7811C85.89 35.718 85.9372 35.6391 85.9687 35.5445L86.0316 35.2763C86.0789 35.1343 86.1103 34.9292 86.1733 34.6294L86.3149 34.0299C86.3306 33.9353 86.3464 33.8564 86.3306 33.8091C86.3149 33.7302 86.2992 33.6513 86.2992 33.5566V33.2411C86.2048 33.32 86.189 33.3989 86.2047 33.4778C86.2205 33.4935 86.2048 33.5409 86.189 33.5882C85.1504 33.2253 84.4737 32.9887 84.1118 32.8467C83.7341 32.7363 83.5453 32.6732 83.5295 32.6732C83.5295 32.8309 83.5295 32.9414 83.5453 33.0045C83.5453 33.0676 83.5453 33.1149 83.5295 33.1622C83.5138 33.1938 83.5138 33.2411 83.4981 33.2727C83.4351 33.4147 83.262 33.4462 83.2463 33.4462C83.2305 33.4462 83.2148 33.4462 83.1833 33.4304C83.1676 33.4147 83.1204 33.4147 83.0889 33.4147H82.8529C82.6955 33.4304 82.5224 33.3516 82.5067 33.1938C82.4909 33.178 82.4752 33.1622 82.4752 33.1622V32.9098C82.4752 32.9098 82.5381 32.8467 82.5381 32.8309C82.5539 32.7994 82.5696 32.7363 82.6326 32.6574L82.8529 32.4207V32.3419C82.8529 32.3419 82.9001 32.2314 82.963 32.1999C82.9788 32.1999 83.0102 32.1841 83.026 32.1368C83.0417 32.121 83.1047 32.1052 83.1991 32.1052C83.3722 32.1052 83.8443 32.1683 84.5682 32.2945C85.2291 32.4365 85.6854 32.5154 85.9372 32.5154C86.0159 32.5154 86.0789 32.4996 86.0946 32.4838C86.3149 32.2156 86.551 32.0421 86.8342 31.9317L86.9444 31.8686C86.9444 31.9632 87.086 32.0579 87.2591 32.0579C87.4165 32.0579 87.5581 31.9632 87.5581 31.8686L87.6525 31.9317C87.6525 31.9317 87.7469 31.979 87.8099 31.9948C87.8728 32.0421 87.92 32.0579 87.983 32.0737C87.9987 32.0894 88.0459 32.1052 88.0617 32.1052C88.1561 32.1841 88.282 32.3261 88.4236 32.4996C88.4865 32.5627 88.9744 32.3892 89.8871 31.979C90.2176 31.8212 90.548 31.6792 90.847 31.5688C91.1303 31.4584 91.3191 31.411 91.3349 31.4741L91.4135 31.5688C91.4135 31.5688 91.4922 31.6319 91.508 31.7108V31.7739L91.5237 31.8212C91.807 32.121 92.0273 32.3103 92.1217 32.4207C92.2161 32.5312 92.2791 32.6574 92.2948 32.752L92.3263 32.7836C92.3263 32.7836 92.3105 32.894 92.3105 33.0045C92.2948 33.0202 92.2476 33.0676 92.2476 33.0834C92.1846 33.1622 92.1374 33.1938 92.1059 33.1938C92.0273 33.2569 91.9171 33.2727 91.7755 33.2569C91.7597 33.2569 91.7283 33.2411 91.6811 33.2253C91.6339 33.2096 91.5866 33.2253 91.5394 33.2411C91.5237 33.2569 91.508 33.2569 91.4608 33.2569C91.3506 33.2253 91.2877 33.1622 91.2719 33.0676C91.209 32.9098 91.209 32.7994 91.2247 32.7205V32.4838C91.2247 32.4838 91.2247 32.4523 91.209 32.405C91.1932 32.3892 90.548 32.6416 89.2576 33.1307L88.219 33.5251V33.462C88.219 33.462 88.2033 33.3516 88.1403 33.2411H88.1246C88.1246 33.2411 88.0617 33.3516 88.0617 33.4147C88.0617 33.4778 88.0774 33.5251 88.0931 33.604C88.1089 33.6829 88.1089 33.746 88.0931 33.7933C88.0774 33.8091 88.0774 33.8722 88.0774 33.9511L88.2505 34.7241C88.3292 35.1027 88.3921 35.3236 88.4079 35.4656C88.4236 35.4814 88.4393 35.5445 88.4708 35.6076C88.4866 35.6865 88.5023 35.7496 88.5652 35.7811C88.581 35.7969 88.6282 35.7969 88.6439 35.8127C88.6597 35.8285 88.7069 35.8442 88.7226 35.8758C88.817 35.9547 88.88 36.0493 88.8957 36.1755V36.286C88.8957 36.286 88.8957 36.428 88.8328 36.4753V36.5069C88.8328 36.5069 88.7698 36.6015 88.6911 36.6173H88.6754L88.0931 36.6331L87.8414 36.4911H87.7941C87.7941 36.4911 87.6525 36.4753 87.621 36.428C87.6053 36.3964 87.5581 36.3333 87.5424 36.2544C87.5266 36.1755 87.5109 36.1124 87.5266 36.0809C87.5266 35.9862 87.5266 35.8916 87.5424 35.8285V35.7654C87.5109 35.6076 87.4794 35.4972 87.4794 35.434C87.4637 35.3236 87.4165 35.1659 87.4007 34.9923C87.385 34.8819 87.3693 34.7241 87.3063 34.5032C87.3063 34.4559 87.2906 34.3928 87.2748 34.2824C87.2748 34.2824 87.2696 34.2771 87.2591 34.2666H87.1647C87.1647 34.2666 87.1175 34.3612 87.1175 34.377C87.1017 34.4559 87.0545 34.5979 87.0388 34.803C87.0073 34.9608 86.9601 35.229 86.8972 35.6391C86.8814 35.7811 86.8814 35.86 86.8972 35.9073C86.8972 35.9231 86.8972 35.9547 86.8814 35.9704V36.0493C86.8814 36.0493 86.8814 36.1598 86.8657 36.2702L86.787 36.428C86.787 36.428 86.6296 36.5069 86.5667 36.4911L86.3306 36.6331H85.7327L85.7169 36.6488ZM85.2291 44.8842C85.953 43.0541 87.7155 43.4958 88.5023 42.3757C88.8328 41.9024 88.518 41.4922 88.0931 41.0663C88.0774 41.0505 88.0617 41.0347 88.0302 41.0032L87.8099 40.7823C87.3693 40.4194 87.385 40.7192 87.4637 41.7131C87.4794 41.9024 87.4794 42.076 87.3693 42.076C87.2748 42.076 87.2748 41.8393 87.2906 41.7289C87.3535 41.3818 87.4794 40.7507 86.9758 39.9146C86.7555 39.6148 86.6454 39.3151 86.6611 38.9838L86.7241 38.9364C86.6926 40.2617 89.5881 40.593 89.0845 41.7762C88.8957 42.2495 88.3921 42.6124 87.8571 43.0383C87.5424 43.3854 87.5109 43.764 87.6053 44.5213C87.6682 44.9631 87.7155 45.531 87.4479 45.531C87.2276 45.531 87.2906 44.9631 87.385 44.4582C87.5424 43.6378 87.5266 43.3065 87.0545 43.8271C86.6611 44.3004 86.3779 44.8999 86.3936 45.7203C86.4251 47.1087 86.9758 47.6766 87.9515 47.6766C88.581 47.6766 89.7455 47.4557 91.0673 46.6196V46.73C89.6983 47.5504 88.3764 47.9606 87.4479 47.9606C85.6382 47.9606 84.4265 46.872 85.2291 44.8368V44.8842ZM86.8814 30.8431V30.78C86.8814 30.78 86.8499 30.7011 86.8185 30.6853H86.7555C86.7555 30.6853 86.6611 30.6538 86.6454 30.5433C86.6611 30.5276 86.6611 30.496 86.6611 30.4802C86.6611 30.4171 86.6454 30.3856 86.5824 30.3225L86.5195 30.2436C86.5195 30.2436 86.488 30.1805 86.4408 30.1647H86.3779C86.2834 30.0858 86.2048 29.9754 86.1418 29.8334C86.1261 29.7545 86.1103 29.6914 86.1103 29.6441C86.1103 29.5652 86.1261 29.5021 86.189 29.4548V29.4232C86.1575 29.3285 86.1261 29.2339 86.1261 29.1234V28.9026C86.1733 28.729 86.2205 28.5713 86.3149 28.4293C86.4093 28.2557 86.551 28.1295 86.6768 28.0349C86.7398 27.9718 86.8342 27.9402 86.9286 27.8929H87.4322C87.4322 27.8929 87.6525 28.0033 87.7312 28.0822C87.8886 28.2242 87.9987 28.3662 88.0931 28.5871C88.1561 28.7606 88.1876 28.9184 88.1876 29.0603C88.1876 29.155 88.1718 29.2812 88.1246 29.3916C88.2033 29.4863 88.2033 29.5336 88.2033 29.6598C88.1876 29.8965 88.0931 30.0543 87.8728 30.1489L87.7941 30.2278L87.7627 30.2909C87.6682 30.354 87.6525 30.4487 87.684 30.5433C87.6683 30.6222 87.621 30.6538 87.5896 30.6853C87.5738 30.6853 87.5581 30.6853 87.5266 30.6695L87.4479 30.7642V30.8273C87.4479 31.0009 87.3063 31.1113 87.1489 31.1113C86.9758 31.1113 86.8342 31.0009 86.8342 30.8273L86.8814 30.8431ZM87.023 38.9995C87.023 38.826 87.1804 38.6682 87.3535 38.6682C87.5266 38.6682 87.684 38.826 87.684 38.9995C87.684 39.1731 87.5266 39.3308 87.3535 39.3308C87.1804 39.3308 87.023 39.1731 87.023 38.9995ZM92.6567 41.3976C92.6567 39.2677 93.2862 36.4437 94.8284 34.3455L94.7497 34.2824C92.9242 35.8442 89.3993 38.2265 88.0145 38.258V38.0845C89.116 38.0687 94.1202 35.087 95.5837 33.0202C95.6309 32.9571 95.9299 33.1307 95.8827 33.2096C93.7268 35.6865 93.5694 39.599 93.4278 41.5711C93.3649 43.3381 93.475 44.7422 94.8126 44.7422C95.6624 44.7422 96.103 43.906 96.103 42.9437C96.103 42.0917 95.7568 41.1767 95.1274 40.6403L95.8827 40.1828C96.402 40.4983 96.701 41.3029 96.701 42.1548C96.701 43.4485 95.9771 44.8526 94.8284 44.8526C93.2862 44.8526 92.6567 43.2276 92.6567 41.3818V41.3976ZM95.4578 31.0166C95.5523 30.5118 95.7883 30.1963 96.103 30.1963C96.402 30.1963 96.5122 30.5118 96.4178 31.0166C96.3233 31.5215 96.0873 31.8528 95.7883 31.8528C95.4736 31.8528 95.3634 31.5215 95.4578 31.0166Z" fill="black"/>
<path d="M97.1102 38.2738C97.1102 34.2982 97.1731 31.6635 98.3376 31.6635C99.7539 31.6635 104.569 35.5603 104.585 38.2738C104.569 40.9874 99.7539 44.8684 98.3376 44.8684C97.1731 44.8684 97.1102 42.2337 97.1102 38.2738ZM103.468 38.2581C103.468 34.8188 100.918 32.8152 99.2503 32.8152C98.0701 32.8152 97.5036 35.0712 97.4406 38.2738C97.4406 41.508 98.0229 43.7167 99.2503 43.7167C100.918 43.7167 103.468 41.7131 103.468 38.2581ZM101.217 32.4996C101.642 32.2314 101.863 31.9948 101.863 31.6477C101.863 31.0482 101.343 30.8431 101.186 30.2594C100.871 29.0761 102.508 28.2873 105.938 28.7448C108.598 29.0919 112.799 29.7388 114.924 28.9026C113.508 30.5276 110.958 33.5567 109.463 35.1028C108.488 36.1125 107.543 36.7593 106.993 36.8224C106.489 36.8855 105.34 37.1379 101.233 32.5154L101.217 32.4996ZM102.838 42.3284C103.924 40.9401 105.797 39.7884 107.701 39.4571L108.362 40.0881C105.639 40.0881 103.798 41.1925 102.854 42.4862C100.981 45.0262 103.594 47.8817 106.946 47.8502C108.409 47.8502 109.243 47.6609 110.093 47.3296C112.154 46.525 111.997 44.5213 110.754 43.0383C110.439 42.707 110.266 42.7701 110.36 43.7167C110.376 43.9061 110.376 44.0796 110.266 44.0796C110.171 44.0796 110.171 43.8429 110.187 43.7325C110.203 43.5747 110.266 43.3697 110.266 43.0857C110.266 42.8017 110.203 42.5019 109.872 42.2022C109.212 41.6973 108.378 41.3187 107.481 41.2083C106.631 41.1294 106.631 41.1136 106.757 42.1864C106.82 42.6439 106.867 43.1961 106.599 43.1961C106.379 43.1961 106.442 42.6124 106.536 42.1233C106.709 41.3029 106.615 41.1452 105.986 41.3029C104.9 41.6658 104.144 42.6282 104.019 43.5116C102.618 41.792 104.664 40.6876 106.757 40.8612C111.037 41.2714 115.097 46.2883 110.974 47.5504C110.061 47.8502 108.818 47.9922 107.276 47.9922C102.586 47.9922 99.99 45.7677 102.807 42.3126L102.838 42.3284ZM111.305 31.1113C111.305 30.2752 110.408 30.0543 109.133 29.8965C106.442 29.5652 103.546 29.2497 103.546 30.7485C103.546 32.0421 106.017 34.7872 107.669 34.7872C109.07 34.7872 111.305 32.3577 111.305 31.0955V31.1113ZM105.97 32.0263C105.97 31.1271 106.694 30.3698 107.622 30.3698C108.551 30.3698 109.275 31.0955 109.275 32.0263C109.275 32.9572 108.535 33.6987 107.622 33.6987C106.709 33.6987 105.97 32.9572 105.97 32.0263ZM110.329 36.1125C110.329 34.5506 111.619 33.2727 113.193 33.2727C114.767 33.2727 116.057 34.5664 116.057 36.1125C116.057 37.6586 114.767 38.9838 113.193 38.9838C111.619 38.9838 110.329 37.6901 110.329 36.1125ZM115.648 36.1125C115.648 34.7715 114.562 33.6829 113.193 33.6829C111.824 33.6829 110.769 34.7715 110.769 36.1125C110.769 37.4535 111.855 38.542 113.193 38.542C114.531 38.542 115.648 37.4535 115.648 36.1125Z" fill="black"/>
<path d="M117.395 32.1525L116.765 34.4086L116.403 34.1088L117.631 30.1489H117.725L118.055 35.5918C118.732 33.7617 118.244 31.9474 119.173 31.9474C120.101 31.9474 122.131 34.5821 122.131 37.4534C122.131 39.2993 121.234 40.3405 120.101 40.3405C119.11 40.3405 118.543 39.3782 118.213 38.4158L118.575 44.4424L121.486 41.9655L121.643 42.1864L117.033 46.9036L116.938 46.7142C117.583 42.4861 117.599 35.7023 117.379 32.1683L117.395 32.1525ZM123.469 45.0893C123.469 42.3284 122.792 43.7956 125.216 41.8078V41.7762C124.46 42.1391 123.815 42.4704 123.264 42.8806C122.635 43.3223 122.493 44.0953 122.493 44.4424C122.493 44.7106 122.556 45.0419 122.572 45.1997C122.588 45.3101 122.588 45.5468 122.493 45.5468C122.383 45.5468 122.383 45.3732 122.399 45.1681C122.493 44.19 122.556 43.5905 122.226 43.9376C120.857 45.8939 120.605 47.2191 118.543 47.2191C117.882 47.2191 117.253 47.3769 116.545 47.929H116.466C116.875 47.5188 117.631 47.1087 117.977 47.014C119.96 46.4618 120.51 46.099 121.187 44.0638C121.344 43.5905 121.502 43.1488 121.864 42.6755C122.745 41.5711 124.083 41.8235 125.153 41.4133C126.254 40.9874 126.317 39.7568 125.971 38.3843L126.05 38.3054C126.427 39.394 127.025 40.6718 125.546 41.934C124.287 43.0225 125.64 42.3599 126.427 41.5869C127.057 40.9558 127.576 40.7034 128.017 40.7034C129.008 40.7034 129.527 42.0286 129.527 43.5747C129.527 45.6099 128.599 48.0079 126.569 48.0079C125.2 48.0079 123.453 47.0298 123.453 45.0893H123.469ZM121.58 36.8066C121.58 34.8819 120.621 33.1149 119.676 33.1149C118.732 33.1149 118.606 34.7557 118.103 36.3964L118.181 37.7532C118.669 38.6682 119.44 38.968 119.881 38.968C120.872 38.968 121.596 38.4 121.596 36.8066H121.58ZM125.389 36.2702C125.452 36.1755 125.499 36.0809 125.546 35.9389C125.562 35.7969 125.578 35.5918 125.578 35.2605V31.6319C125.357 31.5215 125.231 31.3953 125.137 31.2848C125.042 31.1744 124.964 31.0166 124.901 30.8431C124.806 30.5907 124.681 30.4013 124.539 30.2436C124.382 30.0858 124.067 29.9281 123.563 29.8018C123.075 29.6599 122.336 29.5494 121.36 29.4548L123.485 29.5967L123.138 28.9972L124.287 29.5967C124.633 29.3759 125.341 29.0288 126.018 28.8237C126.947 28.5239 127.67 28.5713 128.473 28.9184C128.945 29.1392 129.354 29.4863 129.685 29.9912C130.015 30.496 130.188 31.1744 130.188 32.0263C130.188 32.5943 130.157 32.9571 130.078 33.1622C130 33.3516 129.889 33.4778 129.748 33.4778C129.685 33.4778 129.669 33.462 129.59 33.4462C129.512 33.4304 129.449 33.4304 129.433 33.4304C129.339 33.4304 129.26 33.4935 129.197 33.6198C129.134 33.7617 129.118 33.9826 129.118 34.3139C129.118 34.4717 129.087 34.5506 129.024 34.5506C128.945 34.5506 128.772 34.3928 128.505 34.1088C128.19 33.7775 127.922 33.5093 127.686 33.3358C127.45 33.1622 127.214 33.0991 126.978 33.1149C127.293 33.0518 127.403 33.0518 127.796 33.2727C128.017 33.3831 128.143 33.4147 128.221 33.4147C128.363 33.4147 128.457 33.32 128.536 33.1149C128.599 32.9414 128.63 32.6101 128.63 32.121C128.63 31.6792 128.552 31.2217 128.41 30.7958C128.268 30.3698 128.08 30.0069 127.844 29.723C127.608 29.439 127.356 29.2497 127.104 29.2339C126.884 29.2181 126.679 29.297 126.443 29.5021C126.207 29.7072 125.955 29.9912 125.703 30.3382L126.931 30.9851V36.1755C126.836 36.2544 126.679 36.3175 126.443 36.3333C126.207 36.3491 126.034 36.4122 125.924 36.5226C125.814 36.6173 125.751 36.8539 125.751 37.1852L125.263 36.6331C125.279 36.5384 125.341 36.4122 125.404 36.3175L125.389 36.2702ZM121.974 44.3478L121.942 44.4109C121.942 44.4109 121.958 44.3793 121.974 44.3478ZM129.37 43.5589C129.37 42.565 128.961 41.6815 128.284 41.3976C127.623 41.1609 127.545 41.3976 127.686 42.423C127.749 42.8648 127.796 43.4327 127.529 43.4327C127.309 43.4327 127.372 42.849 127.466 42.3599C127.639 41.508 127.56 41.2082 126.836 41.5553C126.6 41.6973 126.333 41.8866 126.065 42.1391C124.492 43.6378 123.61 43.2276 123.642 44.8684C123.658 46.7931 125.672 47.156 126.947 46.7931C128.662 46.3198 129.37 44.8368 129.37 43.5432V43.5589ZM129.307 38.542C129.307 36.8382 130.22 35.1027 130.818 34.3612L130.739 34.2981C129.449 35.8127 127.765 38.2107 126.585 38.5105C126.506 38.5262 126.443 38.2738 126.506 38.258C127.576 38.0372 129.968 35.1027 131.542 32.9887C131.605 32.9098 131.731 32.9887 131.762 33.0676C132.565 32.0105 133.399 31.2691 134.06 31.2691C135.287 31.2691 135.68 33.2569 135.68 34.7714C135.68 36.4911 135.161 39.3782 132.517 39.3782C131.557 39.3782 130.849 38.9207 130.094 38.1318V38.4631C130.094 40.7981 131.589 44.9631 135.334 45.3417L135.098 46.3198C132.376 45.3101 129.339 40.9716 129.339 38.5262L129.307 38.542ZM135.476 34.0615C135.476 32.9729 135.035 31.9632 133.918 31.9632C131.856 31.9632 130.267 35.4498 130.094 38.053C130.865 38.7787 131.479 38.9522 132.391 38.9522C134.799 38.9522 135.492 35.7811 135.492 34.0773L135.476 34.0615Z" fill="black"/>
<path d="M135.775 28.5082H155.225L145.5 38.2581L135.775 28.5082ZM135.964 34.0773C135.964 33.4936 136.451 33.0203 137.034 33.0203C137.616 33.0203 138.104 33.4936 138.104 34.0773C138.104 34.661 137.616 35.1501 137.034 35.1501C136.451 35.1501 135.964 34.6768 135.964 34.0773ZM136.436 30.4645C136.436 30.2751 136.625 30.1016 136.876 30.1016C137.112 30.1016 137.301 30.2751 137.301 30.4645C137.301 30.6853 137.112 30.8589 136.876 30.8589C136.625 30.8589 136.436 30.6853 136.436 30.4645ZM136.924 43.6378C136.924 43.0541 137.411 42.5808 137.994 42.5808C138.576 42.5808 139.064 43.0541 139.064 43.6378C139.064 44.2216 138.576 44.7106 137.994 44.7106C137.411 44.7106 136.924 44.2374 136.924 43.6378ZM137.301 38.1792C137.301 37.2484 138.954 36.5226 140.936 36.5226C142.919 36.5226 144.572 37.2484 144.572 38.1792C144.572 39.11 142.919 39.8515 140.936 39.8515C138.954 39.8515 137.301 39.1258 137.301 38.1792ZM138.859 46.5407C138.859 46.3672 139.032 46.2725 139.347 46.2725H139.174C138.859 46.2725 138.686 46.1779 138.686 46.0043C138.686 45.8308 138.859 45.7361 139.174 45.7361H139.284C138.969 45.7361 138.796 45.6415 138.796 45.4679C138.796 45.2944 138.969 45.1997 139.284 45.1997H140.197C140.511 45.1997 140.685 45.2944 140.685 45.4679C140.685 45.6415 140.511 45.7361 140.197 45.7361H140.307C140.622 45.7361 140.795 45.8308 140.795 46.0043C140.795 46.1779 140.622 46.2725 140.307 46.2725H140.134C140.449 46.2725 140.622 46.3672 140.622 46.5407C140.622 46.7143 140.449 46.8089 140.134 46.8089H139.331C139.017 46.8089 138.843 46.7143 138.843 46.5407H138.859ZM139.552 44.9C139.552 44.7264 139.63 44.6318 139.772 44.6318C139.882 44.6318 139.961 44.7264 139.961 44.9C139.961 45.0735 139.882 45.1682 139.772 45.1682C139.63 45.1682 139.552 45.0735 139.552 44.9ZM139.929 34.9608C139.929 34.7714 140.118 34.5979 140.386 34.5979C140.622 34.5979 140.81 34.7714 140.81 34.9608C140.81 35.1816 140.622 35.3552 140.386 35.3552C140.134 35.3552 139.929 35.1816 139.929 34.9608ZM144.257 45.9885C144.257 45.815 144.43 45.7203 144.745 45.7203H144.446C144.131 45.7203 143.958 45.6257 143.958 45.4521C143.958 45.2786 144.131 45.1839 144.446 45.1839H144.273C143.958 45.1839 143.785 45.0893 143.785 44.9157C143.785 44.7422 143.958 44.6475 144.273 44.6475H144.131C143.816 44.6475 143.643 44.5529 143.643 44.3793C143.643 44.2058 143.816 44.1111 144.131 44.1111H144.052C143.737 44.1111 143.564 44.0165 143.564 43.8429C143.564 43.6694 143.737 43.5747 144.052 43.5747H144.005C143.69 43.5747 143.517 43.4801 143.517 43.3065C143.517 43.133 143.69 43.0383 144.005 43.0383C143.69 43.0383 143.517 42.9437 143.517 42.7701C143.517 42.5966 143.69 42.5019 144.005 42.5019H144.052C143.737 42.5019 143.564 42.4073 143.564 42.2337C143.564 42.0602 143.737 41.9655 144.052 41.9655H144.131C143.816 41.9655 143.643 41.8709 143.643 41.6973C143.643 41.5238 143.816 41.4291 144.131 41.4291H144.273C143.958 41.4291 143.785 41.3345 143.785 41.1609C143.785 40.9874 143.958 40.8927 144.273 40.8927H144.446C144.131 40.8927 143.958 40.7981 143.958 40.6245C143.958 40.451 144.131 40.3563 144.446 40.3563H144.745C144.43 40.3563 144.257 40.2617 144.257 40.0881C144.257 39.9146 144.43 39.8199 144.745 39.8199H145.657C145.972 39.8199 146.145 39.9146 146.145 40.0881C146.145 40.2617 145.972 40.3563 145.657 40.3563H145.956C146.271 40.3563 146.444 40.451 146.444 40.6245C146.444 40.7981 146.271 40.8927 145.956 40.8927H146.129C146.444 40.8927 146.617 40.9874 146.617 41.1609C146.617 41.3345 146.444 41.4291 146.129 41.4291H146.271C146.586 41.4291 146.759 41.5238 146.759 41.6973C146.759 41.8709 146.586 41.9655 146.271 41.9655H146.35C146.664 41.9655 146.838 42.0602 146.838 42.2337C146.838 42.4073 146.664 42.5019 146.35 42.5019H146.397C146.712 42.5019 146.885 42.5966 146.885 42.7701C146.885 42.9437 146.712 43.0383 146.397 43.0383C146.712 43.0383 146.885 43.133 146.885 43.3065C146.885 43.4801 146.712 43.5747 146.397 43.5747H146.35C146.664 43.5747 146.838 43.6694 146.838 43.8429C146.838 44.0165 146.664 44.1111 146.35 44.1111H146.271C146.586 44.1111 146.759 44.2058 146.759 44.3793C146.759 44.5529 146.586 44.6475 146.271 44.6475H146.129C146.444 44.6475 146.617 44.7422 146.617 44.9157C146.617 45.0893 146.444 45.1839 146.129 45.1839H145.956C146.271 45.1839 146.444 45.2786 146.444 45.4521C146.444 45.6257 146.271 45.7203 145.956 45.7203H145.657C145.972 45.7203 146.145 45.815 146.145 45.9885C146.145 46.1621 145.972 46.2567 145.657 46.2567H144.745C144.43 46.2567 144.257 46.1621 144.257 45.9885ZM144.823 39.4413C144.823 39.2678 144.965 39.1731 145.217 39.1731C145.468 39.1731 145.61 39.2678 145.61 39.4413C145.61 39.6148 145.468 39.7095 145.217 39.7095C144.965 39.7095 144.823 39.6148 144.823 39.4413ZM144.823 46.5407C144.823 46.3672 144.965 46.2725 145.217 46.2725C145.468 46.2725 145.61 46.3672 145.61 46.5407C145.61 46.7143 145.468 46.8089 145.217 46.8089C144.965 46.8089 144.823 46.7143 144.823 46.5407ZM148.081 43.8114C148.081 43.6378 148.191 43.5432 148.411 43.5432C148.6 43.5432 148.726 43.6378 148.726 43.8114C148.726 43.9849 148.616 44.0796 148.411 44.0796C148.191 44.0796 148.081 43.9849 148.081 43.8114ZM148.128 43.2592C148.128 43.0857 148.222 42.991 148.427 42.991C148.6 42.991 148.694 43.0857 148.694 43.2592C148.694 43.4327 148.6 43.5274 148.427 43.5274C148.254 43.5274 148.128 43.4327 148.128 43.2592ZM148.49 47.6293C148.49 47.4558 148.663 47.3611 148.978 47.3611H148.726C148.411 47.3611 148.238 47.2664 148.238 47.0929C148.238 46.9194 148.411 46.8247 148.726 46.8247H148.757C148.443 46.8247 148.27 46.73 148.27 46.5565C148.27 46.383 148.443 46.2883 148.757 46.2883H149.198C148.883 46.2883 148.71 46.1936 148.71 46.0201C148.71 45.8466 148.883 45.7519 149.198 45.7519H149.34C149.654 45.7519 149.828 45.8466 149.828 46.0201C149.828 46.1936 149.654 46.2883 149.34 46.2883H149.78C150.095 46.2883 150.268 46.383 150.268 46.5565C150.268 46.73 150.095 46.8247 149.78 46.8247H149.812C150.126 46.8247 150.3 46.9194 150.3 47.0929C150.3 47.2664 150.126 47.3611 149.812 47.3611H149.56C149.875 47.3611 150.048 47.4558 150.048 47.6293C150.048 47.8028 149.875 47.8975 149.56 47.8975H148.962C148.647 47.8975 148.474 47.8028 148.474 47.6293H148.49ZM152.503 47.0771C152.503 46.9036 152.644 46.8089 152.896 46.8089C153.132 46.8089 153.274 46.9036 153.274 47.0771C153.274 47.2507 153.132 47.3453 152.896 47.3453C152.644 47.3453 152.503 47.2507 152.503 47.0771ZM153.777 38.2265C153.872 37.7217 154.108 37.4061 154.423 37.4061C154.722 37.4061 154.832 37.7217 154.737 38.2265C154.643 38.7314 154.407 39.0627 154.108 39.0627C153.793 39.0627 153.683 38.7314 153.777 38.2265Z" fill="black"/>
<path d="M156.091 36.2229C156.091 33.8248 155.949 33.0202 155.587 34.2508L155.367 34.1404C155.933 32.8151 156.264 31.411 156.342 29.8965H156.437L156.909 35.7022C156.972 33.32 157.177 31.7581 158.073 31.7581C158.624 31.7581 159.222 32.5154 159.537 34.377C159.616 33.8564 159.71 33.3831 159.978 33.3831C160.702 33.3831 161.394 38.7629 163.927 38.7629L162.511 40.1354C160.56 39.9461 160.702 34.0141 160.009 34.0141C159.789 34.0141 159.679 34.3139 159.584 34.6452C159.694 35.4183 159.773 36.3964 159.773 37.5481C159.773 40.0408 160.166 41.508 160.78 42.0286L159.018 43.9376C158.168 41.0347 159.159 39.7568 159.332 36.3333C159.443 34.1561 158.829 32.9256 158.073 32.9256C156.893 32.9256 156.956 37.1221 157.68 45.1681L155.508 47.5031C155.949 43.7325 156.106 38.6367 156.106 36.2386L156.091 36.2229ZM160.072 43.7956C160.591 42.3915 162.543 40.4194 163.534 41.0662C163.723 41.1767 163.896 41.3187 164.053 41.4607C164.699 40.3248 164.038 38.5893 164.824 38.5578C165.391 38.542 166.146 40.2616 166.524 41.9813C166.886 41.4922 167.61 41.3976 168.397 41.8708C170.631 43.1803 171.135 47.2349 174.141 47.8975V48.0079C169.278 47.0929 170.71 44.2689 168.774 42.4072C168.271 41.934 168.255 42.4072 168.412 43.1803C168.507 43.6694 168.57 44.2531 168.349 44.2531C168.082 44.2531 168.129 43.6851 168.192 43.2434C168.302 42.3915 168.271 41.934 167.783 41.7604C167.72 41.7446 167.641 41.7289 167.594 41.7289H167.5C167.091 41.6658 166.744 41.8235 166.587 42.1706C166.697 42.7386 166.76 43.3065 166.76 43.7956C166.76 46.2567 167.421 46.7931 168.475 48.0079H168.381C166.902 46.2883 165.989 45.8781 165.989 43.8902C165.989 42.2179 165.989 39.0469 164.982 39.0469C164.337 39.0469 164.746 41.2871 164.463 41.8393C166.178 43.9376 164.84 47.3768 159.71 48.0079V47.929C162.983 47.4242 165.171 44.0322 164.415 42.2022C164.069 41.4449 163.975 41.6973 164.085 42.8805C164.101 43.0699 164.101 43.2592 163.99 43.2592C163.896 43.2592 163.896 43.0225 163.912 42.9121C163.975 42.5492 164.211 41.6184 163.534 41.3502C163.219 41.3029 162.842 41.4607 162.433 41.7762C161.866 42.2179 161.787 42.5492 161.913 43.4958C161.976 43.9376 162.023 44.5055 161.756 44.5055C161.536 44.5055 161.598 43.9533 161.693 43.4327C161.85 42.5966 161.835 42.3599 161.362 42.8805C161.063 43.275 160.812 43.7009 160.623 44.1269C160.056 45.4206 159.317 46.6669 155.65 48.0079V47.929C158.939 46.7616 159.584 45.1997 160.104 43.7956H160.072ZM160.969 33.9195V30.5275C160.969 29.7545 160.623 29.3916 159.82 29.3916C158.75 29.3916 158.577 30.0385 158.577 31.0482L156.217 28.871L156.453 28.5555C157.633 29.1077 158.026 29.0761 159.82 29.0761H162.527V35.4656L160.969 33.9037V33.9195ZM166.87 33.3358C168.334 32.9256 169.656 32.2787 169.656 31.0008C169.656 29.6283 168.271 29.0446 166.618 29.0446C164.777 29.0446 163.849 29.3601 163.849 29.9596C163.849 30.7642 165.47 31.8843 166.43 32.4523L164.84 33.1307L163.219 32.0736H163.235C163.896 31.8212 163.062 31.1113 163.062 30.2751C163.062 28.8395 164.887 28.5555 166.618 28.5555C168.916 28.5555 171.402 29.0603 171.402 30.8588C171.402 32.1052 170.553 32.9256 168.837 33.3358C167.122 33.7459 165.265 33.9353 163.235 33.9353C164.746 33.7617 165.958 33.5724 166.854 33.32L166.87 33.3358ZM163.629 39.7883C163.896 38.9522 163.865 40.0881 164.101 40.1354C164.337 40.1985 163.723 40.6876 164.101 41.3818L164.069 41.5553C164.006 41.1136 163.361 40.7823 163.644 39.7883H163.629ZM170.852 43.2276C170.852 42.9121 170.93 42.5019 171.166 42.2179C171.764 41.5711 173.039 41.8866 173.81 41.2398C174.219 40.9243 174.455 40.5614 174.455 40.1354C174.455 38.8418 172.252 38.9206 170.852 39.2362C170.285 39.8041 169.955 39.9934 169.703 39.8988C169.53 39.8357 169.451 39.6621 169.514 39.4886C169.608 39.1888 169.955 39.2204 170.553 39.1415H170.694C170.694 39.1415 170.757 39.1257 170.789 39.1257C172.677 38.0687 174.203 37.2799 174.203 36.0493C174.203 35.0554 173.464 34.5506 172.441 34.5506C171.544 34.5506 170.458 35.0554 166.272 38.3054C166.099 38.4473 165.879 38.5578 165.69 38.5578C165.517 38.5578 165.328 38.4473 165.328 38.2423C165.328 37.9741 165.564 37.8321 165.958 37.8321C166.099 37.8321 166.241 37.8478 166.43 37.8952C167.153 37.485 169.907 34.8503 171.276 33.6671C171.827 33.178 172.488 32.5154 172.488 31.8685C172.488 31.553 172.378 31.269 172.173 31.1428L173.133 30.7011C173.291 30.8115 173.401 31.1113 173.401 31.4268C173.401 32.1683 172.567 32.7678 171.749 33.4777C171.686 33.5251 169.498 35.4656 167.893 36.8697L167.925 36.9012C170.663 34.8976 172.063 33.8564 172.929 33.8564C173.92 33.8564 174.581 34.4559 174.581 35.434C174.581 37.5954 172.677 38.1949 171.088 39.0942C172.756 38.4631 174.628 38.258 174.628 40.1828C174.628 40.7349 174.471 41.1925 174.109 41.5869C172.976 42.7228 171.072 41.8077 171.072 43.3223C171.072 44.1742 172.032 45.1366 172.945 45.1366C173.621 45.1366 173.7 44.2847 173.668 43.9691L174.408 43.8745C174.597 44.6791 173.857 45.3732 173.102 45.3732C172.142 45.3732 170.899 44.2215 170.899 43.2276H170.852Z" fill="black"/>
<path d="M174.959 37.5323C174.959 35.2132 174.896 31.1744 175.793 31.1744C176.942 31.1744 180.891 34.8188 180.891 36.2702C180.891 38.3212 176.674 37.9425 175.51 39.5202C175.604 42.1864 175.95 43.1645 176.643 43.1645C178.311 43.1645 178.877 39.6306 183.504 38.5105V38.6525C178.012 40.1986 177.555 46.1621 176.06 46.1621C175.132 46.1621 174.975 41.6973 174.975 37.5481L174.959 37.5323ZM179.318 35.86C179.318 34.0299 178.059 32.7678 177.115 32.7678C175.714 32.7678 175.462 34.9134 175.462 37.627C175.462 38.1949 175.462 38.6998 175.478 39.1415C176.532 37.7059 179.318 38.0056 179.318 35.86ZM176.58 29.8018L177.634 28.8395H185.14C186.352 28.8395 187.044 28.9972 187.044 29.8334C187.044 30.6696 187.06 30.9693 186.714 31.0797C186.541 31.1428 186.226 31.1744 185.754 31.1744C185.376 31.1744 185.077 31.3953 184.826 31.8212C184.574 32.2472 184.306 32.8625 184.007 33.6513C183.85 34.0931 183.708 34.4559 183.582 34.7241L183.504 34.8819L183.74 35.1343C183.971 35.4078 184.159 35.8127 184.306 36.3491C184.401 36.6804 184.464 36.8382 184.479 36.8382C184.495 36.8382 184.527 36.7435 184.527 36.57C184.527 36.2387 184.558 36.002 184.668 35.8285C184.763 35.6707 184.904 35.5129 185.077 35.3552C190.255 30.1647 184.322 36.0809 189.499 30.9851L189.012 31.6161C186.698 34.5821 185.172 36.6488 184.464 37.8005L176.611 29.8018H176.58ZM177.304 46.6038C177.304 44.8684 182.544 39.8988 184.495 39.8988C185.077 39.8988 185.675 40.1197 186.305 40.5614C188.728 42.3284 189.515 43.6063 189.059 44.474C188.949 44.6949 188.76 44.8684 188.508 45.0419C188.272 45.2155 188.209 45.4837 188.24 45.7992C188.24 46.0516 188.414 46.4934 188.24 46.4934C188.02 46.4934 188.193 46.0516 188.162 45.6415C188.13 45.3259 188.099 45.2944 187.863 45.3417C186.446 45.9096 183.913 46.1463 180.671 46.1463V46.0832C184.291 46.0832 187.375 45.0735 188.193 43.764C189.027 42.4388 186.981 40.8769 185.376 40.8769C184.558 40.8769 183.567 41.1136 182.622 41.5238C182.292 41.6815 182.182 41.8709 182.292 42.7386C182.355 43.1803 182.402 43.7483 182.135 43.7483C181.914 43.7483 181.977 43.1645 182.072 42.6755C182.229 41.8709 182.245 41.6973 181.757 41.934C179.884 42.9279 178.279 44.5055 178.279 46.0359C178.279 47.8502 181.19 47.7397 184.023 47.6924C187.579 47.6293 189.295 47.014 190.459 45.8781C191.026 45.3575 191.435 45.3732 191.624 45.6099C192.363 46.5092 189.971 47.3769 188.728 47.6608C187.674 47.8817 186.525 47.9133 184.763 47.9133C181.474 47.9133 177.288 48.3235 177.288 46.6038H177.304ZM183.173 31.1744C184.416 30.8589 185.392 30.5907 185.644 30.0385H179.349L179.019 30.3698L180.687 32.0737C181.285 31.6635 182.198 31.411 183.173 31.1744ZM187.06 38.3054C187.06 38.1476 187.076 37.9898 187.092 37.8163C186.384 38.0056 185.644 38.2107 184.841 38.3843L184.81 38.2423C185.644 38.053 186.431 37.8479 187.139 37.6428C187.69 35.1659 190.979 31.2691 192.552 31.2691C193.465 31.2691 193.937 31.9159 193.937 32.8467C193.937 34.661 192.017 36.3175 187.831 37.6112C187.8 37.8636 187.768 38.0845 187.768 38.3212C187.768 41.0505 191.12 45.4837 192.851 44.9157C194.346 44.4424 193.685 41.6658 191.813 40.9243L192.379 40.2459C193.15 40.4037 194.016 41.5869 194.016 42.991C194.016 44.0796 193.591 45.0735 192.395 45.0735C190.318 45.0735 187.06 40.8296 187.06 38.3212V38.3054ZM193.418 33.2253C193.418 32.5627 193.103 31.979 192.411 31.979C190.664 31.979 188.319 34.8819 187.847 37.4377C191.64 36.2229 193.433 34.7399 193.433 33.2253H193.418Z" fill="black"/>
<path d="M121.974 92.8131C122.352 93.2075 125.64 90.6517 126.176 90.2416C127.293 89.3739 131.557 85.1457 132.218 84.9407C133.037 84.6882 133.493 85.1142 133.257 85.9819C133.1 86.5341 125.877 92.9709 124.869 93.7282C115.616 100.607 118.354 90.4309 120.133 84.9407C128.662 58.6255 144.871 33.9668 158.86 10.3809C159.065 10.0496 159.883 8.70861 159.647 8.42463C156.421 10.87 153.274 13.6782 150.315 16.4864C137.081 29.0761 125.672 43.3854 112.422 55.9119C111.43 56.8585 106.552 61.6388 105.891 61.8439C104.742 62.2067 103.94 61.8754 103.672 60.6922L110.266 45.2943C110.376 44.7579 110.266 44.6317 109.715 44.7421C108.818 44.9157 105.954 47.0613 105.026 47.7397C98.6995 52.3464 93.3649 58.5623 87.385 63.4688C85.591 63.6739 86.0474 61.3548 86.2834 60.14L93.6166 39.6148L67.5884 63.4057L66.7229 63.2795C66.9904 58.2784 69.3509 53.7663 70.8616 49.0807C70.9718 48.7178 71.3967 47.9132 70.9403 47.6923L46.7375 74.4177L45.5101 74.4651C46.5644 64.6994 52.1823 56.1328 53.9134 46.5722C52.8275 46.9666 52.1194 47.787 51.364 48.6074C48.8305 51.3209 45.6202 55.691 43.6531 58.8621C41.5444 62.2698 39.782 65.7564 38.9007 69.7006C38.0037 69.8425 38.0824 69.5743 38.1926 68.8171C38.9951 63.3584 47.6345 50.3743 51.8361 46.7142C52.3712 46.2409 54.2281 44.9157 54.8418 45.8465C56.1794 47.8659 50.593 59.8718 49.633 62.6642C48.7675 65.1727 47.7132 68.2018 47.5086 70.8049C52.025 66.1508 55.9434 60.8815 60.3024 56.117C62.4583 53.7505 65.3223 50.5006 67.6041 48.4023C68.1707 47.8817 71.255 45.2628 71.8373 45.8465C72.2307 50.3112 69.7286 54.5078 68.391 58.7043C68.2021 59.2881 67.6671 60.3451 67.9976 60.8815L94.3562 36.6488C95.4421 36.5226 95.8198 37.2325 95.5522 38.2264C92.4364 45.4205 88.9586 52.6777 87.9357 60.5186C94.6553 55.8015 100.509 48.6547 107.355 44.2215C108.692 43.3538 110.895 41.5395 111.666 43.764L106.788 56.1328C116.576 46.6195 125.326 36.0493 134.752 26.2205C141.692 18.9949 153.683 6.42101 161.882 1.30943C165.611 -1.00972 168.916 -0.315551 166.87 4.4805C152.345 30.0227 135.948 55.4702 125.09 82.937C123.815 86.1554 122.603 89.4054 121.974 92.8447V92.8131Z" fill="black"/>
</g>
<defs>
<clipPath id="clip0_508_8008">
<rect width="194" height="96" fill="white"/>
</clipPath>
</defs>
</svg>
